<svg width="156" height="162" viewBox="0 0 156 162" fill="none" xmlns="http://www.w3.org/2000/svg">
<path d="M111.866 60.4627C111.913 60.6158 112 60.7488 112.146 60.8007C113.47 61.5434 114.046 62.7695 114.12 64.2262C114.186 65.6116 113.656 66.8196 112.619 67.7795C111.681 68.6384 110.592 68.9666 109.351 68.7642C109.068 68.7316 108.764 68.76 108.343 68.7467C109.03 69.6376 109.708 70.3553 109.903 71.4463C110.098 72.5373 109.747 73.5022 109.6 74.5398C109.858 74.1547 110.213 73.8721 110.51 73.5687C110.944 73.1442 111.446 72.8117 112.034 72.7141C112.622 72.6165 113.201 72.4476 113.837 72.5031C115.244 72.6965 116.157 73.4973 116.899 74.7144C118.056 76.5557 117.384 79.28 115.729 80.4289C114.872 81.0439 113.909 81.4851 112.776 81.2529C112.444 81.169 112.101 81.2175 111.564 81.1627C113.562 83.0304 113.825 85.2013 112.582 87.3817C111.785 88.8016 110.671 89.6999 107.513 89.3615C108.337 90.233 108.916 91.1537 109.032 92.2848C109.168 93.4569 108.854 94.6053 108.287 95.5279C107.83 96.3189 107.079 97.0059 106.137 97.2843C105.274 97.5225 104.362 97.7094 103.436 97.3463C103.619 97.6837 103.704 98.0203 103.936 98.3071C104.419 98.9216 104.628 99.6766 104.718 100.492C104.809 101.205 104.695 101.846 104.503 102.527C104.169 103.736 103.321 104.423 102.376 105.007C101.431 105.59 100.421 105.777 99.3283 105.423C99.2405 105.391 99.1527 105.36 99.0539 105.461C100.43 106.938 101.04 108.653 100.453 110.726C101.322 109.877 102.238 109.282 103.413 109.189C104.617 109.106 105.739 109.471 106.582 110.383C108.074 112.003 108.163 113.907 107.08 115.702C106.056 117.416 104.151 118.135 101.987 117.162C100.993 116.707 100.306 115.918 99.9242 114.897C99.5323 113.907 99.552 112.858 99.9045 111.791C99.233 112.438 98.5624 112.983 97.7082 113.293C96.8246 113.592 95.944 113.585 94.9079 113.456C95.789 114.45 96.3666 115.472 96.3258 116.684C96.2851 117.895 95.9407 119.135 94.9939 119.923C93.2777 121.356 91.7384 121.661 89.6284 120.23C88.0239 119.15 87.582 117.222 88.2953 115.262C88.9984 113.332 90.7338 111.939 93.3106 112.65C93.3811 112.437 93.3437 112.253 93.1983 112.099C92.1416 111.043 91.9291 109.707 92.0111 108.272C92.012 108.17 92.013 108.068 92.025 107.834C91.3928 108.461 90.6949 108.792 89.9677 109.113C89.1912 109.484 88.3719 109.193 87.5186 109.401C88.4765 110.558 88.8463 111.813 88.6473 113.207C88.4775 114.611 87.7921 115.696 86.6697 116.421C85.5272 117.207 84.245 117.228 82.8972 116.954C83.8469 117.938 84.3842 119.083 84.2931 120.447C84.2259 121.342 83.9631 122.236 83.3693 122.945C81.8147 124.879 79.8467 124.997 77.8316 123.873C76.4784 123.119 75.7752 120.894 76.2323 119.116C76.7196 117.246 78.3106 115.597 81.3493 116.098C81.0533 115.311 80.3731 114.797 80.1659 113.94C79.9779 113.124 79.9563 112.299 80.0637 111.282C79.5687 111.889 79.0473 112.181 78.546 112.411C77.8774 112.753 77.1421 112.9 76.3693 112.864C75.9779 112.861 75.859 113.024 76.0417 113.361C76.2245 113.698 76.4073 114.036 76.5214 114.383C76.9781 115.771 76.8879 117.033 76.0442 118.3C75.2993 119.465 74.2566 120.049 73.0018 120.284C71.3455 120.547 70.0307 119.876 68.9961 118.555C68.6286 118.083 68.4487 117.441 68.288 116.839C68.0607 116.043 68.1954 115.239 68.2928 114.252C66.8068 116.176 65.0417 116.571 62.9431 115.996C63.4257 116.712 64.0958 117.257 64.3131 118.083C64.5304 118.909 64.5913 119.714 64.3779 120.558C64.1544 121.432 63.6877 122.152 63.0171 122.697C61.6367 123.807 59.6869 124.068 58.3073 122.999C56.4807 121.601 55.9612 119.612 56.9004 117.561C57.5695 116.13 58.9619 114.786 62.1752 115.451C61.4293 114.641 60.7117 113.943 60.5064 112.883C60.291 111.853 60.3984 110.835 60.6531 109.768C59.9705 110.547 59.2688 111.285 58.2682 111.543C57.2777 111.77 56.3083 111.834 55.2641 111.531C56.9022 113.203 57.3642 115.07 56.2677 117.2C54.2776 119.661 52.381 119.464 50.8331 118.607C49.1975 117.72 48.5609 115.689 48.8597 114.092C49.1072 112.75 49.9571 111.86 51.0786 111.236C52.2393 110.593 53.4409 110.816 54.6616 111.079C53.709 110.4 53.0912 109.499 52.8274 108.418C52.5343 107.326 52.7405 106.208 53.1515 105.162C52.9376 105.018 52.8973 105.14 52.8671 105.231C52.2402 106.337 51.2468 106.869 50.099 107.177C48.8927 107.463 47.7698 107.201 46.8181 106.42C45.9734 105.711 45.3556 104.811 45.1905 103.628C45.0792 102.976 45.1828 102.365 45.2279 101.734C45.2298 101.531 45.3296 101.328 45.2053 101.011C44.3122 102.329 43.0455 102.798 41.6563 102.747C40.7565 102.7 39.8494 102.378 39.2105 101.64C37.7581 100 37.4496 98.4606 38.4573 96.4006C39.3351 94.6351 41.4451 93.9884 43.0261 94.4478C44.3145 94.8033 45.1673 95.6851 45.6945 96.86C46.2409 98.0757 45.9843 99.3467 45.6006 100.607C46.9292 98.7629 48.6378 98.1439 50.7967 98.5361C49.5563 97.2442 48.9927 95.7839 49.254 94.0038C48.912 93.9504 48.6751 94.1727 48.4583 94.3341C47.2169 95.2213 44.9481 95.0624 43.7624 94.1985C41.9842 92.8517 41.4604 90.2818 42.4662 88.4256C43.2533 86.9343 44.4947 86.0471 46.2066 86.1103C46.4709 86.102 46.7553 86.0328 47.0187 86.1264C47.1064 86.1575 47.2144 86.1278 47.2839 86.0162C47.3242 85.8943 47.2858 85.8126 47.1789 85.7405C46.1687 84.939 45.8957 83.7863 45.7115 82.5631C45.6659 82.2063 45.8746 81.8718 45.7997 81.5046C45.6141 81.4728 45.4376 81.5122 45.2994 81.6334C44.2245 82.5116 43.01 82.6251 41.7399 82.4123C40.841 82.2633 40.1718 81.6169 39.5814 80.9304C38.5841 79.7929 38.3917 78.3965 38.7572 76.9938C39.1126 75.6217 39.9151 74.5786 41.2998 74.0488C42.2035 73.6887 43.0741 73.7255 43.9538 73.8337C44.1102 73.8552 44.2464 73.9376 44.434 73.7659C42.5095 72.3671 42.2735 70.4103 42.7757 68.0005C41.8653 69.0734 40.9587 69.7389 39.715 69.842C38.4813 69.9146 37.3694 69.5196 36.5458 68.6482C35.2962 67.2848 34.8837 65.3675 35.9087 63.552C36.9136 61.7976 38.6322 61.1481 40.5259 61.6505C41.2775 61.8493 41.8599 62.3627 42.3928 62.9266C43.0034 63.5521 43.2116 64.3072 43.331 65.1329C43.4313 65.9177 43.2673 66.7108 43.1033 67.5039C43.8151 66.7351 44.5077 65.9254 45.5567 65.7191C46.5371 65.5225 47.5367 65.3668 48.5608 65.7305C47.8826 65.0128 47.2427 64.3769 46.988 63.3669C46.7424 62.4283 46.6339 61.4703 46.8291 60.484C46.0972 61.3137 45.2794 61.9086 44.1819 62.0637C43.1137 62.2291 42.1069 62.1099 41.2622 61.4012C39.155 59.6651 39.2235 57.578 39.9823 55.9746C40.8802 54.1481 42.9116 53.5415 44.3866 53.827C45.6174 54.0599 46.4611 54.8704 47.0679 55.9033C47.6939 56.977 47.6239 58.1781 47.4167 59.3986C48.0206 58.6596 48.7789 58.1457 49.5555 57.7745C50.3714 57.3832 51.2794 57.6036 52.2195 57.5289C50.9345 55.7783 50.4131 53.9926 51.5469 52.0455C52.8199 49.8755 54.9755 49.5855 56.4102 49.993C57.523 50.2861 58.2982 51.1063 58.8858 52.0983C59.4926 53.1312 59.4135 54.2609 59.4322 55.3914C59.6754 55.5459 59.6874 55.3117 59.8054 55.2515C60.6635 54.5347 61.6266 54.0935 62.704 53.9994C62.939 53.9808 63.1438 54.0535 63.3587 54.0958C63.5443 54.1277 63.7199 54.19 63.8197 53.9871C63.9588 53.7641 63.7933 53.6712 63.6772 53.5278C63.1078 52.6785 62.7543 51.7697 62.8233 50.6704C62.8842 49.398 63.3053 48.3216 64.1553 47.4316C64.9458 46.6226 65.8979 46.3138 66.9853 46.1892C67.877 46.0633 68.6368 46.4353 69.3874 46.736C69.7285 46.8912 69.989 47.2902 70.2796 47.5978C71.2778 48.6335 71.5983 49.9392 71.487 51.3641C71.476 51.4964 71.4357 51.6183 71.5225 51.7513C72.1729 51.2672 72.8809 50.9056 73.6182 50.5545C74.3947 50.1833 75.213 50.5762 75.9886 50.3068C74.3755 48.0651 74.5309 46.1111 75.424 44.7937C76.9229 42.5337 79.0886 42.2132 80.8715 43.0508C82.4789 43.8261 83.8344 45.3633 83.2934 48.7809C85.0537 46.8181 87.0328 46.5675 89.2345 47.622C90.7575 49.0484 91.6713 50.7352 91.0137 53.0217C92.5836 51.5361 94.2528 50.9371 96.2506 51.817C98.307 52.7177 98.9464 54.4432 98.9253 56.6834C100.334 55.6854 101.758 55.1355 103.436 55.6975C103.049 55.1856 102.761 54.6743 102.482 54.1326C102.049 53.3658 101.998 52.5304 102.143 51.6964C102.256 51.1575 102.427 50.6394 102.646 50.1726C102.946 49.5637 103.44 49.0581 104.011 48.716C105.911 47.5179 108.253 48.1457 109.509 49.8859C110.562 51.3496 110.395 53.5378 109.344 54.9355C108.511 56.07 107.382 56.5201 106.069 56.6329C105.834 56.6516 105.64 56.5483 105.425 56.5061C105.21 56.4638 105.006 56.2892 104.75 56.4707C105.555 57.1994 106.007 58.109 106.241 59.1799C106.476 60.2508 106.281 61.2372 105.977 62.2533C106.322 62.0012 106.493 61.5849 106.75 61.3016C107.985 60.0376 109.405 59.8951 110.977 60.2832C111.398 60.2964 111.622 60.41 111.866 60.4627ZM51.711 99.1333C52.7696 99.9861 53.4148 101.101 53.6172 102.467C53.7185 103.15 53.5069 103.79 53.4518 104.451C53.4408 104.584 53.3511 104.756 53.6144 104.85C54.0044 103.966 54.8102 103.606 55.5676 103.194C56.3643 102.761 57.2814 103.053 58.2225 102.877C57.6694 102.374 57.4008 101.801 57.1614 101.24C56.8645 100.555 56.6755 99.8411 56.8587 99.0889C56.9 98.8651 56.8635 98.5798 56.6688 98.4765C56.4841 98.3428 56.3642 98.6067 56.2654 98.7078C55.1713 99.5452 53.9851 99.7708 52.6775 99.3745C52.3557 99.2602 52.0439 99.1154 51.711 99.1333ZM105.943 81.55C106.771 80.9246 107.567 80.4925 108.43 80.3561C109.332 80.1996 110.15 80.5925 111.02 80.7311C110.64 80.4942 110.349 80.1866 110.127 79.8693C109.403 78.8967 108.894 77.8646 109.121 76.5831C109.173 76.2271 109.069 75.8496 109.055 75.2996C107.847 76.7776 106.424 77.2256 104.781 77.0509C105.708 78.4017 106.136 79.7795 105.943 81.55ZM51.1521 71.1462C52.2855 70.2888 53.3393 69.5733 54.7375 69.6954C54.9232 69.7273 55.0896 69.7183 55.1894 69.5154C55.2791 69.3429 55.1136 69.2501 55.056 69.1274C54.5068 68.2172 54.2027 67.2578 54.301 66.1689C54.3331 65.8738 54.3067 65.558 54.3005 65.1812C52.8697 66.4438 51.3395 66.8197 49.6132 66.2065C49.4962 66.1649 49.3206 66.1026 49.23 66.3769C50.9424 67.4279 51.3468 69.1721 51.1521 71.1462ZM44.9688 74.1261C45.094 74.3409 45.1031 74.4122 45.1324 74.4226C46.1445 75.0205 46.7129 75.9716 46.9858 77.1243C47.089 77.6036 47.1336 78.0622 47.031 78.5706C46.9888 78.8961 47.2027 79.0402 47.4881 78.8692C47.5668 78.829 47.6363 78.7175 47.715 78.6773C48.4532 78.2244 49.152 77.7916 50.0912 77.8187C50.414 77.8312 50.746 77.915 51.1282 77.8465C50.803 77.0499 50.379 76.3544 50.1022 75.609C49.8062 74.8228 50.176 74.0006 49.9295 73.1638C48.5078 74.4978 46.91 74.7816 44.9688 74.1261ZM101.6 64.7167C101.579 64.8795 101.627 64.9307 101.675 64.982C102.43 65.8632 102.842 66.8946 102.801 68.1061C102.787 68.5439 102.962 68.6062 103.346 68.4359C104.525 67.9352 105.683 67.5973 106.95 68.1156C107.096 68.1675 107.272 68.2299 107.488 68.1703C107.02 67.9022 106.761 67.4014 106.422 67.0425C106.083 66.6837 105.93 66.2549 105.827 65.7756C105.601 64.8778 105.658 64.0127 105.823 63.1177C105.834 62.9854 105.855 62.8227 105.738 62.7811C105.591 62.7291 105.522 62.8406 105.452 62.9522C104.739 63.9246 103.755 64.4267 102.619 64.5C102.257 64.5076 101.933 64.5969 101.6 64.7167ZM60.1973 104.123C60.8564 104.8 61.1423 105.616 61.3102 106.493C61.4781 107.37 61.3625 108.215 61.2853 109.141C62.4254 107.571 63.9656 107.164 65.6866 107.299C65.6876 107.197 65.7269 107.177 65.7077 107.136C64.8861 106.061 64.3881 104.896 64.45 103.522C64.4711 103.359 64.4044 103.165 64.1703 103.082C63.0451 104.113 61.6742 104.205 60.1973 104.123ZM68.9571 113.33C69.9653 112.258 71.0201 111.441 72.5363 111.503C73.1527 111.517 73.2525 111.314 72.9546 110.732C72.4538 109.873 72.1002 108.964 72.2763 107.937C72.2772 107.835 72.3175 107.713 72.2005 107.671C72.0642 107.589 71.9271 107.608 71.799 107.699C70.9227 108.273 70.0089 108.664 68.9234 108.585C68.6299 108.583 68.308 108.468 67.9641 108.619C68.5253 109.295 68.8808 110 69.0688 110.816C69.1782 111.672 69.0727 112.486 68.9571 113.33ZM55.4655 63.0409C55.7006 63.0222 55.76 62.9412 55.8195 62.8602C56.6594 62.0006 57.67 61.7126 58.7958 61.6698C58.9623 61.6608 59.1469 61.7945 59.2568 61.5611C59.3273 61.3477 59.2798 61.1946 59.1445 61.0104C58.7972 60.4784 58.6073 59.866 58.5746 59.1733C58.5492 58.7556 58.6116 58.3691 58.6446 57.9722C58.6758 57.779 58.6585 57.5344 58.4537 57.4617C58.2489 57.3889 58.2177 57.5822 58.1189 57.6833C57.2023 58.3794 56.2583 58.8614 55.076 58.6797C54.8217 58.6576 54.5383 58.625 54.3013 58.8473C55.3077 60.0561 55.6564 61.4741 55.4655 63.0409ZM83.4274 54.3113C82.9549 53.5646 82.7265 52.8705 82.6162 52.1161C82.5059 51.3618 82.7769 50.6407 82.9217 49.8068C82.2008 50.5042 81.5504 50.9883 80.8031 51.3699C80.0164 51.7716 79.1477 51.5311 78.256 51.6571C79.0082 52.8437 79.7512 53.959 79.5695 55.5972C80.8017 54.6387 82.0282 54.2911 83.4274 54.3113ZM54.4665 90.2022C53.3623 88.9927 53.1699 87.5962 53.2327 86.1201C51.7179 86.9442 51.0008 87.2344 49.2314 87.0485C49.5374 87.8043 50.1591 88.2976 50.4066 89.0325C50.644 89.798 50.5385 90.6118 50.6872 91.4479C51.6835 90.6099 52.5963 90.3211 54.4665 90.2022ZM92.28 101.523C92.4921 101.87 92.5971 102.146 92.7415 102.402C93.1454 103.158 93.402 103.964 93.227 104.89C93.1555 105.205 93.2111 105.531 93.3838 105.899C94.5796 104.655 95.9716 104.4 97.6231 104.647C96.8095 103.745 96.221 102.854 96.0257 101.763C95.9792 101.509 96.0991 101.245 96.0133 101.01C95.9274 100.775 95.8607 100.581 95.5552 100.813C94.6002 101.427 93.532 101.593 92.28 101.523ZM80.4833 105.165C80.5883 105.441 80.6257 105.624 80.7025 105.788C81.0167 106.717 81.5467 107.586 81.2729 108.612C81.2124 108.795 81.2196 109.07 81.5213 109.246C82.6567 108.185 84.0194 107.919 85.6124 108.145C84.5767 106.925 84.0798 105.659 84.192 104.132C83.4759 104.321 83.0403 104.847 82.4715 104.986C81.8431 105.205 81.2359 105.262 80.4833 105.165ZM71.114 57.736C70.8948 57.1132 70.6947 56.5314 70.4846 55.98C70.2846 55.3981 70.6434 54.7082 70.3263 54.0848C69.7243 54.6202 69.0658 54.9311 68.3688 55.1603C67.6719 55.3895 66.9293 55.262 66.0789 55.1642C67.2133 56.2823 67.563 57.5984 67.6456 59.2283C68.6264 57.9421 69.8793 57.9104 71.114 57.736ZM104.629 83.9438C103.593 84.8019 102.629 85.3448 101.474 85.3773C101.18 85.3752 101.218 85.5587 101.255 85.7423C101.283 85.8545 101.38 85.957 101.438 86.0796C101.833 86.7647 102.08 87.4997 102.083 88.2838C102.071 88.518 102.157 88.7528 102.222 89.0486C102.853 88.6254 103.48 88.5077 104.117 88.3596C104.755 88.2114 105.409 88.4096 106.073 88.4754C104.881 87.2347 104.484 85.7655 104.629 83.9438ZM97.7555 59.3328C96.6604 60.2719 95.5519 60.5592 94.2295 60.7025C95.2076 61.7991 95.1073 63.0916 95.3107 64.3558C96.1588 63.6694 97.0625 63.3094 98.0793 63.3981C98.4022 63.4106 98.6382 63.2901 98.9921 63.1094C98.0625 62.064 97.7805 60.84 97.7555 59.3328ZM90.4808 54.5351C89.5148 55.2817 88.7454 55.9279 87.7165 56.0733C87.5108 56.1024 87.2666 56.0497 87.0508 56.1092C86.8349 56.1688 86.6383 56.2692 86.8311 56.5761C87.1199 57.0873 87.2321 57.638 87.4422 58.1894C87.614 58.659 87.472 59.1876 87.79 59.7092C88.2054 59.2437 88.7258 59.054 89.2654 58.9051C89.8051 58.7563 90.4305 58.8422 91.0296 58.6123C90.3269 57.3751 90.065 56.0902 90.4808 54.5351ZM61.6088 94.5101C61.5229 94.2752 61.4754 94.1222 61.3593 93.9788C60.896 93.3033 60.8451 92.468 60.6369 91.7129C60.4853 91.1823 60.5246 91.1622 60.0335 91.3624C59.4636 91.6027 58.8948 91.7411 58.2774 91.8283C57.9052 91.8664 57.5239 91.8331 57.1315 91.9321C57.9522 93.1091 58.2535 94.3739 58.0837 95.778C58.7121 95.5585 59.1375 95.0626 59.7457 94.904C60.3832 94.7558 60.9339 94.4747 61.6088 94.5101ZM54.7373 83.2491C55.6449 82.4817 56.5092 82.1417 57.4695 82.006C58.0868 81.9188 58.1463 81.8378 57.8777 81.2656C57.5515 80.5708 57.3231 79.8767 57.3601 79.0725C57.3951 78.472 57.2396 78.3487 56.6789 78.6603C55.9609 79.0523 55.2145 79.332 54.3742 79.2038C54.1593 79.1615 53.9434 79.2211 53.7559 79.3928C54.4404 80.4873 54.9675 81.6622 54.7373 83.2491ZM97.821 97.1227C99.118 96.5617 100.278 96.0202 101.644 96.4373C101.421 96.2219 101.404 95.9774 101.239 95.7827C100.755 95.2701 100.535 94.6473 100.395 93.9844C100.339 93.6581 100.391 93.3021 100.257 93.016C100.17 92.883 100.162 92.7098 99.9554 92.8407C99.0307 93.3636 98.0109 93.5803 96.8156 93.7346C97.7068 94.6983 97.6661 95.9098 97.821 97.1227ZM77.1131 103.491C77.1241 103.359 77.1635 103.339 77.1342 103.328C76.7313 102.47 76.2497 101.652 76.2199 100.654C76.2218 100.45 76.0079 100.306 75.7033 100.436C74.9862 100.726 74.2783 101.088 73.4571 101C73.105 100.978 72.9851 101.241 73.1779 101.548C73.5626 102.264 73.8001 103.029 73.6845 103.874C73.6432 104.097 73.7291 104.332 73.9037 104.496C74.888 103.893 75.8823 103.258 77.1131 103.491ZM59.2503 74.7379C60.1377 74.0315 61.1574 73.8148 62.1964 73.639C61.9115 72.7204 61.5277 71.903 61.5363 70.9866C61.5493 70.6507 61.3253 70.537 61.0005 70.7282C60.2926 71.0897 59.5472 71.2676 58.7552 71.1907C58.5696 71.1588 58.4032 71.1678 58.2741 71.3603C58.1058 71.5729 58.3298 71.6866 58.3873 71.8092C58.8881 72.6682 59.2709 73.5874 59.2503 74.7379ZM101.072 71.9531C100.097 72.6283 99.1243 72.9981 97.9409 72.9183C98.4005 74.001 98.9588 74.9826 98.8485 76.3056C99.9709 75.5805 101.067 75.5273 102.319 75.5974C101.331 74.5313 101.186 73.2879 101.072 71.9531ZM69.2393 98.9233C68.7788 97.9424 68.3759 97.0841 68.3169 96.0756C68.2996 95.8311 68.0444 95.9107 67.8972 95.9605C67.2285 96.302 66.5225 96.4598 65.779 96.4341C65.4562 96.4216 65.2969 96.7056 65.4212 97.0221C65.815 97.8091 66.003 98.6251 65.9066 99.5103C65.8836 99.8767 66.1662 100.011 66.4324 99.7992C67.2502 99.2043 68.1236 98.9356 69.2393 98.9233ZM65.9323 62.4339C64.8693 63.078 63.8477 63.4983 62.5463 63.4788C63.2419 64.441 63.3685 65.5417 63.5638 66.6327C64.5571 66.1001 65.5011 65.6181 66.636 65.6466C66.2743 64.5646 65.9117 63.5844 65.9323 62.4339ZM89.2711 99.943C88.8115 98.8603 88.351 97.8794 88.2345 96.7483C87.3994 97.0987 86.6521 97.4803 85.7613 97.5044C85.4678 97.5023 85.3479 97.7662 85.462 98.1132C85.7378 98.9604 86.0429 99.818 85.877 100.815C86.4569 100.544 86.949 100.242 87.4695 100.052C88.0191 99.8729 88.578 99.7649 89.2711 99.943ZM91.6031 71.5184C91.8079 71.5912 91.9168 71.4596 92.0055 71.3889C92.5662 71.0773 93.1543 70.9797 93.7707 70.9943C94.2307 70.9874 94.2801 70.9369 94.1084 70.4672C93.8316 69.7218 93.5054 69.027 93.5524 68.1924C93.5855 67.7955 93.3907 67.6922 93.0559 67.9139C92.4458 68.2761 91.7983 68.4547 91.1315 68.5925C90.6706 68.7012 90.6212 68.7517 90.8222 69.2318C91.0999 69.8753 91.417 70.4988 91.4295 71.2524C91.3892 71.3743 91.4861 71.4768 91.6031 71.5184ZM78.8069 61.7627C78.0126 60.9016 78.2673 59.8342 77.9339 58.8644C76.9698 59.4074 76.0349 59.9607 74.8213 59.9724C75.4118 60.6589 75.4929 61.4028 75.6426 62.1371C75.7265 62.5756 75.775 62.6268 76.1482 62.4869C76.9732 62.167 77.8073 61.9184 78.8069 61.7627ZM86.4183 66.135C85.6825 65.2947 86.0552 64.1671 85.515 63.3282C84.6972 63.9231 83.8146 64.1204 82.8735 64.297C83.2381 65.0735 83.642 65.8299 83.6929 66.6653C83.7001 66.9403 83.9744 66.9016 84.1711 66.8011C84.7026 66.4791 85.2906 66.3815 85.8979 66.3248C86.0058 66.295 86.1339 66.2043 86.4183 66.135ZM96.5971 80.546C95.9193 80.8161 95.3485 81.1582 94.6727 81.2246C94.3004 81.2627 94.24 81.4455 94.3441 81.823C94.4866 82.2823 94.6583 82.752 94.7029 83.2105C94.7485 83.5672 94.8435 83.8734 95.0464 84.1498C95.704 83.9407 96.2647 83.6291 96.9396 83.6645C97.4188 83.6985 97.5094 83.4242 97.2591 82.9947C96.8451 82.2687 96.6177 81.4728 96.5971 80.546ZM92.4774 88.8563C92.1838 88.8542 92.0164 88.965 91.8198 89.0654C91.3871 89.2863 90.9161 89.4255 90.4451 89.5647C90.0134 89.6838 89.9741 89.7039 90.1165 90.1631C90.2681 90.6938 90.4197 91.2244 90.4734 91.7543C90.4816 91.9274 90.4989 92.172 90.7128 92.3161C91.4721 91.7004 92.488 91.891 93.3432 91.4796C92.9111 90.6109 92.5172 89.824 92.4774 88.8563ZM65.124 85.951C65.243 85.7889 65.0583 85.6552 64.9715 85.5222C64.712 85.0214 64.5897 84.5012 64.546 83.9408C64.5196 83.6249 64.3057 83.4808 64.0788 83.6727C63.5958 84.046 63.0389 83.9503 62.5487 84.0486C62.0585 84.1469 62.0292 84.1365 62.2302 84.6166C62.4888 85.2192 62.6394 85.8517 62.7607 86.4737C62.8548 86.8817 62.9032 86.933 63.2865 86.7626C63.7877 86.532 64.2798 86.2301 64.8669 86.2343C65.0233 86.2558 65.0636 86.1339 65.124 85.951ZM73.7629 69.5063C73.6871 69.241 73.5427 68.9854 73.5648 68.7208C73.5677 68.4153 73.4334 68.1292 73.4362 67.8237C73.4492 67.4878 73.2645 67.3541 72.9014 67.4635C72.4304 67.6027 71.9392 67.8028 71.4106 67.8194C70.9698 67.8671 70.87 68.0701 71.0518 68.5092C71.2145 68.9076 71.4164 69.2858 71.4711 69.7139C71.4865 70.162 71.7215 70.1434 72.016 70.0436C72.5849 69.9052 73.1446 69.6953 73.7629 69.5063ZM78.0391 93.4673C78.1979 94.2729 78.4263 94.967 78.3802 95.6999C78.4387 95.7206 78.468 95.731 78.4973 95.7414C79.2124 95.6549 79.8336 95.1604 80.5972 95.1252C80.8222 95.137 80.8442 94.8724 80.7291 94.6271C80.5665 94.2288 80.3353 93.8402 80.33 93.3616C80.3046 92.9439 80.0897 92.9016 79.6479 93.0512C79.1567 93.2513 78.6747 93.5228 78.0391 93.4673ZM68.7242 75.6512C68.0272 75.8804 67.3312 76.0078 66.6453 76.1047C66.6588 76.7565 67.0161 77.2581 67.1183 77.8392C67.2114 78.349 67.2406 78.3594 67.7318 78.1593C68.0657 78.0395 68.3702 77.9093 68.694 77.82C69.1257 77.7009 69.1751 77.6504 69.0619 77.2015C68.9588 76.7221 68.7971 76.222 68.7242 75.6512ZM88.7679 76.4368C88.2767 76.637 87.9026 76.8787 87.4517 76.9569C87.0008 77.0351 87.02 77.076 87.1716 77.6066C87.2858 77.9536 87.3899 78.3312 87.4254 78.7184C87.4618 79.0038 87.6273 79.0966 87.8139 79.0267C88.2456 78.9076 88.6672 78.819 89.108 78.7712C89.2452 78.7518 89.569 78.6625 89.4347 78.3764C89.1469 77.7634 89.0456 77.0804 88.7679 76.4368ZM72.0183 88.5361C71.5271 88.7363 71.0369 88.8346 70.5467 88.9329C70.3016 88.982 70.222 89.124 70.2987 89.2875C70.5189 89.8084 70.5333 90.3584 70.6455 90.9091C70.7113 91.2049 70.8485 91.1855 71.0744 91.0955C71.4677 90.8947 71.861 90.6938 72.2826 90.6052C72.6064 90.5159 72.6477 90.2922 72.5517 90.0878C72.3215 89.5974 72.3565 88.9968 72.0183 88.5361ZM80.979 72.2058C80.6965 72.0714 80.509 72.2431 80.2931 72.3027C79.1443 72.7119 79.1736 72.7223 79.5636 73.9165C79.6778 74.2636 79.8826 74.3363 80.0893 74.2055C80.4927 73.9741 81.1254 74.3351 81.3177 73.6542C81.3278 73.6237 81.3379 73.5933 81.3379 73.5933C81.2539 73.1548 81.1891 72.7572 81.0951 72.3492C81.0567 72.2674 80.979 72.2058 80.979 72.2058ZM83.2261 87.1707C83.7062 87.1029 84.1964 87.0046 84.6876 86.8044C84.8742 86.7345 84.9337 86.6535 84.867 86.4595C84.7145 86.0307 84.6305 85.5922 84.3993 85.2036C84.3317 85.1115 84.3034 84.9993 84.1954 85.029C83.8323 85.1384 83.4592 85.2783 83.1153 85.4286C82.9579 85.5089 82.8874 85.7223 82.9349 85.8754C83.0582 86.2938 83.005 86.7516 83.2261 87.1707ZM75.335 82.3585C75.6972 82.3509 76.021 82.2616 76.374 82.1826C76.6292 82.103 76.7289 81.9001 76.6815 81.747C76.6157 81.4512 76.6287 81.1153 76.445 80.8797C76.3773 80.7876 76.3399 80.604 76.1927 80.6539C75.8104 80.7224 75.3796 80.7397 75.1125 81.0534C74.9441 81.2661 75.1077 81.5626 75.2127 81.8383C75.2602 81.9913 75.1998 82.1742 75.335 82.3585Z" fill="#D4C7EF"/>
<path d="M70.2197 46.6911C67.995 46.003 66.9718 43.4601 67.7464 41.2152C68.5412 38.9093 70.773 37.795 72.9675 38.5746C75.279 39.3956 76.3031 41.8368 75.5185 44.1121C74.7136 46.4484 72.3345 47.6126 70.2197 46.6911Z" fill="#D4C7EF"/>
<path d="M102.82 49.4508C102.34 51.4942 99.5982 52.7677 97.5208 52.0298C95.512 51.2822 94.3051 48.5037 95.0778 46.4624C95.8605 44.3907 98.2013 43.1448 100.356 43.9444C102.482 44.7336 103.71 47.3493 102.82 49.4508Z" fill="#D4C7EF"/>
<path d="M108.588 95.805C109.225 93.5795 111.681 92.5788 113.749 93.3472C115.904 94.1468 117.007 96.5478 116.212 98.8536C115.488 100.946 112.951 102.191 110.865 101.381C108.954 100.634 107.618 98.0485 108.588 95.805Z" fill="#D4C7EF"/>
<path d="M104.324 103.86C104.912 101.685 107.545 100.543 109.632 101.352C111.514 102.089 112.781 104.684 111.938 106.939C111.165 108.98 108.649 110.164 106.689 109.365C104.651 108.607 103.344 106.134 104.324 103.86Z" fill="#D4C7EF"/>
<path d="M112.802 87.9026C113.339 85.8801 116.004 84.5449 118.042 85.3029C120.051 86.0505 121.278 88.768 120.564 90.8301C119.91 92.7092 117.44 94.1477 115.285 93.3481C113.247 92.5901 111.97 89.9231 112.802 87.9026Z" fill="#D4C7EF"/>
<path d="M95.082 44.9656C94.5828 47.0699 92.0655 48.3552 89.8619 47.5044C87.7945 46.736 86.6635 44.2228 87.4179 42.0388C88.1119 40.0378 90.5222 38.6804 92.6774 39.48C94.5299 40.2061 96.0615 42.7934 95.082 44.9656Z" fill="#D4C7EF"/>
<path d="M63.4392 47.6199C62.8996 49.8461 60.3732 51.0601 58.2958 50.3222C56.3253 49.6563 55.0983 46.9388 55.7237 44.9474C56.3995 42.8036 58.946 41.5287 60.9064 42.2251C63.1009 43.0046 64.3006 45.508 63.4392 47.6199Z" fill="#D4C7EF"/>
<path d="M42.3962 87.5493C41.8484 89.6024 39.4775 90.9397 37.2053 90.0985C35.3135 89.3925 34.0462 86.7968 34.7805 84.6739C35.4544 82.7337 38.0119 81.3265 40.0692 82.1254C42.0286 82.9236 43.2869 85.4478 42.3962 87.5493Z" fill="#D4C7EF"/>
<path d="M79.7662 37.7884C80.3149 35.6335 82.9099 34.4099 84.8703 35.1062C86.977 35.8545 88.109 38.2659 87.3939 40.4297C86.6092 42.7051 84.4853 43.7896 82.3393 43.0614C80.1832 42.3636 78.9835 39.8601 79.7662 37.7884Z" fill="#D4C7EF"/>
<path d="M121.354 70.2354C120.896 72.1159 118.396 73.6458 116.212 72.8358C114.057 72.0362 113.063 69.5037 113.707 67.5532C114.412 65.4198 116.685 64.1836 118.831 64.9118C121.006 65.6505 122.097 68.2855 121.354 70.2354Z" fill="#D4C7EF"/>
<path d="M124.76 82.6832C123.966 84.8872 121.764 86.0119 119.666 85.3349C117.539 84.6476 116.438 82.043 117.113 80.001C117.759 77.9487 120.315 76.6432 122.295 77.3805C124.226 78.0664 125.475 80.5193 124.76 82.6832Z" fill="#D4C7EF"/>
<path d="M69.5798 119.954C71.5019 120.568 72.8387 123.053 72.1135 125.247C71.3188 127.553 68.98 128.595 67.0296 127.868C64.8745 127.069 63.8273 124.994 64.5343 122.657C65.212 120.309 67.5801 119.278 69.5798 119.954Z" fill="#D4C7EF"/>
<path d="M111.856 60.4931C111.827 60.3809 111.838 60.2486 111.79 60.1974C111.342 59.9701 111.131 59.5205 110.86 59.152C110.28 58.435 110.102 57.5885 110.111 56.6721C110.093 55.4398 110.62 54.5373 111.391 53.6875C112.064 52.9388 112.927 52.7006 113.828 52.646C114.396 52.6093 115.023 52.4916 115.568 52.8214C116.239 53.2641 116.89 53.7678 117.343 54.4737C117.767 55.1692 117.976 55.9242 117.997 56.7492C118.088 58.5522 116.702 60.2734 114.995 60.6888C114.171 60.9069 113.359 60.8909 112.54 60.5999C112.315 60.5881 112.081 60.5049 111.856 60.4931Z" fill="#D4C7EF"/>
<path d="M43.9672 48.4677C44.8881 46.2748 46.7962 45.2498 48.9907 46.0293C51.1852 46.8088 52.1417 49.1578 51.4073 51.2808C50.6629 53.4343 48.3332 54.5479 46.3244 53.8002C44.2772 52.9709 43.2703 50.7743 43.9672 48.4677Z" fill="#D4C7EF"/>
<path d="M74.5816 38.6371C73.8328 38.1327 73.0548 37.618 72.5631 36.8303C72.1583 36.1757 71.9793 35.4311 72.0354 34.6677C72.0373 34.4641 72.0393 34.2604 72.0119 34.0464C71.9462 33.7506 72.0076 33.4659 72.1568 33.2124C72.7928 32.1783 73.458 31.1546 74.6845 30.807C75.4107 30.5882 76.1652 30.4816 76.927 30.65C77.8057 30.86 78.495 31.4454 79.026 32.2129C79.8084 33.3082 80.0511 34.5522 79.7259 35.833C79.3595 37.3374 77.6917 38.8224 75.9899 38.7287C75.5207 38.6642 75.0488 38.9052 74.5816 38.6371Z" fill="#D4C7EF"/>
<path d="M33.9366 77.6313C31.9781 76.7313 30.8331 74.6559 31.4514 72.3895C31.7353 71.3325 32.5056 70.5845 33.4597 70.072C34.453 69.5394 35.5596 69.4557 36.5252 69.7987C37.4615 70.1313 38.2861 70.901 38.7365 71.9123C39.2162 72.9341 39.2742 74.0445 38.9519 75.0197C38.6296 75.995 37.9168 76.8656 36.9144 77.3268C36.0783 77.779 34.7266 77.9119 33.9366 77.6313Z" fill="#D4C7EF"/>
<path d="M91.646 126.294C91.3064 127.024 90.7802 127.825 89.9341 128.308C88.8913 128.891 87.7252 129.056 86.6719 128.681C85.6478 128.318 84.8434 127.487 84.3738 126.435C83.9133 125.454 83.9037 124.395 84.2452 123.46C85.0793 121.134 87.2214 120.193 89.2605 120.849C91.1432 121.484 92.4134 123.774 91.646 126.294Z" fill="#D4C7EF"/>
<path d="M62.6687 42.1359C60.6023 41.2657 59.4664 39.2616 60.1926 36.9654C60.8785 34.7912 63.0911 33.636 65.1686 34.374C67.1683 35.0503 68.391 37.1873 67.6447 39.5444C66.8993 41.7997 65.0215 42.7332 62.6687 42.1359Z" fill="#D4C7EF"/>
<path d="M46.7428 107.142C48.8092 108.013 49.8947 110.169 49.1403 112.353C48.3556 114.628 46.271 115.693 44.1552 114.873C41.9415 114.053 41.0013 112.05 41.7476 109.693C42.4536 107.458 44.5272 106.526 46.7428 107.142Z" fill="#D4C7EF"/>
<path d="M103.338 122.376C102.415 124.772 100.234 125.632 98.3324 124.957C96.2843 124.229 95.2208 121.808 95.9551 119.685C96.2976 118.649 97.0286 117.921 98.0119 117.419C98.9851 116.947 100.013 116.904 100.949 117.236C101.944 117.59 102.739 118.349 103.219 119.371C103.68 120.352 103.533 121.389 103.338 122.376Z" fill="#D4C7EF"/>
<path d="M72.3313 127.061C72.8681 125.14 75.2683 123.813 77.2186 124.54C79.3445 125.329 80.3413 127.556 79.5878 129.639C78.7436 131.995 76.9736 132.899 74.7106 132.129C72.613 131.452 71.6263 129.194 72.3313 127.061Z" fill="#D4C7EF"/>
<path d="M33.1197 97.9101C31.1281 97.407 30.0665 94.7823 30.7203 92.9032C31.4345 90.8411 33.4908 89.6645 35.6167 90.4537C37.7133 91.2325 38.5547 93.3362 37.9383 95.399C37.2827 97.4818 34.9419 98.7277 33.1197 97.9101Z" fill="#D4C7EF"/>
<path d="M55.5352 43.1437C54.9491 45.115 52.7263 46.3006 50.6882 45.5426C48.6501 44.7846 47.7219 42.5478 48.4361 40.4858C49.0999 38.5761 51.2742 37.3392 53.3416 38.1076C55.1648 38.8234 56.3059 41.3061 55.5352 43.1437Z" fill="#D4C7EF"/>
<path d="M116.441 100.535C117.018 98.4928 119.328 97.3384 121.249 98.0548C123.287 98.8128 124.325 100.816 123.619 103.051C122.874 105.307 120.713 106.208 118.801 105.562C116.889 104.917 115.698 102.485 116.441 100.535Z" fill="#D4C7EF"/>
<path d="M101.74 43.5165C99.7779 43.0238 98.7245 40.5723 99.3994 38.5303C100.004 36.7017 102.442 35.4565 104.227 36.0905C106.031 36.7654 107.242 39.1366 106.538 41.1682C105.785 43.1484 103.709 44.386 101.74 43.5165Z" fill="#D4C7EF"/>
<path d="M125.6 90.1331C127.601 90.7075 128.547 93.087 127.882 95.0985C127.268 96.9576 125.054 98.2145 123.065 97.5078C121.251 96.8634 120.13 94.3197 120.773 92.471C121.417 90.6223 123.74 89.2338 125.6 90.1331Z" fill="#D4C7EF"/>
<path d="M96.7812 31.811C98.5972 32.2518 99.8646 34.8474 99.1806 36.818C98.5369 38.6667 96.3132 39.9541 94.3629 39.2273C92.3833 38.4901 91.3463 36.3849 92.0019 34.3021C92.6676 32.1888 94.8803 31.0336 96.7812 31.811Z" fill="#D4C7EF"/>
<path d="M114.558 113.454C112.528 112.87 111.58 110.592 112.236 108.509C112.872 106.487 115.221 105.415 117.045 106.028C118.917 106.694 120.009 109.227 119.386 111.015C118.711 113.057 116.487 114.344 114.558 113.454Z" fill="#D4C7EF"/>
<path d="M125.295 62.1681C124.708 64.2413 122.536 65.2745 120.517 64.5574C118.644 63.8922 117.571 61.5016 118.216 59.5511C118.8 57.7834 121.141 56.4357 123.063 57.1522C124.867 57.8271 126.166 60.1276 125.295 62.1681Z" fill="#D4C7EF"/>
<path d="M34.4629 83.0626C33.8576 84.9931 31.6641 86.1891 29.6361 85.4006C27.7251 84.6537 26.7082 82.4876 27.4425 80.3646C28.1063 78.4549 30.319 77.2998 32.2693 78.0266C34.0249 78.6502 35.2932 81.144 34.4629 83.0626Z" fill="#D4C7EF"/>
<path d="M128.732 74.5245C128.272 76.6088 125.776 77.6295 124.001 77.0669C122.176 76.453 121.007 73.858 121.591 72.0904C122.236 70.1399 124.537 68.9141 126.439 69.5896C128.379 70.347 129.513 72.5546 128.732 74.5245Z" fill="#D4C7EF"/>
<path d="M36.5658 110.236C34.5743 109.733 33.5904 107.17 34.2149 105.28C34.7991 103.513 37.2286 102.196 38.9841 102.82C40.769 103.454 42.009 105.835 41.3149 107.836C40.6209 109.838 38.4859 111.054 36.5658 110.236Z" fill="#D4C7EF"/>
<path d="M111.817 40.6257C113.712 41.0262 114.783 43.7223 114.218 45.5308C113.583 47.4508 111.242 48.6967 109.409 48.0115C107.537 47.3463 106.453 44.9862 107.088 43.0662C107.713 41.0748 110.122 39.8192 111.817 40.6257Z" fill="#D4C7EF"/>
<path d="M112.812 113.89C114.783 114.454 115.757 117.048 115.144 118.805C114.559 120.572 112.101 121.879 110.355 121.224C108.697 120.602 107.379 118.26 108.112 116.239C108.786 114.299 110.94 113.123 112.812 113.89Z" fill="#D4C7EF"/>
<path d="M91.3845 32.312C90.8358 34.4668 88.3124 35.3753 86.6738 34.7933C85.0837 34.2625 83.6279 31.9405 84.3229 29.8376C85.027 27.8061 87.3265 26.7839 89.1012 27.4484C90.876 28.1129 92.1371 30.3317 91.3845 32.312Z" fill="#D4C7EF"/>
<path d="M71.7231 31.4578C71.1058 33.6224 68.7195 34.5115 66.9932 33.8983C65.2961 33.2955 63.9856 31.1272 64.6907 28.9939C65.3857 26.891 67.5571 25.9595 69.3712 26.6039C71.3124 27.2594 72.397 29.5177 71.7231 31.4578Z" fill="#D4C7EF"/>
<path d="M127.457 89.3623C125.486 88.6964 124.52 86.3779 125.144 84.4884C125.799 82.5074 128.167 81.4755 129.864 82.0784C131.503 82.6604 132.812 84.9305 132.147 86.9419C131.483 88.9534 129.29 90.0476 127.457 89.3623Z" fill="#D4C7EF"/>
<path d="M92.2077 127.957C92.9127 125.824 95.2305 124.945 96.8882 125.568C98.8678 126.305 99.8142 128.684 99.1221 130.482C98.3897 132.401 96.6077 133.539 94.4617 132.811C92.462 132.134 91.552 130.04 92.2077 127.957Z" fill="#D4C7EF"/>
<path d="M59.7599 128.793C58.9579 130.824 57.07 131.788 55.1096 131.092C53.0806 130.405 52.2219 128.057 52.8263 126.228C53.4407 124.369 55.732 123.174 57.5552 123.89C59.2422 124.523 60.5043 126.64 59.7599 128.793Z" fill="#D4C7EF"/>
<path d="M84.8765 129.167C86.7683 129.874 87.8438 132.06 87.1205 134.051C86.4164 136.083 84.4205 137.076 82.4894 136.39C80.5482 135.735 79.6099 133.529 80.2152 131.598C80.8013 129.627 82.9938 128.533 84.8765 129.167Z" fill="#D4C7EF"/>
<path d="M59.6922 35.0169C58.7905 37.2507 57.1395 37.9924 55.0803 37.3971C54.1531 37.1359 53.4255 36.4687 52.9942 35.4983C52.5529 34.5582 52.4646 33.5393 52.7375 32.6146C53.0205 31.6594 53.7223 30.9211 54.5976 30.4488C55.4831 29.946 56.512 29.8006 57.4281 30.1942C59.3382 31.0429 60.2913 32.7096 59.6922 35.0169Z" fill="#D4C7EF"/>
<path d="M39.4643 54.8711C39.0168 55.6316 38.5683 56.4939 37.6152 56.9046C36.7206 57.336 35.7311 57.4613 34.8533 57.1495C33.9463 56.8273 33.2287 56.1297 32.7773 55.2201C32.3067 54.2697 32.17 53.1995 32.5407 52.2755C33.3619 50.2855 34.9966 49.1975 37.1618 49.9666C39.3754 50.787 39.9453 52.6241 39.4643 54.8711Z" fill="#D4C7EF"/>
<path d="M47.4205 126.658C45.3157 125.706 44.6178 123.96 45.225 121.826C45.5079 120.87 46.1612 120.081 47.085 119.66C47.9695 119.259 48.9692 119.103 49.8762 119.425C50.8024 119.788 51.52 120.486 51.9513 121.456C52.3633 122.386 52.5101 123.426 52.1101 124.339C51.2304 126.309 49.6946 127.295 47.4205 126.658Z" fill="#D4C7EF"/>
<path d="M33.175 57.6771C33.8561 58.0893 34.6149 58.5632 35.0563 59.5032C35.5167 60.4841 35.5758 61.4927 35.322 62.4582C34.8448 64.2979 32.3376 65.5528 30.6123 64.8378C28.6629 64.0091 27.7309 62.1796 28.446 60.0158C29.1017 57.933 31.028 57.0507 33.175 57.6771Z" fill="#D4C7EF"/>
<path d="M117.216 52.3852C115.131 51.4741 114.19 49.5733 114.933 47.5216C115.737 45.2871 117.515 44.5566 119.535 45.1719C120.335 45.422 121.064 45.9873 121.477 46.8151C121.966 47.8064 122.171 48.9688 121.77 49.9842C121.418 50.949 120.706 51.7178 119.762 52.1998C118.878 52.6008 118.027 52.5031 117.216 52.3852Z" fill="#D4C7EF"/>
<path d="M62.8279 135.536C60.8594 134.667 59.9082 132.796 60.5931 130.724C61.2679 128.682 63.2638 127.688 65.2141 128.415C67.116 129.091 68.0744 131.236 67.4106 133.146C66.765 135.198 64.8094 136.07 62.8279 135.536Z" fill="#D4C7EF"/>
<path d="M43.7192 46.745C42.888 48.7655 41.1857 49.7613 39.1466 49.1052C37.2538 48.5009 36.2561 46.3757 36.8815 44.3843C37.4566 42.5453 39.3968 41.2252 41.4642 41.9936C43.5508 42.8029 44.1892 44.6303 43.7192 46.745Z" fill="#D4C7EF"/>
<path d="M27.857 86.233C29.7882 86.919 30.6487 89.0636 30.0737 90.9026C29.4583 92.8635 27.4221 93.9792 25.5303 93.2732C23.5215 92.5256 22.5995 90.6656 23.3046 88.5322C23.9593 86.5512 25.6717 85.5249 27.857 86.233Z" fill="#D4C7EF"/>
<path d="M81.4395 23.2284C83.4383 24.0065 84.1535 25.9974 83.4695 27.968C82.6556 30.233 80.5959 30.7273 79.0058 30.1965C78.0594 29.8944 77.362 29.1359 76.9307 28.1654C76.5086 27.2662 76.723 26.3207 76.8002 25.3946C77.8554 23.4878 79.1472 22.4482 81.4395 23.2284Z" fill="#D4C7EF"/>
<path d="M106.104 128.943C104.124 128.206 103.332 126.154 104.025 124.254C104.336 123.411 104.813 122.661 105.639 122.239C106.583 121.757 107.641 121.622 108.547 122.047C110.554 122.998 111.39 124.623 110.685 126.756C110.04 128.707 108.191 129.753 106.104 128.943Z" fill="#D4C7EF"/>
<path d="M42.4677 115.329C44.4473 116.067 45.2695 118.129 44.5472 120.018C44.2359 120.861 43.7591 121.611 42.9331 122.033C41.9892 122.515 40.931 122.65 40.0249 122.226C38.0473 121.285 37.1718 119.68 37.887 117.516C38.4923 115.586 40.3812 114.52 42.4677 115.329Z" fill="#D4C7EF"/>
<path d="M24.2304 68.1218C24.7973 66.1096 26.7831 65.1463 28.685 65.8219C30.7039 66.539 31.4959 68.6933 30.9016 70.4915C30.2671 72.4115 28.3005 73.4157 26.447 72.7914C24.7207 72.1782 23.4476 70.1935 24.2304 68.1218Z" fill="#D4C7EF"/>
<path d="M130.719 61.8813C132.331 62.2492 133.472 64.7319 132.819 66.5093C132.236 68.1751 130.14 69.3718 128.326 68.7275C126.629 68.1246 125.584 65.8463 126.217 64.0281C126.781 62.4232 129.103 61.0346 130.719 61.8813Z" fill="#D4C7EF"/>
<path d="M74.9534 137.528C74.5347 139.388 72.2837 140.462 70.5866 139.859C68.948 139.277 67.8242 137.039 68.4184 135.24C69.0127 133.442 71.0196 132.316 72.8337 132.961C74.7456 133.606 75.6738 135.843 74.9534 137.528Z" fill="#D4C7EF"/>
<path d="M28.918 105.578C27.0252 104.974 26.1244 102.951 26.8083 100.981C27.5124 98.9492 29.4186 98.1279 31.2519 98.8132C33.0559 99.488 34.0172 101.328 33.3423 103.37C32.6685 105.31 30.7896 106.345 28.918 105.578Z" fill="#D4C7EF"/>
<path d="M45.6971 34.1322C47.2205 34.469 48.5089 36.9018 47.8753 38.72C47.3022 40.3554 45.1087 41.5514 43.4409 40.959C41.7731 40.3666 40.7581 37.9968 41.2526 36.4016C41.8276 34.5626 44.2753 33.3888 45.6971 34.1322Z" fill="#D4C7EF"/>
<path d="M122.778 51.9771C123.155 50.4422 125.301 49.0931 127.163 49.7887C128.821 50.4116 129.867 52.5882 129.283 54.3558C128.679 56.1844 126.341 57.1248 124.859 56.5643C123.26 55.9622 122.048 53.6928 122.778 51.9771Z" fill="#D4C7EF"/>
<path d="M129.72 76.5785C130.237 74.7187 132.427 73.8281 134.037 74.3998C135.821 75.0338 136.749 77.3723 136.156 78.9668C135.593 80.5717 133.566 81.7587 131.762 81.0839C130.251 80.5129 128.929 78.477 129.72 76.5785Z" fill="#D4C7EF"/>
<path d="M110.461 32.9582C109.904 34.9399 107.773 35.7494 106.153 35.2083C104.281 34.5431 103.44 32.3375 103.974 30.7222C104.508 29.107 106.487 27.8687 108.301 28.5131C109.979 29.075 111.104 31.1095 110.461 32.9582Z" fill="#D4C7EF"/>
<path d="M126.785 115.039C126.317 116.95 123.96 117.85 122.497 117.33C120.702 116.727 119.823 114.439 120.288 112.834C120.733 111.289 122.831 109.889 124.645 110.533C126.313 111.126 127.447 113.333 126.785 115.039Z" fill="#D4C7EF"/>
<path d="M128.954 102.937C130.535 103.396 131.698 105.614 130.966 107.534C130.373 109.128 128.308 110.234 126.543 109.539C124.866 108.875 123.948 106.608 124.55 104.983C125.114 103.378 127.161 102.13 128.954 102.937Z" fill="#D4C7EF"/>
<path d="M22.1365 80.5912C20.4677 80.1006 19.4114 77.9546 20.0551 76.1059C20.6796 74.2163 22.7915 73.3659 24.3907 73.968C26.1756 74.602 27.0644 76.8589 26.5014 78.4638C25.9977 79.9876 23.9395 81.3679 22.1365 80.5912Z" fill="#D4C7EF"/>
<path d="M90.2005 140.56C88.669 140.05 87.5048 137.934 88.1686 136.024C88.7921 134.236 90.8757 133.274 92.5335 133.897C94.3375 134.571 95.1477 136.868 94.5554 138.463C93.9429 140.118 91.9652 141.255 90.2005 140.56Z" fill="#D4C7EF"/>
<path d="M100.699 24.1102C102.533 24.7955 103.375 26.7974 102.741 28.6157C102.068 30.5558 100.112 31.4277 98.3766 30.7431C96.6996 30.0793 95.7081 28.3309 96.383 26.2889C96.9581 24.4499 98.7784 23.3938 100.699 24.1102Z" fill="#D4C7EF"/>
<path d="M30.3926 113.186C30.8982 111.458 32.788 110.29 34.6899 110.966C36.504 111.61 37.3554 113.684 36.7712 115.451C36.1266 117.402 34.1125 118.253 32.474 117.671C30.7961 117.109 29.7087 115.156 30.3926 113.186Z" fill="#D4C7EF"/>
<path d="M61.6984 22.5163C63.4823 23.2521 64.3256 25.1522 63.6819 27.0009C62.9879 29.002 61.0736 29.6501 59.317 29.1284C58.4877 28.8678 57.8488 28.13 57.4751 27.2822C57.1115 26.4038 56.9345 25.4555 57.3637 24.5523C58.1528 22.8574 59.728 21.8504 61.6984 22.5163Z" fill="#D4C7EF"/>
<path d="M135.201 99.3669C134.44 101.276 132.553 102.138 130.876 101.474C129.121 100.749 128.168 99.0821 128.833 97.0706C129.457 95.1811 131.266 94.2572 133.11 94.912C134.993 95.5467 135.717 97.6089 135.201 99.3669Z" fill="#D4C7EF"/>
<path d="M101.949 136.866C100.106 136.212 99.2943 134.016 99.8574 132.412C100.471 130.654 102.408 129.64 104.086 130.202C105.705 130.743 106.832 132.676 106.217 134.636C105.652 136.445 103.764 137.409 101.949 136.866Z" fill="#D4C7EF"/>
<path d="M113.804 39.5605C112.02 38.8247 111.107 37.0361 111.771 35.1265C112.445 33.1863 114.234 32.3235 116.057 33.0392C118.086 33.8277 118.432 35.4493 118.169 37.4331C117.204 39.1675 115.922 40.1766 113.804 39.5605Z" fill="#D4C7EF"/>
<path d="M69.3543 21.1151C70.0666 19.2567 71.895 18.3738 73.6022 18.9461C74.3629 19.2163 75.0038 19.7505 75.3976 20.5374C75.849 21.4469 75.9766 22.4458 75.7037 23.3705C75.461 24.2038 74.8086 24.8915 74.0119 25.3237C73.2152 25.7558 72.3135 25.9123 71.475 25.5804C69.7981 24.9166 68.7581 23.1169 69.3543 21.1151Z" fill="#D4C7EF"/>
<path d="M122.472 123.043C121.908 124.749 119.892 125.804 118.215 125.242C116.547 124.65 115.558 122.596 116.132 120.859C116.667 119.142 118.753 117.975 120.351 118.679C122.271 119.498 122.884 120.907 122.472 123.043Z" fill="#D4C7EF"/>
<path d="M82.5255 141.92C81.9816 143.566 79.9353 144.712 78.3361 144.11C77.5562 143.799 76.8669 143.213 76.4539 142.386C76.0217 141.517 76.0111 140.56 76.2639 139.696C76.7593 137.999 78.9025 136.955 80.4623 137.578C82.3733 138.324 82.9633 140.101 82.5255 141.92Z" fill="#D4C7EF"/>
<path d="M93.2142 19.8508C94.9607 20.4031 95.7819 22.5678 95.2481 24.1831C94.6437 26.0117 92.6196 26.8932 91.0981 26.3528C89.4403 25.7299 88.4306 23.8388 89.0551 21.9492C89.6091 20.273 91.4586 19.2272 93.2142 19.8508Z" fill="#D4C7EF"/>
<path d="M49.6374 26.1668C51.2567 26.7079 52.2655 28.7009 51.6621 30.4277C51.4002 31.2201 50.875 31.9189 50.1075 32.3615C49.2614 32.8442 48.3707 32.8683 47.5322 32.5364C45.9138 31.8935 44.872 30.2974 45.4974 28.306C46.1219 26.4165 47.8607 25.706 49.6374 26.1668Z" fill="#D4C7EF"/>
<path d="M19.3533 96.6299C19.7994 94.9835 21.7074 93.9585 23.4338 94.5717C25.3548 95.2882 25.953 97.2374 25.4292 98.8222C24.8853 100.468 23.2799 101.566 21.3488 100.88C19.6417 100.308 18.6521 98.356 19.3533 96.6299Z" fill="#D4C7EF"/>
<path d="M53.0816 132.381C54.6343 132.728 55.6512 134.894 55.0972 136.57C54.503 138.368 52.5575 139.21 51.0652 138.68C49.4852 138.119 48.5047 136.238 49.0596 134.46C49.5743 132.804 51.5227 131.657 53.0816 132.381Z" fill="#D4C7EF"/>
<path d="M123.598 37.6249C125.238 38.1051 126.199 39.9449 125.624 41.784C125.07 43.4602 123.182 44.4242 121.631 43.8733C119.866 43.2802 119.053 41.2887 119.607 39.6124C120.21 37.8856 121.921 36.9611 123.598 37.6249Z" fill="#D4C7EF"/>
<path d="M135.239 93.3184C133.686 92.9712 132.708 90.785 133.302 89.0887C133.915 87.3314 135.89 86.5004 137.401 87.0713C138.854 87.6215 139.914 89.3602 139.28 91.2803C138.716 92.987 136.797 94.0424 135.239 93.3184Z" fill="#D4C7EF"/>
<path d="M43.5617 134.278C41.8162 133.624 41.1667 131.929 41.7034 130.008C42.1485 128.463 44.2422 127.47 45.8414 128.072C47.1481 128.57 48.2729 130.707 47.6998 132.342C47.188 133.693 45.0804 135.124 43.5617 134.278Z" fill="#D4C7EF"/>
<path d="M17.9237 88.3917C16.3802 88.1159 15.4347 85.6346 15.9474 84.1821C16.4501 82.7601 18.5356 81.5938 20.0178 82.1544C21.4122 82.6837 22.538 84.7182 21.9941 86.364C21.4804 87.9183 19.3061 89.1552 17.9237 88.3917Z" fill="#D4C7EF"/>
<path d="M22.9644 60.18C21.324 59.8017 20.5138 57.5046 21.0073 56.0113C21.5402 54.4978 23.4291 53.432 25.1161 54.0653C26.6568 54.6466 27.5778 56.6084 26.9945 58.2742C26.5312 59.6762 24.6495 61.017 22.9644 60.18Z" fill="#D4C7EF"/>
<path d="M31.2595 50.1177C30.7722 51.9879 28.9447 52.769 27.3062 52.187C25.8039 51.6874 24.7447 49.8468 25.339 48.0487C25.8829 46.4029 27.8687 45.4396 29.3317 45.9593C30.9995 46.5517 31.9003 48.5745 31.2595 50.1177Z" fill="#D4C7EF"/>
<path d="M24.7163 113.247C23.2514 112.931 22.2546 110.703 22.7985 109.058C23.3122 107.503 25.4553 106.46 26.9173 107.081C28.3208 107.682 29.3205 109.604 28.7373 111.269C28.2245 112.722 26.3822 114.043 24.7163 113.247Z" fill="#D4C7EF"/>
<path d="M136.64 58.706C136.146 60.3012 134.258 61.2652 132.649 60.6935C131.098 60.1427 130.217 58.059 130.721 56.5351C131.184 55.1332 133.153 53.9254 134.81 54.5483C136.293 55.1088 137.262 57.1219 136.64 58.706Z" fill="#D4C7EF"/>
<path d="M138.2 66.6498C139.889 67.0794 140.641 69.2539 140.177 70.7576C139.623 72.4338 137.755 73.3369 136.214 72.8574C134.818 72.4299 133.664 70.2831 134.227 68.6782C134.712 67.1135 136.856 65.9681 138.2 66.6498Z" fill="#D4C7EF"/>
<path d="M62.6784 141.034C62.3403 142.651 60.3252 143.604 58.6574 143.011C57.1067 142.46 56.2451 140.418 56.7094 138.914C57.1536 137.471 59.1614 136.243 60.7899 136.856C62.3013 137.427 63.3969 139.553 62.6784 141.034Z" fill="#D4C7EF"/>
<path d="M35.5327 42.1343C35.125 43.8625 32.9545 44.6921 31.5793 44.2036C30.2041 43.7151 29.0884 41.6501 29.6515 40.0452C30.2448 38.3489 32.1711 37.4667 33.624 38.0168C35.1455 38.5573 36.1744 40.4893 35.5327 42.1343Z" fill="#D4C7EF"/>
<path d="M112.083 128.956C112.56 127.116 114.465 126.397 115.987 126.937C117.626 127.519 118.461 129.246 117.965 130.943C117.48 132.609 115.64 133.625 113.992 133.073C112.392 132.471 111.423 130.458 112.083 128.956Z" fill="#D4C7EF"/>
<path d="M20.8942 61.7945C22.2713 62.0793 23.3842 64.4498 22.8221 65.9528C22.2398 67.5169 20.0785 68.4178 18.8304 67.9404C17.3875 67.3598 16.3879 65.4382 16.9126 63.7516C17.3457 62.441 19.3646 61.0808 20.8942 61.7945Z" fill="#D4C7EF"/>
<path d="M83.4109 21.7151C81.8985 21.246 80.9885 19.152 81.5809 17.5575C82.1833 15.9325 83.9432 15.0592 85.504 15.5796C86.7722 15.996 87.9868 17.9599 87.4026 19.7276C86.8889 21.2819 84.6671 22.3657 83.4109 21.7151Z" fill="#D4C7EF"/>
<path d="M35.9513 129.804C34.224 129.292 33.5784 127.19 34.0911 125.737C34.6844 124.041 36.3363 123.197 37.985 123.749C39.3702 124.207 40.508 126.007 39.943 127.816C39.4293 129.37 37.3932 130.486 35.9513 129.804Z" fill="#D4C7EF"/>
<path d="M70.2898 145.406C69.6078 147.173 68.0839 147.926 66.4252 147.405C64.8936 146.895 63.9717 145.035 64.5357 143.328C65.0292 141.835 66.8495 140.779 68.4195 141.371C70.1065 142.004 70.7752 143.74 70.2898 145.406Z" fill="#D4C7EF"/>
<path d="M98.0791 144.618C96.3739 143.842 95.7023 142.412 96.2179 140.654C96.7326 138.998 98.4339 138.104 100.053 138.645C101.575 139.185 102.497 141.045 101.894 142.67C101.281 144.428 99.7287 145.068 98.0791 144.618Z" fill="#D4C7EF"/>
<path d="M141.595 79.23C143.077 79.7905 143.97 81.64 143.456 83.1944C142.972 84.7591 141.034 85.7737 139.572 85.1522C137.876 84.4475 137.176 82.9048 137.74 81.1981C138.324 79.4305 139.76 78.7483 141.595 79.23Z" fill="#D4C7EF"/>
<path d="M133.177 46.1355C132.595 47.6995 130.815 48.6337 129.283 48.1238C128.522 47.8535 127.97 47.2488 127.625 46.5131C127.26 45.7366 127.18 44.8908 127.432 44.1289C127.674 43.3974 128.247 42.7498 128.965 42.3578C129.723 41.9458 130.565 41.8704 131.326 42.1406C132.028 42.39 132.649 42.9851 133.013 43.7617C133.3 44.4765 133.388 45.4955 133.177 46.1355Z" fill="#D4C7EF"/>
<path d="M88.1294 142.276C88.6743 142.606 89.317 142.936 89.6624 143.672C90.0462 144.489 90.204 145.397 89.9512 146.261C89.6994 147.023 89.0672 147.649 88.3391 148.072C87.6211 148.464 86.8282 148.489 86.136 148.209C84.4783 147.586 83.7501 145.931 84.1962 144.284C84.6211 142.801 86.2851 141.723 88.1294 142.276Z" fill="#D4C7EF"/>
<path d="M39.7675 34.0692C39.1156 35.7447 37.6201 36.6097 35.9715 36.0582C34.2643 35.4858 33.516 33.8919 34.0508 32.1748C34.6259 30.3358 36.0912 29.5622 37.8569 30.1553C39.5055 30.7069 40.1761 32.2392 39.7675 34.0692Z" fill="#D4C7EF"/>
<path d="M67.7028 18.7917C67.0912 20.3453 65.4777 21.2706 63.8674 20.8007C62.4327 20.3933 61.4441 18.3394 61.977 16.8259C62.248 16.1049 62.7137 15.4871 63.4419 15.0646C64.2093 14.6221 65.0314 14.6076 65.8123 14.8169C67.2178 15.2139 68.157 17.3184 67.7028 18.7917Z" fill="#D4C7EF"/>
<path d="M31.9906 123.288C31.5153 124.925 29.9319 125.758 28.3226 125.187C26.8011 124.646 25.9852 122.96 26.5584 121.325C27.1315 119.689 28.6554 118.937 30.2062 119.488C31.8447 120.07 32.5839 121.592 31.9906 123.288Z" fill="#D4C7EF"/>
<path d="M51.9263 24.1873C50.3362 23.6566 49.5284 22.1437 50.0833 20.3656C50.598 18.7095 52.3367 17.999 53.722 18.457C55.2728 19.0078 56.1573 20.6842 55.5448 22.3397C54.9707 24.0768 53.5648 24.7694 51.9263 24.1873Z" fill="#D4C7EF"/>
<path d="M14.6478 75.6495C12.97 75.0875 12.3579 73.576 12.9219 71.8693C13.4558 70.2541 14.9019 69.4396 16.5506 69.9912C18.1114 70.5116 18.8971 72.2891 18.3542 73.833C17.7417 75.4884 16.1099 76.271 14.6478 75.6495Z" fill="#D4C7EF"/>
<path d="M113.388 138.955C112.913 140.591 111.409 141.283 109.819 140.752C108.346 140.263 107.472 138.556 107.996 136.971C108.489 135.478 110.376 134.615 111.683 135.114C113.038 135.663 114.079 137.361 113.388 138.955Z" fill="#D4C7EF"/>
<path d="M138.08 111.628C137.794 112.99 135.934 114.066 134.501 113.455C132.981 112.813 132.281 111.27 132.756 109.634C133.161 108.211 135.058 107.319 136.413 107.868C137.827 108.439 138.692 110.074 138.08 111.628Z" fill="#D4C7EF"/>
<path d="M79.4502 15.2C79.1926 16.5729 77.2946 17.5674 75.8124 17.0068C74.525 16.5495 73.5546 14.6383 74.0966 13.1962C74.6486 11.7236 76.2713 10.8697 77.7535 11.4303C79.1963 12.0109 80.0516 13.6769 79.4502 15.2Z" fill="#D4C7EF"/>
<path d="M133.869 119.326C133.423 120.973 131.733 121.633 130.348 121.175C128.875 120.686 128.032 118.785 128.564 117.374C129.165 115.851 130.689 115.098 132.182 115.526C133.548 115.943 134.548 117.865 133.869 119.326Z" fill="#D4C7EF"/>
<path d="M114.149 24.767C113.752 26.3629 112.082 27.0637 110.657 26.6258C109.096 26.1054 108.42 24.1963 108.803 22.9363C109.237 21.524 111.194 20.5503 112.471 21.0381C113.729 21.485 114.828 23.3055 114.149 24.767Z" fill="#D4C7EF"/>
<path d="M20.7848 106.742C20.3013 108.205 18.601 108.997 17.1471 108.549C15.781 108.132 14.9588 106.069 15.4605 104.748C16.0126 103.276 17.605 102.513 19.0297 102.951C20.3857 103.399 21.345 105.442 20.7848 106.742Z" fill="#D4C7EF"/>
<path d="M17.3598 94.2531C17.0327 95.7375 14.9893 96.5782 13.722 96.0599C12.3085 95.4897 11.5601 93.8958 12.0052 92.3511C12.3889 91.0912 14.2102 89.9332 15.643 90.5443C17.0566 91.1145 17.8533 92.7598 17.3598 94.2531Z" fill="#D4C7EF"/>
<path d="M121.848 29.1705C121.392 30.8474 119.585 31.4658 118.259 31.0286C117.078 30.6433 115.92 28.9039 116.503 27.3399C117.065 25.8368 118.569 25.0432 120.043 25.4305C121.361 25.7964 122.467 27.8919 121.848 29.1705Z" fill="#D4C7EF"/>
<path d="M106.469 20.4043C106.27 21.798 104.011 22.6982 102.831 22.2111C101.71 21.7448 100.611 20.0262 101.203 18.4317C101.725 17.0505 103.251 16.0941 104.781 16.7059C106.283 17.3073 107.003 18.7891 106.469 20.4043Z" fill="#D4C7EF"/>
<path d="M74.2049 151.565C72.741 151.147 71.9855 149.278 72.4387 147.907C72.9323 146.413 74.5348 145.62 75.9786 146.099C77.2761 146.526 78.199 148.284 77.7347 149.788C77.3501 151.15 75.4228 152.134 74.2049 151.565Z" fill="#D4C7EF"/>
<path d="M142.324 103.634C141.959 105.037 140.199 105.91 138.765 105.401C137.624 104.995 136.545 103.216 137.088 101.672C137.491 100.453 139.34 99.4068 140.705 99.9258C141.964 100.373 142.944 102.253 142.324 103.634Z" fill="#D4C7EF"/>
<path d="M40.2475 27.7693C38.7178 27.0557 38.0837 25.8088 38.5791 24.1118C39.0041 22.6281 40.6652 21.8559 42.0898 22.2939C43.3388 22.6694 44.3174 24.7538 43.7965 26.0331C43.2545 27.4753 41.652 28.2682 40.2475 27.7693Z" fill="#D4C7EF"/>
<path d="M124.387 125.46C124.762 124.128 126.327 123.152 127.869 123.631C129.41 124.111 130.076 126.152 129.634 127.391C129.092 128.834 127.499 129.596 126.056 129.117C124.524 128.607 123.867 126.637 124.387 125.46Z" fill="#D4C7EF"/>
<path d="M99.0238 16.023C98.4223 17.5461 96.9085 18.2684 95.4647 17.7896C94.1965 17.3732 93.2856 15.381 93.8065 14.1016C94.3777 12.6699 95.8733 11.8049 97.3161 12.3856C98.9345 13.0285 99.4224 14.2235 99.0238 16.023Z" fill="#D4C7EF"/>
<path d="M142.392 59.0121C143.834 59.5927 144.564 61.0439 144.06 62.6696C143.575 64.2343 141.7 64.8624 140.53 64.4466C139.389 64.0413 138.33 62.2007 138.872 60.7586C139.444 59.2251 141.075 58.5444 142.392 59.0121Z" fill="#D4C7EF"/>
<path d="M129.449 33.5733C128.83 34.9538 127.598 35.8105 125.969 35.2998C124.632 34.893 123.876 33.1259 124.329 31.7545C124.782 30.383 126.444 29.509 127.751 30.0072C129.271 30.6495 129.765 32.2212 129.449 33.5733Z" fill="#D4C7EF"/>
<path d="M144.016 76.7525C142.398 76.0077 141.88 74.9042 142.365 73.2376C142.811 71.693 144.333 71.0421 145.748 71.5105C147.075 71.9477 147.95 73.5527 147.398 75.0253C146.855 76.5692 145.626 77.2223 144.016 76.7525Z" fill="#D4C7EF"/>
<path d="M20.6748 120.529C20.1591 120.21 19.5749 119.9 19.2679 119.246C18.9417 118.551 18.8515 117.736 19.0539 117.024C19.2957 116.293 19.8784 115.717 20.5864 115.355C21.2157 115.034 21.8513 115.089 22.4466 115.267C23.7642 115.633 24.5792 117.421 24.1259 118.792C23.6626 120.194 22.05 121.017 20.6748 120.529Z" fill="#D4C7EF"/>
<path d="M13.7582 81.8039C13.2829 83.4399 11.429 83.9052 10.425 83.4805C9.26473 83.0343 8.23103 81.6114 8.8536 79.9255C9.50638 78.1481 10.86 77.8116 12.1767 78.2793C13.4934 78.747 14.3323 80.0667 13.7582 81.8039Z" fill="#D4C7EF"/>
<path d="M137.152 52.2128C135.622 51.4992 135.056 50.2426 135.433 48.7077C135.606 47.9859 136.169 47.4706 136.808 47.1188C137.487 46.7469 138.25 46.7117 138.855 46.9604C139.498 47.1891 140.041 47.7225 140.368 48.4173C140.694 49.1121 140.648 49.8449 140.466 50.4953C140.071 51.8876 138.478 52.6501 137.152 52.2128Z" fill="#D4C7EF"/>
<path d="M146.492 95.4766C146.026 97.0822 144.504 97.6313 143.217 97.174C141.929 96.7167 141.002 95.4677 141.526 93.7811C141.981 92.3078 143.485 91.5142 144.89 92.013C146.177 92.4704 146.916 94.0948 146.492 95.4766Z" fill="#D4C7EF"/>
<path d="M50.2187 144.407C49.6465 145.94 48.4171 146.593 46.9148 146.094C45.5003 145.625 44.8196 144.124 45.2738 142.65C45.7079 141.238 47.2419 140.455 48.5878 140.933C49.9822 141.462 50.683 142.903 50.2187 144.407Z" fill="#D4C7EF"/>
<path d="M17.1579 50.1487C18.5916 50.658 19.2047 52.0677 18.809 53.5617C18.4646 54.8016 16.7724 55.767 15.5051 55.2487C14.1399 54.7298 13.5087 53.1774 13.9024 51.887C14.3264 50.5051 15.9108 49.5695 17.1579 50.1487Z" fill="#D4C7EF"/>
<path d="M42.7637 140.056C42.3891 141.387 41.0398 142.304 39.4991 141.723C37.9877 141.152 37.5018 139.753 37.9358 138.341C38.3407 136.918 39.8453 136.125 41.2014 136.572C42.5473 137.05 43.333 138.828 42.7637 140.056Z" fill="#D4C7EF"/>
<path d="M97.1429 150.518C96.9055 151.83 95.0286 152.662 93.9076 152.195C92.5626 151.615 91.9194 150.297 92.305 148.833C92.6302 147.553 94.39 146.679 95.6089 147.146C96.8277 147.613 97.7324 149.229 97.1429 150.518Z" fill="#D4C7EF"/>
<path d="M21.421 42.1958C22.8365 42.5624 23.4869 44.1556 23.0337 45.5271C22.6106 46.8071 21.3491 47.7553 19.7984 47.2044C18.3647 46.6951 17.7214 45.3769 18.2149 43.8835C18.7296 42.2274 20.2515 41.6782 21.421 42.1958Z" fill="#D4C7EF"/>
<path d="M125.107 135.251C124.851 136.522 123.13 137.375 121.853 136.887C120.546 136.389 119.767 134.988 120.24 133.556C120.714 132.124 122.139 131.472 123.495 131.92C124.812 132.285 125.647 134.114 125.107 135.251Z" fill="#D4C7EF"/>
<path d="M54.5948 150.456C53.2863 150.162 52.6186 148.324 53.0608 147.085C53.4929 145.876 54.9209 144.919 56.3052 145.479C57.631 146.018 58.3126 147.418 57.8392 148.851C57.396 150.191 55.9115 150.924 54.5948 150.456Z" fill="#D4C7EF"/>
<path d="M59.486 14.2724C59.0429 15.6134 57.5291 16.3357 56.2224 15.8375C54.9158 15.3394 54.3129 13.8992 54.7671 12.4259C55.1911 11.0441 56.7624 10.4444 57.9913 10.8809C59.0739 11.2655 60.1249 12.9329 59.486 14.2724Z" fill="#D4C7EF"/>
<path d="M108.754 146.844C108.468 148.104 106.943 148.959 105.597 148.481C104.212 148.023 103.651 146.257 104.103 145.089C104.625 143.708 105.912 143.076 107.308 143.504C108.528 143.869 109.333 145.687 108.754 146.844Z" fill="#D4C7EF"/>
<path d="M31.9088 137.188C30.679 136.853 29.8712 135.34 30.3053 133.928C30.7494 132.485 32.4086 131.917 33.5103 132.342C34.8462 132.851 35.4986 134.24 35.1039 135.632C34.7 136.953 32.9704 137.735 31.9088 137.188Z" fill="#D4C7EF"/>
<path d="M91.0623 11.4241C90.5687 12.9175 89.3302 13.4992 87.9248 13.1021C86.5486 12.7155 85.9687 10.9089 86.3414 9.78126C86.7443 8.56218 88.1429 7.59466 89.5081 8.11363C90.9408 8.72473 91.5457 9.96123 91.0623 11.4241Z" fill="#D4C7EF"/>
<path d="M24.014 39.0984C22.7074 38.6002 22.1236 37.201 22.5677 35.7581C22.9605 34.5696 24.3391 33.663 25.792 34.2131C27.0108 34.6801 27.7217 36.0905 27.2382 37.5534C26.8545 38.8133 25.1925 39.6873 24.014 39.0984Z" fill="#D4C7EF"/>
<path d="M71.3907 10.6005C71.1351 11.7697 69.5508 12.7053 68.2634 12.248C66.9467 11.7803 66.3466 10.0347 66.7385 8.9479C67.22 7.68866 68.5491 6.83265 69.8951 7.31075C71.231 7.81932 71.8531 9.30034 71.3907 10.6005Z" fill="#D4C7EF"/>
<path d="M12.9643 57.9901C14.0187 58.2624 14.9536 59.7864 14.5296 61.1683C14.0753 62.6416 12.3284 63.1789 11.3729 62.8054C10.2227 62.3287 9.35446 60.9987 9.81779 59.5968C10.2912 58.1643 11.7647 57.564 12.9643 57.9901Z" fill="#D4C7EF"/>
<path d="M83.6063 150.818C84.912 151.418 85.5078 152.583 85.0828 154.067C84.6679 155.52 83.0774 156.079 81.9756 155.653C80.8738 155.228 79.9763 153.887 80.5284 152.415C81.0703 150.973 82.2201 150.462 83.6063 150.818Z" fill="#D4C7EF"/>
<path d="M145.925 86.0125C146.398 84.5801 147.903 83.7864 149.044 84.1917C150.185 84.5971 150.982 86.2423 150.589 87.4309C150.216 88.5585 148.476 89.4727 147.443 89.0376C146.838 88.7888 146.422 88.2665 146.124 87.6839C145.827 87.1013 145.823 86.4191 145.925 86.0125Z" fill="#D4C7EF"/>
<path d="M145.529 115.602C145.038 116.891 143.651 117.625 142.442 117.127C141.175 116.609 140.521 115.423 140.965 113.98C141.409 112.538 142.852 112.029 144.062 112.424C145.222 112.87 145.913 114.342 145.529 115.602Z" fill="#D4C7EF"/>
<path d="M44.6808 19.4001C43.356 18.7593 42.8178 17.7167 43.2034 16.2531C43.5579 14.9828 45.0424 14.2501 46.2128 14.6658C47.4124 15.092 48.1416 16.645 47.7286 17.8946C47.2964 19.1033 45.8805 19.8263 44.6808 19.4001Z" fill="#D4C7EF"/>
<path d="M118.071 16.6589C117.649 17.8371 116.086 18.61 115.003 18.2254C113.95 17.8512 113.124 16.0938 113.516 15.007C113.889 13.8794 115.531 13.0664 116.633 13.4918C117.745 13.8867 118.493 15.4807 118.071 16.6589Z" fill="#D4C7EF"/>
<path d="M136.846 37.9034C136.335 39.1522 135.124 39.948 133.836 39.4907C132.568 39.0742 131.906 37.7151 132.359 36.3437C132.792 35.0332 133.875 34.3281 135.349 34.7155C136.5 35.0904 137.219 36.6739 136.846 37.9034Z" fill="#D4C7EF"/>
<path d="M60.876 151.632C61.2597 150.372 62.715 149.629 63.9147 150.055C65.0851 150.471 65.795 151.983 65.3921 153.202C64.9892 154.421 63.4845 155.215 62.3727 154.82C61.2608 154.425 60.5125 152.831 60.876 151.632Z" fill="#D4C7EF"/>
<path d="M116.113 141.591C116.486 140.464 118.099 139.64 119.191 139.994C120.245 140.369 121.109 142.106 120.688 143.182C120.227 144.381 118.956 145.257 117.601 144.708C116.294 144.21 115.826 143.056 116.113 141.591Z" fill="#D4C7EF"/>
<path d="M11.1703 98.9336C12.4083 99.4415 13.0113 100.882 12.677 102.091C12.3134 103.29 10.8087 104.084 9.63833 103.668C8.52646 103.273 7.68846 101.851 8.13164 100.51C8.58394 99.2408 9.83249 98.6287 11.1703 98.9336Z" fill="#D4C7EF"/>
<path d="M141.198 123.564C140.715 124.925 139.398 125.547 138.188 125.152C137.008 124.766 136.298 123.254 136.711 122.005C137.094 120.745 138.647 120.104 139.681 120.437C140.656 120.75 141.642 122.121 141.198 123.564Z" fill="#D4C7EF"/>
<path d="M27.2785 131.116C26.9049 132.345 25.5475 133.089 24.3186 132.653C23.7626 132.455 23.2762 132.146 22.9491 131.553C22.6028 130.919 22.5903 130.166 22.7524 129.576C22.9044 129.017 23.34 128.491 23.9299 128.19C24.5592 127.868 25.1857 127.852 25.781 128.03C26.9715 128.385 27.6522 129.886 27.2785 131.116Z" fill="#D4C7EF"/>
<path d="M107.325 13.6591C106.086 13.2531 105.483 11.8129 105.954 10.5841C106.407 9.3145 107.558 8.59978 108.894 9.10836C110.084 9.56496 110.785 11.0058 110.304 12.1632C109.863 13.3006 108.68 14.2085 107.325 13.6591Z" fill="#D4C7EF"/>
<path d="M31.4246 29.437C30.8836 30.7773 29.7621 31.4006 28.4061 30.953C27.2842 30.5885 26.4773 28.9738 26.9478 27.8468C27.4285 26.6894 28.6405 25.7918 30.0057 26.3108C31.1267 26.7771 31.8486 28.0552 31.4246 29.437Z" fill="#D4C7EF"/>
<path d="M7.70398 86.6686C8.75829 86.9409 9.66679 88.1491 9.15406 89.6016C8.69074 91.0035 7.49254 91.4633 6.28282 91.0677C5.04385 90.6616 4.45911 89.3642 4.83274 88.1347C5.24666 86.7833 6.68085 86.203 7.70398 86.6686Z" fill="#D4C7EF"/>
<path d="M10.0214 69.1703C9.70624 70.4206 8.44762 71.0633 7.17938 70.6468C5.90107 70.2609 5.39691 68.7196 5.71011 67.673C6.06456 66.4026 7.59659 65.823 8.59142 66.1764C9.66396 66.5914 10.5816 67.8709 10.0214 69.1703Z" fill="#D4C7EF"/>
<path d="M15.9879 114.233C15.6344 115.401 14.4818 116.218 13.1267 115.668C11.9472 115.181 11.3605 114.087 11.7845 112.706C12.2488 111.202 13.5238 110.905 14.675 111.28C15.9916 111.748 16.4785 113.045 15.9879 114.233Z" fill="#D4C7EF"/>
<path d="M83.1482 6.97832C82.7352 8.22787 81.526 8.81998 80.3264 8.39386C79.0682 7.94694 78.5511 6.74162 78.9943 5.40063C79.4072 4.15108 80.6165 3.55897 81.8353 4.02597C82.9764 4.43132 83.5511 5.75925 83.1482 6.97832Z" fill="#D4C7EF"/>
<path d="M100.092 153.268C100.456 151.967 101.656 151.406 102.865 151.801C104.192 152.239 104.59 153.606 104.257 154.714C103.883 155.943 102.585 156.606 101.454 156.17C100.372 155.785 99.561 154.578 100.092 153.268Z" fill="#D4C7EF"/>
<path d="M146.343 51.9021C147.399 52.0726 148.156 53.7379 147.764 54.8247C147.423 55.7591 145.956 56.6345 144.942 56.2402C143.87 55.8252 143.11 54.3636 143.522 53.3177C144.013 52.0279 145.085 51.4552 146.343 51.9021Z" fill="#D4C7EF"/>
<path d="M59.342 4.61784C59.5491 3.39736 61.1992 2.7575 62.1446 3.16144C63.2656 3.62773 63.8513 4.82336 63.4776 6.05283C63.0445 7.36334 61.9533 7.8952 60.7043 7.51963C59.543 7.17524 58.8522 5.70391 59.342 4.61784Z" fill="#D4C7EF"/>
<path d="M148.519 68.2718C147.581 68.041 146.713 66.711 147.087 65.4815C147.51 64.2015 148.855 63.6918 149.86 64.0147C150.875 64.3072 151.567 65.6767 151.213 66.8452C150.85 68.0442 149.385 68.7159 148.519 68.2718Z" fill="#D4C7EF"/>
<path d="M149.39 107.778C149.027 108.875 147.68 109.589 146.656 109.225C145.661 108.872 145.01 107.38 145.323 106.334C145.656 105.226 147.277 104.576 148.086 104.897C149.159 105.312 149.763 106.651 149.39 107.778Z" fill="#D4C7EF"/>
<path d="M92.5186 158.377C92.144 159.708 90.7118 160.085 89.8239 159.803C88.7605 159.46 88.0971 158.202 88.4707 156.973C88.8242 155.804 90.0828 155.162 91.1654 155.546C92.0624 155.899 92.9609 157.137 92.5186 158.377Z" fill="#D4C7EF"/>
<path d="M70.1332 158.939C68.9911 158.635 68.4486 157.012 68.7508 156.098C69.1023 155.133 70.4214 154.307 71.504 154.692C72.3818 155.004 73.2692 156.375 72.8572 157.522C72.4744 158.681 71.2552 159.303 70.1332 158.939Z" fill="#D4C7EF"/>
<path d="M122.803 22.3241C121.789 21.9299 121.086 20.6927 121.469 19.5346C121.901 18.3259 123.09 17.7947 124.212 18.1592C125.217 18.4821 125.908 19.9534 125.507 20.9689C125.066 22.0044 124.023 22.6893 122.803 22.3241Z" fill="#D4C7EF"/>
<path d="M35.5131 21.3199C35.0526 22.4164 34.029 23.0404 32.8385 22.6856C31.8235 22.3932 31.162 20.9323 31.5045 19.896C31.8369 18.8903 33.1742 18.2075 34.1791 18.5304C35.1154 18.8629 35.8263 20.2733 35.5131 21.3199Z" fill="#D4C7EF"/>
<path d="M154.258 79.1988C153.738 80.3763 152.676 80.9185 151.554 80.5541C150.549 80.2312 149.927 78.7501 150.299 77.7243C150.67 76.6985 152.008 76.0157 152.973 76.3586C153.958 76.7425 154.6 78.1626 154.258 79.1988Z" fill="#D4C7EF"/>
<path d="M5.57168 77.1932C5.23018 78.1276 3.80415 78.881 2.8971 78.5589C1.96079 78.2263 1.26093 76.6836 1.62258 75.6882C1.9943 74.6624 3.43039 73.8785 4.32641 74.333C5.398 74.8498 5.93524 75.9942 5.57168 77.1932Z" fill="#D4C7EF"/>
<path d="M15.3367 125.205C15.6892 124.139 16.9973 123.445 18.0213 123.809C18.9869 124.152 19.6877 125.593 19.316 126.619C18.9534 127.716 17.6655 128.348 16.6222 127.944C15.579 127.539 14.9842 126.272 15.3367 125.205Z" fill="#D4C7EF"/>
<path d="M144.085 42.3138C143.83 43.3812 142.495 43.8604 141.491 43.4356C140.487 43.0109 139.987 42.0501 140.438 40.8823C140.861 39.7041 141.707 39.2214 142.887 39.6067C143.98 39.9607 144.554 41.2887 144.085 42.3138Z" fill="#D4C7EF"/>
<path d="M48.7449 10.7635C47.7783 10.5224 47.2027 9.29627 47.6732 8.16932C48.1136 7.13382 49.1261 6.64212 50.1795 7.01628C50.9987 7.3073 51.6823 8.50363 51.2703 9.65136C50.8683 10.7686 49.6409 11.218 48.7449 10.7635Z" fill="#D4C7EF"/>
<path d="M101.035 5.09064C102.099 5.3325 102.557 6.61886 102.284 7.54356C101.971 8.59017 100.771 9.25362 99.805 8.91064C98.898 8.58845 98.2941 7.25012 98.5962 6.33581C98.8802 5.27881 100.168 4.64654 101.035 5.09064Z" fill="#D4C7EF"/>
<path d="M136.426 131.473C136.063 132.57 135.15 132.961 134.008 132.657C133.022 132.375 132.466 131.088 132.866 130.174C133.298 129.067 134.252 128.555 135.324 128.97C136.319 129.323 136.779 130.406 136.426 131.473Z" fill="#D4C7EF"/>
<path d="M149.665 98.3405C149.919 97.2731 151.088 96.8029 151.995 97.1251C152.951 97.4986 153.489 98.5411 153.176 99.5877C152.914 100.38 151.801 101.177 150.816 100.793C149.831 100.409 149.322 99.3767 149.665 98.3405Z" fill="#D4C7EF"/>
<path d="M131.771 22.8876C132.784 23.3837 133.178 24.1706 132.874 25.2885C132.581 26.2742 131.49 26.8061 130.553 26.4735C129.675 26.1617 129.1 24.9356 129.431 24.0316C129.773 23.0972 130.835 22.555 131.771 22.8876Z" fill="#D4C7EF"/>
<path d="M129.529 140.669C128.632 140.317 128.238 139.53 128.493 138.361C128.668 137.537 129.448 136.759 130.162 136.774C131.326 136.813 132.24 137.512 132.368 138.409C132.396 138.623 132.375 138.684 132.198 138.825C131.882 139.088 131.625 139.371 131.242 139.541C131.006 139.662 130.68 139.955 130.501 140.3C130.262 140.726 129.909 140.805 129.529 140.669Z" fill="#D4C7EF"/>
<path d="M92.338 4.79392C91.0597 4.40795 90.6827 2.87778 91.4669 1.692C91.735 1.27642 91.9408 1.24735 92.4089 1.41364C92.7308 1.52797 93.0527 1.6423 93.3745 1.75662C93.5501 1.81898 93.7256 1.88134 93.9223 1.78093C94.237 1.62026 94.4701 1.80523 94.5943 2.1218C94.9104 2.84707 94.8159 3.52866 94.3795 4.15687C93.8936 4.83565 93.1381 5.04406 92.338 4.79392Z" fill="#D4C7EF"/>
<path d="M75.0274 2.66342C74.7847 3.49669 73.5453 4.18023 72.7361 3.85874C71.6928 3.4541 71.3877 2.59652 71.5738 1.53882C71.6764 1.0304 72.0414 0.717351 72.4257 0.44517C72.8986 0.102345 73.4545 0.299821 73.8944 0.353898C74.6762 0.461348 75.2701 1.83015 75.0274 2.66342Z" fill="#D4C7EF"/>
<path d="M19.2565 33.0155C18.8335 34.2955 17.2228 34.9153 16.1037 34.2453C15.8313 34.0804 15.7948 33.795 15.601 33.59C15.5526 33.5387 15.5929 33.4168 15.6615 33.4071C15.9358 33.3684 15.9095 33.0525 16.0476 32.9313C16.4227 32.5878 16.6131 32.1105 16.9397 31.7157C17.2271 31.341 17.6021 30.9975 17.7825 30.5507C17.9729 30.0735 18.218 30.0244 18.5864 30.3936C19.198 30.9173 19.6355 32.2646 19.2565 33.0155Z" fill="#D4C7EF"/>
<path d="M7.23985 48.6009C7.35976 48.337 7.39189 48.0419 7.70655 47.8812C7.99194 47.7102 8.01592 47.2419 8.12671 46.9067C8.38764 46.2161 8.45623 46.2064 9.15942 46.354C10.0382 46.564 10.3744 47.2283 10.6119 47.9937C10.7644 48.4225 10.2656 49.4373 9.90057 49.7503C9.26934 50.2753 8.63187 50.4235 7.87207 50.0514C7.07295 49.6994 6.94775 49.4847 7.23985 48.6009Z" fill="#D4C7EF"/>
<path d="M36.7541 145.379C37.5451 145.558 37.8027 146.263 37.9816 147.007C38.113 147.599 37.6041 148.644 37.0636 148.895C36.9062 148.975 36.6199 149.248 36.5067 148.799C36.4592 148.646 36.2635 148.645 36.1172 148.593C35.8246 148.489 35.5118 148.446 35.3785 148.058C35.3209 147.935 35.0475 147.872 34.8719 147.81C34.2383 147.551 34.104 147.264 34.3256 146.594C34.6287 145.578 35.7007 145.005 36.7541 145.379Z" fill="#D4C7EF"/>
<path d="M8.2081 110.073C7.98555 110.845 7.43395 111.228 6.76626 111.468C6.57968 111.538 6.50197 111.476 6.43529 111.282C6.19688 110.619 5.72249 110.075 5.72007 109.291C5.71383 108.915 5.38477 108.525 5.22216 108.127C4.98279 107.565 5.12285 107.24 5.6524 107.122C6.45631 106.965 7.1595 107.112 7.72072 107.788C8.24261 108.485 8.46087 109.209 8.2081 110.073Z" fill="#D4C7EF"/>
<path d="M113.569 152.062C112.525 151.657 112.289 150.79 112.503 149.844C112.677 149.021 113.965 148.388 114.697 148.648C115.457 148.918 116.061 150.257 115.751 150.998C115.451 151.709 114.495 152.425 113.569 152.062Z" fill="#D4C7EF"/>
<path d="M51.1054 156.266C50.5495 156.069 49.9935 155.871 49.4083 155.663C49.1157 155.56 49.0289 155.427 49.1397 155.091C49.4236 154.034 50.6712 153.524 51.4622 153.703C52.5659 153.925 53.225 154.601 53.39 155.784C53.3799 155.814 53.4092 155.825 53.3991 155.855C53.3862 156.191 53.3632 156.557 53.1555 156.79C52.9377 157.053 52.6662 156.787 52.4029 156.693C51.9731 156.609 51.5443 156.422 51.1054 156.266Z" fill="#D4C7EF"/>
<path d="M44.1578 149.984C45.0366 150.194 45.2951 150.797 45.475 151.44C45.5973 151.96 45.1086 152.944 44.686 153.135C44.4107 153.275 44.1243 153.548 43.7669 153.047C43.5933 152.781 43.104 152.777 42.763 152.622C42.1485 152.404 42.0718 152.24 42.1471 151.518C42.2516 150.806 42.5399 150.329 43.1793 149.977C43.6311 149.797 43.9328 149.973 44.1578 149.984Z" fill="#D4C7EF"/>
<path d="M13.5276 38.6768C14.3953 39.0191 14.7315 39.6834 14.4586 40.6081C14.2864 41.228 14.0274 41.715 13.3698 41.9241C12.575 42.1526 11.4166 41.5027 11.3365 40.657C11.2808 40.3307 11.3432 39.9442 11.6579 39.7835C11.8938 39.663 11.9149 39.5002 11.9754 39.3174C12.2665 38.5354 12.5418 38.3948 13.3227 38.6041C13.3813 38.6248 13.469 38.656 13.5276 38.6768Z" fill="#D4C7EF"/>
<path d="M2.85195 98.9756C2.52577 98.2808 2.44373 97.6387 2.34251 96.9557C2.25856 96.5172 2.08683 96.0476 1.98369 95.5682C1.88967 95.1602 2.1175 94.8666 2.51898 94.8389C3.45912 94.7642 4.49857 95.5761 4.70484 96.5348C4.89289 97.3508 4.28518 98.4971 3.49038 98.7256C3.27453 98.7852 3.07787 98.8856 2.85195 98.9756Z" fill="#D4C7EF"/>
<path d="M39.4644 13.2222C39.2044 13.811 38.789 14.2764 38.1516 14.4246C37.4748 14.5928 36.8896 14.385 36.4252 13.8114C36.1638 13.5142 36.2161 13.1581 36.5317 12.8957C36.5811 12.8451 36.6598 12.8049 36.7284 12.7952C37.4363 12.4337 38.0484 11.8679 38.7664 11.4759C39.0024 11.3554 39.1396 11.336 39.2355 11.5404C39.4557 12.0613 39.5972 12.6224 39.4644 13.2222Z" fill="#D4C7EF"/>
<path d="M77.1848 161.443C76.531 161.245 76.5603 161.256 76.7123 160.697C76.956 159.762 77.7527 159.329 78.594 159.356C79.5332 159.383 80.2892 160.162 80.3784 161.079C80.4249 161.334 80.4331 161.508 80.0024 161.525C79.3658 161.571 78.7394 161.587 78.124 161.471C77.7921 161.387 77.4261 161.802 77.1848 161.443Z" fill="#D4C7EF"/>
<path d="M4.14286 58.4664C4.02773 58.2212 4.1275 58.0182 4.18794 57.8354C4.51025 56.8601 4.83256 55.8848 5.14481 54.9401C5.3664 54.2696 5.49351 54.2807 5.90939 54.803C6.40297 55.387 6.67976 56.1323 6.43706 56.9656C6.19437 57.7989 5.59336 58.2324 4.80863 58.4304C4.61293 58.429 4.38797 58.4172 4.14286 58.4664Z" fill="#D4C7EF"/>
<path d="M26.966 141.46C28.2001 140.298 30.0445 140.85 30.3712 142.533C30.4551 142.972 30.2939 143.459 30.0652 143.855C29.8767 144.128 29.5649 143.983 29.5174 143.83C29.2871 143.34 28.7494 143.285 28.4597 142.876C28.064 142.292 27.4111 141.992 26.966 141.46Z" fill="#D4C7EF"/>
<path d="M153.261 60.3529C152.135 60.3957 151.396 59.8609 151.162 58.79C151.021 58.1271 151.384 57.0299 151.915 56.7079C152.24 56.5167 152.493 56.6407 152.47 57.0072C152.458 57.2413 152.545 57.3743 152.622 57.5378C152.784 57.9361 152.908 58.3545 152.962 58.7826C153.045 59.3229 153.276 59.8133 153.261 60.3529Z" fill="#D4C7EF"/>
<path d="M155.108 91.8625C155.018 92.0349 155.034 92.3813 154.77 92.3896C154.476 92.3874 154.312 92.1928 154.178 91.9067C153.687 91.0172 153.982 89.8279 154.838 89.3148C154.956 89.2545 155.084 89.1638 155.229 89.3176C155.346 89.461 155.482 89.5434 155.382 89.7464C155.291 90.0206 155.211 90.2645 155.12 90.5388C155.08 90.6607 155.019 90.8435 155.068 90.8948C155.417 91.2232 155.179 91.5473 155.108 91.8625Z" fill="#D4C7EF"/>
<path d="M139.03 30.404C138.94 30.5764 138.479 30.6851 138.295 30.5514C137.799 30.1711 137.392 29.7201 137.399 29.0073C137.4 28.9055 137.372 28.7933 137.509 28.7739C137.646 28.7545 137.813 28.7456 137.841 28.8578C138.031 29.4701 138.536 29.82 138.963 30.21C139.041 30.2717 139.05 30.343 139.03 30.404Z" fill="#D4C7EF"/>
<path d="M1.33785 85.1565C1.24816 85.3289 1.1978 85.4813 1.06157 85.3989C0.944533 85.3573 0.710458 85.2741 0.800152 85.1017C1.02894 84.7062 0.768473 84.3072 0.860081 83.9311C0.910443 83.7787 0.882142 83.6665 0.726727 83.5431C0.552125 83.379 0.641819 83.2065 0.80922 83.0957C1.01595 82.9648 1.01404 83.1684 1.10086 83.3014C1.56519 83.875 1.30427 84.5656 1.33785 85.1565Z" fill="#D4C7EF"/>
<path d="M11.3674 121.684C11.1189 121.051 10.7222 120.569 10.3064 120.047C10.2095 119.945 10.1418 119.852 10.2507 119.721C10.3102 119.64 10.4272 119.681 10.515 119.713C11.1395 119.9 11.6192 120.922 11.3674 121.684Z" fill="#D4C7EF"/>
<path d="M58.5493 158.672C58.9508 158.644 59.3422 158.647 59.6823 158.904C59.7893 158.976 59.8962 159.048 59.8166 159.19C59.7763 159.312 59.6593 159.271 59.5715 159.24C59.2204 159.115 58.8693 158.99 58.4889 158.855C58.5282 158.835 58.5292 158.733 58.5493 158.672Z" fill="#D4C7EF"/>
<path d="M22.154 25.6332C22.2567 25.1248 22.6994 24.8734 22.9009 24.2638C22.9416 25.1297 22.9014 25.2516 22.154 25.6332Z" fill="#D4C7EF"/>
<path d="M85.1454 0.638431C84.8609 0.707668 84.5976 0.614127 84.2666 0.428451C84.6801 0.166663 84.9123 0.45346 85.1454 0.638431Z" fill="#D4C7EF"/>
<path d="M124.975 145.148C124.935 145.27 124.876 145.351 124.758 145.309C124.641 145.268 124.642 145.166 124.673 145.074C124.742 144.963 124.822 144.821 124.958 144.903C125.046 144.934 125.006 145.056 124.975 145.148Z" fill="#D4C7EF"/>
</svg>
