<svg width="66" height="68" viewBox="0 0 66 68" fill="none" xmlns="http://www.w3.org/2000/svg">
<path d="M23.5446 20.0493C23.6051 20.0239 23.6563 19.982 23.673 19.9166C23.9349 19.3166 24.4134 19.0284 24.9993 18.9519C25.5568 18.8816 26.0597 19.0763 26.477 19.4995C26.8506 19.8826 27.0144 20.3479 26.9683 20.8954C26.9633 21.0201 26.9835 21.1517 26.9902 21.3356C27.3302 21.0092 27.6005 20.6916 28.0353 20.5734C28.4702 20.4553 28.8698 20.5795 29.2929 20.6122C29.1301 20.5112 29.0058 20.3649 28.8748 20.2448C28.6909 20.068 28.5423 19.859 28.486 19.6053C28.4297 19.3517 28.3449 19.1043 28.349 18.8253C28.3867 18.2055 28.6838 17.7833 29.1539 17.4227C29.864 16.8623 30.9831 17.0729 31.4945 17.7601C31.7674 18.1155 31.9732 18.5223 31.912 19.0236C31.8877 19.171 31.9171 19.3191 31.9104 19.5554C32.6071 18.6271 33.4759 18.4466 34.3919 18.9233C34.988 19.2277 35.3827 19.6867 35.3368 21.0745C35.6649 20.6888 36.02 20.4086 36.4733 20.3236C36.9426 20.2289 37.4153 20.3312 37.804 20.5505C38.1365 20.7262 38.4354 21.0327 38.5749 21.4353C38.6958 21.8047 38.7975 22.1969 38.6775 22.612C38.8084 22.522 38.9419 22.4748 39.051 22.3649C39.2852 22.1353 39.5841 22.0217 39.9106 21.9577C40.1961 21.8964 40.458 21.9266 40.7384 21.9899C41.2363 22.0992 41.5377 22.4484 41.8006 22.843C42.0634 23.2376 42.1676 23.6725 42.056 24.1599C42.0459 24.1991 42.0359 24.2384 42.0795 24.2784C42.636 23.6336 43.3109 23.3156 44.1648 23.509C43.797 23.1555 43.5308 22.774 43.4594 22.2641C43.3913 21.7412 43.5062 21.2407 43.8503 20.8454C44.4614 20.1456 45.2279 20.0489 45.9835 20.4674C46.7047 20.8623 47.0499 21.6718 46.7193 22.6449C46.5641 23.0923 46.2652 23.416 45.864 23.6135C45.4753 23.8144 45.0514 23.8375 44.6106 23.716C44.891 23.9894 45.1304 24.2655 45.2798 24.6288C45.426 25.0052 45.4487 25.3896 45.4261 25.8455C45.8022 25.4311 46.1984 25.1482 46.6887 25.1294C47.1789 25.1105 47.6894 25.2233 48.0345 25.6125C48.6626 26.3179 48.8298 26.9802 48.3128 27.944C47.9225 28.6767 47.1569 28.9277 46.345 28.6758C45.5458 28.4274 44.9336 27.7124 45.1467 26.5667C45.0585 26.5424 44.9855 26.5643 44.9276 26.6324C44.5314 27.1253 43.9983 27.2584 43.4165 27.266C43.3754 27.2687 43.3343 27.2713 43.2394 27.2732C43.5106 27.53 43.6643 27.8245 43.8146 28.1321C43.9868 28.4596 43.8928 28.8258 44.0012 29.1918C44.441 28.7389 44.9371 28.5397 45.5055 28.5844C46.0772 28.616 46.5348 28.8822 46.8598 29.35C47.2099 29.8247 47.2554 30.3834 47.1833 30.9797C47.5534 30.5356 48 30.2666 48.5533 30.2651C48.9168 30.2673 49.2853 30.355 49.5884 30.5926C50.4138 31.2124 50.518 32.0674 50.1219 32.9805C49.8568 33.5936 48.9787 33.9677 48.2474 33.822C47.4784 33.666 46.7672 33.0217 46.882 31.6809C46.5731 31.8338 46.3851 32.146 46.0451 32.2624C45.7211 32.3691 45.3886 32.4034 44.9747 32.3873C45.2342 32.5849 45.3668 32.8036 45.4743 33.0153C45.6314 33.2967 45.712 33.613 45.7196 33.9512C45.7297 34.1221 45.7986 34.1691 45.9295 34.0791C46.0605 33.9892 46.1914 33.8993 46.3283 33.839C46.8756 33.5978 47.3877 33.599 47.9234 33.9287C48.4154 34.2185 48.6808 34.6558 48.8118 35.1961C48.9656 35.9107 48.7323 36.5046 48.2287 36.9959C48.049 37.1705 47.7947 37.2684 47.5563 37.3567C47.2415 37.48 46.9132 37.4454 46.5119 37.4328C47.3314 38.0229 47.5414 38.7811 47.3694 39.714C47.6448 39.4818 47.8454 39.173 48.1728 39.0532C48.5001 38.9334 48.8234 38.8825 49.1701 38.9501C49.5294 39.0212 49.8334 39.2031 50.0727 39.4791C50.5605 40.0478 50.7219 40.8906 50.3299 41.5248C49.8179 42.3639 49.0297 42.6507 48.175 42.3029C47.578 42.0543 46.9953 41.4875 47.1714 40.0655C46.8658 40.4154 46.6048 40.7496 46.1825 40.8712C45.7729 40.9963 45.359 40.9802 44.9207 40.9013C45.2549 41.1756 45.5732 41.4594 45.7059 41.8881C45.826 42.3134 45.8798 42.7344 45.7875 43.1991C46.4154 42.4339 47.1558 42.1759 48.0474 42.5899C49.0978 43.3837 49.0728 44.2171 48.7715 44.9183C48.4601 45.6587 47.6585 45.9978 47.0053 45.9157C46.4562 45.8483 46.0725 45.5044 45.7887 45.034C45.4956 44.5471 45.5509 44.0161 45.6222 43.4756C45.3754 43.9117 45.0296 44.2085 44.6006 44.3563C44.1683 44.5171 43.7108 44.461 43.2767 44.3133C43.2247 44.411 43.275 44.4249 43.3128 44.4353C43.7771 44.6753 44.0206 45.0926 44.1777 45.5841C44.3281 46.1017 44.2543 46.5996 43.9664 47.0383C43.7045 47.4283 43.3587 47.725 42.8861 47.8328C42.6258 47.9011 42.3765 47.8743 42.1204 47.8737C42.0381 47.879 41.9534 47.8417 41.8291 47.9054C42.3866 48.2552 42.6125 48.7937 42.632 49.4013C42.6387 49.7953 42.5347 50.2007 42.2552 50.5018C41.6349 51.185 41.0221 51.3661 40.1615 50.9887C39.4235 50.6592 39.1018 49.7582 39.2419 49.0546C39.3484 48.4817 39.68 48.083 40.1391 47.8175C40.6143 47.5424 41.1348 47.6159 41.6545 47.7452C40.8719 47.2213 40.5729 46.4946 40.6693 45.5409C40.1833 46.1211 39.61 46.4112 38.8838 46.3509C38.8721 46.5018 38.9686 46.5984 39.04 46.6881C39.4338 47.2029 39.4348 48.1975 39.1201 48.7409C38.6274 49.5574 37.605 49.8636 36.8266 49.4809C36.202 49.1826 35.8082 48.6678 35.7845 47.9191C35.7736 47.804 35.7375 47.682 35.7677 47.5643C35.7778 47.5251 35.7626 47.4789 35.7156 47.4519C35.6652 47.438 35.6333 47.4572 35.6073 47.5061C35.3127 47.971 34.8552 48.1249 34.3666 48.2423C34.2239 48.273 34.0829 48.192 33.9368 48.2358C33.9293 48.3177 33.9503 48.3935 34.0032 48.4501C34.3886 48.8926 34.4693 49.419 34.4198 49.9795C34.3855 50.3762 34.1437 50.6877 33.8835 50.966C33.4529 51.4355 32.8947 51.5616 32.3179 51.4446C31.7537 51.331 31.3096 51.0125 31.0559 50.4243C30.8846 50.041 30.8744 49.66 30.8929 49.273C30.897 49.2041 30.9264 49.1422 30.8517 49.0656C30.3422 49.9474 29.559 50.1095 28.5717 49.9633C29.031 50.3281 29.3257 50.7034 29.403 51.2429C29.4678 51.779 29.3402 52.276 29.012 52.6616C28.4975 53.248 27.7353 53.4859 26.9729 53.0936C26.2357 52.7083 25.9242 51.9781 26.0726 51.1368C26.1313 50.8028 26.3219 50.5333 26.5342 50.2837C26.7692 49.9984 27.0681 49.8848 27.398 49.8077C27.712 49.7402 28.0369 49.7878 28.3618 49.8354C28.031 49.5481 27.6842 49.2704 27.5708 48.819C27.4632 48.3972 27.3717 47.9658 27.4891 47.508C27.2188 47.8256 26.9805 48.124 26.58 48.2657C26.2082 48.4012 25.8245 48.4775 25.4207 48.4221C25.7767 48.7164 26.0404 49.0552 26.1345 49.5293C26.2319 49.9903 26.2127 50.4331 25.9508 50.8231C25.3104 51.7949 24.4659 51.8281 23.7967 51.5455C23.0335 51.209 22.7303 50.3411 22.8033 49.689C22.8619 49.145 23.1649 48.7524 23.5645 48.4564C23.98 48.1509 24.4669 48.1451 24.9656 48.1986C24.6499 47.9575 24.4207 47.6422 24.2485 47.3146C24.0671 46.9705 24.13 46.5677 24.0729 46.1598C23.403 46.7733 22.697 47.0548 21.8784 46.619C20.9658 46.1292 20.7868 45.1976 20.9101 44.5593C20.9965 44.065 21.3054 43.702 21.689 43.4157C22.0886 43.1197 22.5469 43.1201 23.0028 43.0777C23.0582 42.967 22.9633 42.9688 22.9356 42.9192C22.6216 42.5665 22.4158 42.1596 22.3469 41.6924C22.3326 41.5905 22.3561 41.4989 22.367 41.4039C22.3745 41.3219 22.3947 41.2435 22.3099 41.2061C22.2158 41.1521 22.1831 41.2271 22.1286 41.2821C21.802 41.5562 21.4453 41.7379 20.9995 41.741C20.484 41.7529 20.0373 41.6017 19.6536 41.2578C19.3043 40.9374 19.1523 40.5314 19.0708 40.0607C18.9943 39.6755 19.1227 39.3328 19.2226 38.9962C19.2754 38.8427 19.429 38.717 19.5449 38.5809C19.9343 38.1141 20.4523 37.9349 21.0307 37.9403C21.0845 37.9411 21.1348 37.955 21.186 37.9131C20.9719 37.644 20.8056 37.3461 20.6427 37.0351C20.4706 36.7075 20.6057 36.3386 20.4746 36.0084C19.6159 36.7799 18.8226 36.7712 18.2651 36.4214C17.3096 35.8358 17.118 34.9006 17.405 34.0975C17.6719 33.3728 18.2535 32.7349 19.6489 32.8676C18.8059 32.159 18.6479 31.3032 19.0104 30.3108C19.5425 29.6032 20.1973 29.1536 21.1393 29.3713C20.4944 28.7313 20.2047 28.0212 20.5025 27.123C20.8071 26.1987 21.4854 25.8676 22.3904 25.809C21.947 25.2246 21.6842 24.6199 21.8629 23.8709C21.6673 24.0551 21.4692 24.1965 21.2585 24.3345C20.9613 24.5466 20.6255 24.5941 20.2847 24.5561C20.0639 24.5232 19.8498 24.4642 19.655 24.3824C19.4006 24.2703 19.1823 24.07 19.0278 23.8313C18.4895 23.0387 18.6757 21.9977 19.3422 21.3972C19.9029 20.8936 20.7911 20.9005 21.3856 21.3165C21.8675 21.6455 22.0817 22.1247 22.1649 22.6938C22.1792 22.7958 22.1431 22.8839 22.1322 22.9789C22.1213 23.0739 22.0567 23.1681 22.1373 23.2744C22.4084 22.901 22.7626 22.6766 23.1882 22.5419C23.6139 22.4072 24.0177 22.4625 24.4366 22.564C24.3249 22.4212 24.152 22.3595 24.0302 22.2559C23.4845 21.7553 23.3861 21.1399 23.4977 20.4425C23.4909 20.2585 23.5304 20.1574 23.5446 20.0493ZM40.8842 45.124C41.1981 44.6363 41.6295 44.3212 42.1752 44.1916C42.448 44.1268 42.7125 44.1997 42.9812 44.2038C43.0349 44.2046 43.1071 44.2385 43.1373 44.1208C42.7696 43.9774 42.6008 43.6367 42.4126 43.3187C42.2153 42.9842 42.3067 42.5753 42.2085 42.17C42.0213 42.4265 41.798 42.561 41.5781 42.6824C41.3103 42.8327 41.0274 42.9367 40.7184 42.8795C40.6269 42.8683 40.5127 42.8928 40.4766 42.9809C40.428 43.0655 40.538 43.1098 40.5816 43.1499C40.9511 43.6019 41.0763 44.1126 40.9538 44.695C40.9169 44.8389 40.8674 44.9793 40.8842 45.124ZM32.2282 21.9958C31.9519 21.6535 31.7545 21.319 31.6747 20.9469C31.5857 20.5582 31.7208 20.1893 31.7518 19.8057C31.667 19.9784 31.5512 20.1145 31.4295 20.221C31.0576 20.5666 30.6555 20.8199 30.1316 20.7594C29.9864 20.7474 29.837 20.8042 29.6154 20.8271C30.2468 21.3093 30.4685 21.9167 30.4451 22.6385C30.9639 22.1933 31.5078 21.9652 32.2282 21.9958ZM29.6011 46.2138C29.2224 45.7453 28.9034 45.3072 28.9125 44.6935C28.92 44.6115 28.9116 44.5392 28.8268 44.5018C28.7546 44.4679 28.7219 44.5429 28.674 44.5717C28.3223 44.8388 27.9437 45.0005 27.5013 44.9905C27.3812 44.9854 27.2545 45.0065 27.1025 45.0206C27.6534 45.6067 27.8491 46.2628 27.6511 47.0345C27.6376 47.0868 27.6175 47.1653 27.7309 47.1966C28.106 46.4177 28.7986 46.1886 29.6011 46.2138ZM30.9818 48.8213C31.0649 48.7602 31.0934 48.7541 31.0968 48.741C31.3091 48.2814 31.6768 48.0047 32.1343 47.8507C32.3248 47.7912 32.5087 47.7579 32.7169 47.7873C32.8495 47.7959 32.9016 47.6982 32.8243 47.5789C32.8058 47.5458 32.7588 47.5188 32.7403 47.4857C32.5363 47.1773 32.3415 46.8855 32.3255 46.475C32.3212 46.3338 32.3455 46.1864 32.3069 46.0217C31.9946 46.1877 31.726 46.3937 31.433 46.537C31.1241 46.6899 30.7816 46.5534 30.4508 46.6862C31.0302 47.2662 31.1907 47.9546 30.9818 48.8213ZM25.5569 24.3995C25.6232 24.4038 25.6425 24.3811 25.6618 24.3584C25.9959 24.0024 26.4005 23.7918 26.8908 23.773C27.0679 23.7658 27.088 23.6874 27.0082 23.5253C26.7723 23.0261 26.6026 22.5311 26.7754 21.9626C26.7922 21.8972 26.8123 21.8187 26.7821 21.7263C26.6873 21.9383 26.4925 22.0666 26.3574 22.2254C26.2223 22.3842 26.0535 22.4637 25.863 22.5232C25.507 22.6491 25.1561 22.6504 24.7901 22.6055C24.7363 22.6047 24.67 22.6004 24.6566 22.6527C24.6398 22.7181 24.6868 22.7451 24.7338 22.772C25.1469 23.054 25.3779 23.4678 25.4401 23.9611C25.4535 24.1189 25.4989 24.2575 25.5569 24.3995ZM42.6549 41.2708C42.9093 40.9628 43.2308 40.8134 43.58 40.7137C43.9292 40.6139 44.2734 40.6388 44.6495 40.6445C43.9829 40.1945 43.7746 39.5349 43.7795 38.78C43.7383 38.7827 43.7291 38.7661 43.7131 38.7757C43.3027 39.1667 42.8469 39.4191 42.2903 39.4337C42.2239 39.4294 42.1476 39.4643 42.1207 39.569C42.5691 40.0287 42.6456 40.624 42.6549 41.2708ZM46.1206 37.1709C45.6588 36.7634 45.2986 36.328 45.28 35.6646C45.2682 35.3953 45.1834 35.3579 44.9568 35.5054C44.6244 35.7499 44.2676 35.9316 43.8478 35.8859C43.8067 35.8885 43.7563 35.8746 43.7429 35.9269C43.7135 35.9889 43.7253 36.0481 43.7656 36.1013C44.0225 36.4662 44.2065 36.8531 44.2057 37.329C44.2133 37.4571 44.1764 37.601 44.2469 37.7465C44.5038 37.4812 44.7783 37.3048 45.1023 37.1981C45.4448 37.1245 45.7764 37.146 46.1206 37.1709ZM26.205 44.577C26.1907 44.4751 26.1563 44.4516 26.1219 44.4281C25.7507 44.0876 25.6054 43.6554 25.5558 43.1656C25.5474 43.0932 25.5961 43.0086 25.4987 42.9678C25.4105 42.9435 25.3501 42.9688 25.2796 43.0334C25.0748 43.201 24.833 43.3024 24.5543 43.3375C24.3864 43.3613 24.2285 43.3457 24.0674 43.3433C23.9884 43.3355 23.8902 43.3505 23.8667 43.442C23.8432 43.5336 23.9222 43.5413 23.9658 43.5814C24.2731 43.9602 24.4948 44.3575 24.4555 44.8788C24.4538 44.9904 24.4488 45.1151 24.5454 45.2117C25.0045 44.7361 25.567 44.5411 26.205 44.577ZM21.8778 32.642C21.5898 32.8707 21.3162 32.9913 21.0148 33.0623C20.7134 33.1332 20.4145 33.0368 20.0737 32.9988C20.376 33.2922 20.5901 33.5614 20.7656 33.8759C20.9503 34.2069 20.8782 34.5931 20.9547 34.9784C21.4122 34.6143 21.8411 34.2565 22.5077 34.2862C22.0853 33.7776 21.9098 33.2531 21.8778 32.642ZM37.1993 44.1918C36.7427 44.7101 36.1845 44.8363 35.5867 44.8535C35.9629 45.4894 36.1007 45.7935 36.0765 46.5711C36.3728 46.4147 36.5541 46.1286 36.8437 45.9984C37.1459 45.8717 37.4775 45.8931 37.8108 45.8029C37.4439 45.3936 37.3011 45.0041 37.1993 44.1918ZM40.6839 27.3527C40.8182 27.2497 40.9265 27.1955 41.0256 27.1248C41.3193 26.9258 41.6375 26.7894 42.0161 26.8378C42.1454 26.8595 42.2756 26.8253 42.4191 26.7389C41.8826 26.2548 41.7397 25.6552 41.7917 24.9273C41.4509 25.3095 41.1084 25.5931 40.6736 25.7113C40.572 25.7393 40.462 25.695 40.3697 25.7395C40.2773 25.7841 40.2009 25.819 40.3034 25.9453C40.5788 26.3434 40.6763 26.8044 40.6839 27.3527ZM42.4931 32.3892C42.6014 32.335 42.6744 32.3131 42.7382 32.2747C43.1042 32.1096 43.44 31.852 43.8623 31.9405C43.9378 31.9613 44.0487 31.9499 44.1108 31.813C43.6498 31.3497 43.5036 30.7632 43.5488 30.0614C43.0863 30.5501 42.5894 30.8052 41.9698 30.8024C42.0664 31.1091 42.2914 31.2832 42.3637 31.5272C42.4703 31.7947 42.5107 32.0579 42.4931 32.3892ZM23.6139 37.9105C23.3688 38.0249 23.1396 38.1298 22.9231 38.2381C22.6939 38.343 22.4051 38.2073 22.1625 38.3645C22.3959 38.6109 22.5404 38.8888 22.6529 39.186C22.7654 39.4831 22.7353 39.8109 22.7202 40.1849C23.1391 39.6561 23.6604 39.4638 24.316 39.3785C23.7686 38.9895 23.7198 38.4438 23.6139 37.9105ZM33.2323 22.4968C33.6085 22.9226 33.8554 23.3269 33.9016 23.8298C33.9092 23.9579 33.9822 23.936 34.0553 23.9142C34.0998 23.8984 34.1384 23.8531 34.1862 23.8242C34.4515 23.6313 34.7411 23.5011 35.0576 23.4763C35.1525 23.4745 35.2448 23.4299 35.3623 23.3923C35.1734 23.1301 35.1079 22.86 35.0297 22.5864C34.9516 22.3127 35.0129 22.0215 35.0204 21.7295C34.5537 22.287 33.9719 22.5047 33.2323 22.4968ZM23.4936 26.2393C23.9042 26.6887 24.052 27.1636 24.1478 27.7362C24.5625 27.2763 25.0872 27.281 25.5917 27.154C25.2903 26.8048 25.119 26.4214 25.1256 25.9751C25.1214 25.8339 25.066 25.7346 24.9828 25.5856C24.5875 26.0228 24.1014 26.1829 23.4936 26.2393ZM21.7656 29.5581C22.0947 29.9569 22.3777 30.2731 22.4659 30.7175C22.4836 30.8064 22.4693 30.9145 22.4996 31.0069C22.5298 31.0993 22.576 31.182 22.6944 31.0886C22.8925 30.9472 23.1116 30.8816 23.3281 30.7732C23.5128 30.6841 23.7303 30.7301 23.9317 30.5756C23.7319 30.4084 23.6403 30.1871 23.5648 29.9562C23.4892 29.7253 23.5059 29.4498 23.3959 29.1954C22.9166 29.5394 22.4053 29.6925 21.7656 29.5581ZM38.7335 40.9456C38.6411 40.9902 38.5807 41.0155 38.5261 41.0705C38.2667 41.2931 37.9309 41.3405 37.6321 41.4542C37.4222 41.5364 37.413 41.5198 37.5079 41.728C37.6213 41.9694 37.6935 42.2134 37.7464 42.4801C37.7725 42.6413 37.77 42.8087 37.8212 42.9769C38.2728 42.5832 38.7748 42.4136 39.3466 42.4452C39.2399 42.1777 39.0275 42.0071 38.946 41.7465C38.8679 41.4729 38.7385 41.2411 38.7335 40.9456ZM34.3844 44.2838C34.0486 43.9111 33.8865 43.5443 33.8041 43.1295C33.7512 42.8628 33.7168 42.8393 33.4935 42.9738C33.2223 43.1371 32.9487 43.2577 32.6229 43.2659C32.3795 43.2688 32.3342 43.3403 32.4761 43.5755C32.6549 43.8769 32.7893 44.1941 32.7617 44.5646C32.7508 44.6596 32.781 44.752 32.8558 44.8286C33.278 44.4969 33.7372 44.2314 34.3844 44.2838ZM38.7484 25.0684C38.4847 24.5195 38.2328 24.0299 38.362 23.4213C38.2814 23.5251 38.1832 23.54 38.1093 23.6177C37.9162 23.8445 37.6711 23.959 37.4075 24.0404C37.2774 24.0745 37.1322 24.0624 37.0205 24.1297C36.9693 24.1716 36.8996 24.1804 36.9584 24.2666C37.1961 24.6543 37.3128 25.0926 37.4095 25.6094C37.7729 25.1915 38.2632 25.1726 38.7484 25.0684ZM41.9141 33.9101C41.8603 33.9093 41.8511 33.8927 41.8477 33.9058C41.5128 34.1075 41.1963 34.3424 40.7942 34.3855C40.712 34.3908 40.6599 34.4885 40.7212 34.6175C40.859 34.9216 41.0252 35.2195 41.0135 35.5804C41.0144 35.7347 41.1244 35.779 41.2428 35.6856C41.5206 35.4961 41.8228 35.3694 42.167 35.3943C42.2585 35.4055 42.3509 35.361 42.4121 35.2799C42.1401 34.8687 41.8554 34.4541 41.9141 33.9101ZM30.8187 42.5723C30.508 42.2065 30.3912 41.7681 30.2904 41.3202C29.9278 41.4723 29.6088 41.6644 29.2386 41.6883C29.1026 41.6928 29.0631 41.794 29.1496 41.9299C29.3159 42.2278 29.4091 42.5477 29.4008 42.8955C29.3932 42.9774 29.4017 43.0498 29.4831 43.1002C29.5738 43.1673 29.6132 43.0661 29.6611 43.0373C29.9935 42.7928 30.3536 42.598 30.8187 42.5723ZM28.4935 24.4111C28.7941 24.8161 28.9713 25.2291 28.9731 25.7477C29.397 25.5145 29.7773 25.2413 30.3146 25.2494C29.9896 24.7816 29.9366 24.3049 29.929 23.7566C29.5269 24.2199 29.0291 24.3207 28.4935 24.4111ZM40.2961 37.4832C39.9133 37.7138 39.5783 37.9155 39.1729 37.9718C39.0746 37.9867 39.1141 38.0956 39.1385 38.1584C39.2955 38.4397 39.3795 38.743 39.3905 39.0681C39.3947 39.2093 39.5139 39.2702 39.6382 39.2065C39.9446 39.0109 40.2686 38.9042 40.6288 38.9195C40.7774 38.9184 40.8235 38.7911 40.7303 38.6814C40.4666 38.3426 40.3331 37.9696 40.2961 37.4832ZM25.6594 40.0291C25.9499 40.4733 26.149 40.9063 26.1785 41.4747C26.5469 41.1421 26.9877 41.0536 27.4225 40.9354C27.179 40.5182 26.9573 40.1209 26.9362 39.6249C26.5098 39.8154 26.1245 40.0033 25.6594 40.0291ZM40.1326 28.7132C39.7086 28.9464 39.3259 29.1769 38.8725 29.262C39.038 29.6157 39.2135 29.9302 39.2488 30.3181C39.2564 30.4462 39.3664 30.4906 39.5032 30.4303C39.8373 30.2843 40.1748 30.1253 40.582 30.1676C40.456 29.9228 40.3199 29.7172 40.2284 29.4959C40.1402 29.2615 40.0806 29.021 40.1326 28.7132ZM28.5899 28.555C28.6134 28.4635 28.5571 28.42 28.5261 28.3834C28.3842 28.1482 28.3279 27.8946 28.3161 27.6252C28.3001 27.4248 28.2783 27.4047 28.0936 27.4939C27.8006 27.6371 27.5295 27.8004 27.1911 27.8052C27.0299 27.8027 26.9939 27.8908 27.093 28.0302C27.2567 28.2854 27.3474 28.5625 27.4222 28.8492C27.4793 29.047 27.5011 29.0671 27.6892 28.9649C27.941 28.8243 28.1836 28.6671 28.4875 28.6388C28.5379 28.6527 28.5765 28.6074 28.5899 28.555ZM25.0187 34.4325C24.6939 34.8051 24.2556 34.7263 23.8737 34.901C24.1206 35.3052 24.3708 35.6964 24.4104 36.2254C24.6706 35.9471 24.9686 35.8892 25.2607 35.8017C25.4353 35.7518 25.4547 35.7292 25.3875 35.5706C25.2346 35.2203 25.1103 34.8639 25.0187 34.4325ZM26.5654 30.9798C26.2473 31.3262 25.7813 31.1977 25.4581 31.4587C25.7218 31.7975 25.8268 32.1765 25.9251 32.5818C26.2281 32.3993 26.5219 32.2002 26.8577 32.1527C26.9686 32.1413 26.945 32.0228 26.8988 31.94C26.7536 31.7179 26.6973 31.4643 26.6569 31.2011C26.6418 31.1549 26.6015 31.1018 26.5654 30.9798ZM32.0912 26.1034C32.2197 26.391 32.3742 26.6296 32.4204 26.9225C32.4464 27.0837 32.522 27.1046 32.6714 27.0477C32.8528 26.9717 33.0374 26.8826 33.2213 26.8492C33.364 26.8186 33.4849 26.7679 33.5906 26.671C33.4873 26.3904 33.3454 26.1552 33.3403 25.8597C33.3403 25.6496 33.227 25.6184 33.0608 25.7406C32.7795 25.9432 32.4647 26.0664 32.0912 26.1034ZM35.5645 27.6495C35.5721 27.7776 35.6217 27.8473 35.6678 27.9301C35.7695 28.1122 35.8392 28.3134 35.9089 28.5147C35.9694 28.6995 35.9786 28.716 36.1599 28.64C36.3698 28.5578 36.5797 28.4756 36.792 28.4362C36.8617 28.4274 36.9599 28.4125 37.012 28.3148C36.7416 28.0021 36.7894 27.5531 36.5988 27.1925C36.2605 27.4073 35.9541 27.6029 35.5645 27.6495ZM35.177 39.6708C35.1082 39.6238 35.0595 39.7084 35.0083 39.7503C34.8135 39.8786 34.607 39.9477 34.382 39.9837C34.2553 40.0048 34.2032 40.1025 34.2872 40.1956C34.4518 40.3951 34.4292 40.6409 34.4829 40.8518C34.5367 41.0627 34.5333 41.0758 34.7214 40.9736C34.9573 40.8426 35.2083 40.7578 35.4559 40.686C35.6179 40.6326 35.6372 40.61 35.5574 40.4479C35.45 40.2362 35.3139 40.0306 35.2988 39.7744C35.3029 39.7055 35.2526 39.6916 35.177 39.6708ZM28.2898 36.399C28.1849 36.4401 28.0859 36.5108 27.9784 36.5092C27.855 36.5172 27.7433 36.5844 27.6199 36.5924C27.4839 36.5969 27.4353 36.6815 27.4898 36.8366C27.5596 37.0379 27.6545 37.2461 27.6763 37.4762C27.7083 37.6671 27.7931 37.7045 27.9652 37.6119C28.1213 37.5289 28.2682 37.4294 28.4394 37.3926C28.6199 37.3723 28.6056 37.2704 28.5569 37.1449C28.4847 36.9009 28.3839 36.663 28.2898 36.399ZM37.8407 33.8091C38.1614 33.7155 38.435 33.5949 38.7322 33.5928C38.7389 33.5666 38.7423 33.5536 38.7456 33.5405C38.6902 33.2311 38.4727 32.975 38.4365 32.643C38.4349 32.5445 38.3274 32.5428 38.2317 32.6005C38.0756 32.6835 37.9253 32.7961 37.7322 32.8129C37.5643 32.8366 37.5534 32.9316 37.6265 33.1198C37.7214 33.328 37.8448 33.5301 37.8407 33.8091ZM30.9154 38.4115C31.0279 38.7086 31.0993 39.0084 31.1581 39.3047C31.4209 39.2792 31.6131 39.1081 31.8448 39.0459C32.048 38.9899 32.0513 38.9768 31.9564 38.7686C31.8985 38.6266 31.8372 38.4976 31.7918 38.3591C31.7314 38.1744 31.7095 38.1543 31.5316 38.2173C31.341 38.2768 31.1437 38.3624 30.9154 38.4115ZM30.657 29.6433C30.7519 29.8515 30.8602 30.0074 30.9048 30.2018C30.9493 30.3961 30.9652 30.3865 31.1751 30.3043C31.3119 30.244 31.4614 30.1872 31.6167 30.16C31.7308 30.1355 31.7636 30.0605 31.73 29.9812C31.6695 29.7965 31.6216 29.6152 31.5897 29.4243C31.5779 29.3651 31.5326 29.2265 31.4209 29.2938C31.1817 29.4378 30.9088 29.5027 30.657 29.6433ZM36.0227 36.5849C36.1176 36.7931 36.1714 37.004 36.2252 37.2149C36.252 37.3203 36.3117 37.3508 36.3755 37.3124C36.5794 37.2005 36.8011 37.1776 37.0202 37.112C37.1377 37.0744 37.1259 37.0151 37.0831 36.9193C36.9907 36.7538 36.8984 36.5883 36.8505 36.407C36.8051 36.2684 36.7136 36.2572 36.6339 36.3052C36.4425 36.4205 36.199 36.4234 36.0227 36.5849ZM29.1725 33.1692C29.1263 33.2965 29.2011 33.3732 29.2313 33.4655C29.4295 33.9543 29.4329 33.9413 29.9038 33.735C30.0406 33.6747 30.0641 33.5832 30.0053 33.4969C29.9004 33.3279 30.0279 33.041 29.7475 32.9777C29.7349 32.9742 29.7223 32.9707 29.7223 32.9707C29.5477 33.0206 29.3891 33.0609 29.227 33.1142C29.1951 33.1335 29.1725 33.1692 29.1725 33.1692ZM35.1497 31.7365C35.1085 31.5291 35.0547 31.3182 34.9598 31.11C34.9262 31.0307 34.8918 31.0072 34.8154 31.0421C34.6467 31.1217 34.4721 31.1715 34.3218 31.2841C34.2866 31.3164 34.2421 31.3322 34.2572 31.3784C34.3118 31.5335 34.379 31.692 34.4495 31.8375C34.4865 31.9038 34.5746 31.9281 34.6351 31.9027C34.8004 31.8363 34.9868 31.8457 35.1497 31.7365ZM33.4334 35.3246C33.42 35.1669 33.3746 35.0283 33.3326 34.8767C33.2931 34.7678 33.2083 34.7304 33.1479 34.7557C33.0304 34.7933 32.8944 34.7978 32.8046 34.8851C32.7693 34.9174 32.6963 34.9393 32.7206 35.002C32.7593 35.1667 32.7786 35.3541 32.9129 35.4612C33.0036 35.5282 33.1186 35.4479 33.2269 35.3937C33.2874 35.3684 33.3629 35.3892 33.4334 35.3246Z" fill="#D4C7EF"/>
<path d="M19.1805 38.6345C18.9666 39.6259 17.9694 40.1491 17.0408 39.879C16.087 39.602 15.5731 38.662 15.8248 37.6811C16.0899 36.6478 17.046 36.1272 17.9872 36.4008C18.9535 36.6813 19.4918 37.684 19.1805 38.6345Z" fill="#D4C7EF"/>
<path d="M19.3586 24.3287C20.1973 24.476 20.7902 25.6338 20.552 26.5625C20.3078 27.4615 19.2207 28.072 18.3744 27.7966C17.5156 27.5177 16.9454 26.5342 17.2063 25.5698C17.4639 24.6185 18.4846 24.0037 19.3586 24.3287Z" fill="#D4C7EF"/>
<path d="M37.9073 20.4109C36.9905 20.2001 36.516 19.1589 36.7668 18.2337C37.0278 17.2693 37.9654 16.7157 38.9192 16.9927C39.7848 17.2454 40.36 18.3143 40.0932 19.2491C39.8465 20.1054 38.8409 20.7664 37.9073 20.4109Z" fill="#D4C7EF"/>
<path d="M41.2816 22.0277C40.3866 21.8369 39.85 20.7226 40.1168 19.7878C40.3601 18.9446 41.3716 18.3132 42.3061 18.6129C43.1524 18.8883 43.7024 19.9503 43.4365 20.8293C43.1889 21.7414 42.2278 22.3866 41.2816 22.0277Z" fill="#D4C7EF"/>
<path d="M34.5959 18.8115C33.7639 18.638 33.1484 17.516 33.3959 16.6039C33.64 15.7049 34.7019 15.0874 35.5549 15.3367C36.3323 15.5651 36.984 16.5991 36.7231 17.5634C36.4756 18.4755 35.4355 19.113 34.5959 18.8115Z" fill="#D4C7EF"/>
<path d="M17.77 27.84C18.6339 27.9942 19.2251 29.0535 18.9449 30.0406C18.694 30.9658 17.7119 31.5352 16.8085 31.2721C15.9807 31.0298 15.3634 30.0193 15.6244 29.0549C15.8643 28.2247 16.8649 27.4783 17.77 27.84Z" fill="#D4C7EF"/>
<path d="M19.7502 41.5645C20.6645 41.7327 21.2272 42.7981 20.9889 43.7268C20.7766 44.6065 19.7147 45.224 18.8928 45.0114C18.0079 44.7813 17.4201 43.7089 17.6449 42.8326C17.8966 41.8516 18.8729 41.2526 19.7502 41.5645Z" fill="#D4C7EF"/>
<path d="M36.4749 49.5379C37.3195 49.7148 37.9275 50.7088 37.6531 51.7255C37.4224 52.5722 36.4109 53.2035 35.5327 52.9473C34.7301 52.712 34.0885 51.6388 34.3519 50.7171C34.6179 49.8381 35.6009 49.2129 36.4749 49.5379Z" fill="#D4C7EF"/>
<path d="M15.3122 34.7387C14.4265 34.5645 13.8579 33.4694 14.0828 32.5931C14.3244 31.6514 15.2654 31.0846 16.1595 31.3312C17.1007 31.6047 17.5995 32.4986 17.3671 33.4568C17.1473 34.4185 16.1711 35.0176 15.3122 34.7387Z" fill="#D4C7EF"/>
<path d="M27.2176 15.6143C27.99 15.7573 28.6794 16.8017 28.4152 17.7792C28.1542 18.7436 27.1603 19.2538 26.3543 19.0315C25.4728 18.7884 24.9085 17.8345 25.1409 16.8762C25.3766 15.9049 26.4091 15.3493 27.2176 15.6143Z" fill="#D4C7EF"/>
<path d="M32.1453 13.7522C33.0579 14.0318 33.5752 14.9588 33.3622 15.8943C33.1457 16.843 32.1258 17.402 31.282 17.1693C30.4349 16.9497 29.8345 15.8738 30.0753 14.9879C30.2968 14.1247 31.2512 13.5056 32.1453 13.7522Z" fill="#D4C7EF"/>
<path d="M48.7768 36.699C48.9698 35.8419 49.9343 35.1835 50.841 35.4336C51.7947 35.7106 52.2827 36.6994 52.0452 37.5723C51.7843 38.5367 50.9768 39.0562 50.013 38.8185C49.0458 38.5937 48.5612 37.5918 48.7768 36.699Z" fill="#D4C7EF"/>
<path d="M23.5572 20.0527C23.5127 20.0685 23.459 20.0677 23.4397 20.0903C23.3608 20.2927 23.1854 20.3983 23.0443 20.5275C22.7715 20.8024 22.4349 20.9056 22.0647 20.9296C21.5677 20.9746 21.1882 20.7719 20.8229 20.4611C20.5014 20.1903 20.3804 19.8209 20.3325 19.4295C20.3014 19.1829 20.2359 18.9127 20.3534 18.665C20.5128 18.3589 20.6975 18.0597 20.9694 17.8406C21.238 17.6346 21.5369 17.5209 21.8693 17.4865C22.5947 17.3925 23.3293 17.9452 23.5461 18.6772C23.6578 19.0301 23.6746 19.3849 23.5807 19.7511C23.5824 19.8496 23.5555 19.9542 23.5572 20.0527Z" fill="#D4C7EF"/>
<path d="M20.6516 50.0339C19.7398 49.6985 19.2712 48.897 19.5229 47.9161C19.7746 46.9351 20.6955 46.4468 21.5737 46.703C22.4645 46.9627 22.9809 47.9454 22.7368 48.8444C22.4607 49.7626 21.6028 50.2682 20.6516 50.0339Z" fill="#D4C7EF"/>
<path d="M15.8037 36.975C15.6216 37.3169 15.4361 37.6719 15.1322 37.9102C14.8796 38.1066 14.5841 38.2072 14.2743 38.2058C14.192 38.2111 14.1097 38.2164 14.0241 38.2348C13.9066 38.2725 13.7899 38.2543 13.6833 38.1969C13.2475 37.9506 12.8151 37.6914 12.6396 37.1668C12.5304 36.8566 12.4657 36.5306 12.5118 36.1932C12.5713 35.8035 12.7879 35.4851 13.0825 35.2302C13.5022 34.8558 13.9975 34.7123 14.5239 34.8155C15.1418 34.9298 15.7892 35.6125 15.8002 36.3578C15.7877 36.5644 15.8985 36.7631 15.8037 36.975Z" fill="#D4C7EF"/>
<path d="M32.7137 53.5284C32.4065 54.41 31.6015 54.9723 30.6688 54.7711C30.2339 54.6792 29.9098 54.3657 29.6755 53.965C29.432 53.5477 29.3664 53.0675 29.4771 52.6358C29.5845 52.2173 29.8716 51.8343 30.267 51.6072C30.6657 51.3671 31.1123 51.3082 31.5153 51.4193C31.9183 51.5304 32.2903 51.8151 32.5052 52.2385C32.7118 52.5896 32.8043 53.1753 32.7137 53.5284Z" fill="#D4C7EF"/>
<path d="M50.7027 26.8805C51.0075 27.0066 51.3459 27.2119 51.565 27.5665C51.8304 28.0038 51.9304 28.5075 51.8096 28.9784C51.6921 29.4362 51.3799 29.8122 50.9685 30.0489C50.5858 30.2795 50.1584 30.3157 49.7714 30.1949C48.8084 29.9013 48.3667 28.9953 48.573 28.0858C48.7752 27.2453 49.6633 26.6219 50.7027 26.8805Z" fill="#D4C7EF"/>
<path d="M17.5583 42.0665C17.2663 42.9943 16.4898 43.5504 15.542 43.303C14.6445 43.0695 14.1146 42.1391 14.3529 41.2105C14.5685 40.3176 15.3961 39.7196 16.3692 39.9739C17.3011 40.2309 17.7319 41.022 17.5583 42.0665Z" fill="#D4C7EF"/>
<path d="M44.2602 47.0493C44.5522 46.1215 45.3917 45.5828 46.295 45.8459C47.2362 46.1194 47.7258 46.9967 47.4556 47.9446C47.188 48.9351 46.4065 49.4058 45.4334 49.1515C44.5107 48.911 44.0749 48.0346 44.2602 47.0493Z" fill="#D4C7EF"/>
<path d="M48.7852 21.8982C49.7793 22.2284 50.1891 23.1537 49.971 24.0038C49.7361 24.9194 48.7892 25.4565 47.911 25.2003C47.4828 25.0823 47.168 24.7854 46.937 24.3716C46.7187 23.9612 46.6716 23.5141 46.779 23.0956C46.8931 22.6509 47.1768 22.2809 47.5755 22.0408C47.9583 21.8102 48.3814 21.8429 48.7852 21.8982Z" fill="#D4C7EF"/>
<path d="M51.5672 35.2837C50.7763 35.1076 50.1717 34.1006 50.4091 33.2278C50.6667 32.2764 51.5372 31.7743 52.3994 32.04C53.375 32.3371 53.7907 33.0819 53.5449 34.0925C53.3318 35.0281 52.4487 35.5268 51.5672 35.2837Z" fill="#D4C7EF"/>
<path d="M40.9242 53.2718C40.7782 54.1558 39.7491 54.6983 38.9716 54.4699C38.1186 54.2207 37.5846 53.3591 37.8421 52.4078C38.0963 51.4696 38.9215 51.0389 39.772 51.2455C40.6317 51.4685 41.2019 52.4521 40.9242 53.2718Z" fill="#D4C7EF"/>
<path d="M18.17 45.1481C18.9827 45.3442 19.5252 46.2781 19.2777 47.1902C19.0302 48.1023 18.1538 48.5748 17.3008 48.3256C16.5108 48.0937 15.949 47.1825 16.1998 46.2574C16.4364 45.4403 17.406 44.8674 18.17 45.1481Z" fill="#D4C7EF"/>
<path d="M39.5916 16.842C38.7504 16.652 38.2179 15.6789 38.452 14.8192C38.6995 13.9071 39.4785 13.3937 40.4012 13.6341C41.3331 13.8911 41.7589 14.8068 41.5534 15.6604C41.3478 16.514 40.4001 17.107 39.5916 16.842Z" fill="#D4C7EF"/>
<path d="M16.9938 24.979C16.8512 25.85 15.8917 26.3837 15.048 26.151C14.2924 25.9426 13.7196 24.9164 13.9243 24.1185C14.145 23.3111 15.0675 22.7112 15.908 22.957C16.7291 23.2254 17.2883 24.0939 16.9938 24.979Z" fill="#D4C7EF"/>
<path d="M35.1289 13.1605C35.3034 12.2703 36.2368 11.7854 37.068 12.0147C37.8362 12.2265 38.4072 13.1542 38.179 14.0436C37.971 14.8546 36.9762 15.4205 36.2114 15.1956C35.4465 14.9707 34.8193 13.9994 35.1289 13.1605Z" fill="#D4C7EF"/>
<path d="M12.4104 27.4963C12.5362 26.6907 13.5477 26.0594 14.3629 26.2982C15.1278 26.5231 15.7114 27.4543 15.474 28.3272C15.2332 29.2131 14.4131 29.7292 13.5533 29.5061C12.681 29.2795 12.1511 28.3491 12.4104 27.4963Z" fill="#D4C7EF"/>
<path d="M44.8614 17.2729C44.6835 18.1762 43.7912 18.6584 42.9315 18.4353C42.097 18.2191 41.5964 17.2268 41.7919 16.4124C42.0067 15.5754 42.9981 15.0225 43.7377 15.2405C44.5815 15.4732 45.1651 16.4044 44.8614 17.2729Z" fill="#D4C7EF"/>
<path d="M23.8475 14.1388C24.7014 14.3322 25.1809 15.2487 24.9493 16.1512C24.7346 16.9883 23.8003 17.5289 22.9943 17.3066C22.2638 17.1052 21.6525 16.1243 21.8866 15.2645C22.1073 14.4571 22.9987 13.8206 23.8475 14.1388Z" fill="#D4C7EF"/>
<path d="M34.8913 53.1346C35.6881 53.3403 36.2339 54.2611 35.9738 55.1697C35.7271 56.026 34.8818 56.5351 34.0036 56.2789C33.2136 56.0471 32.6837 55.1167 32.9211 54.2438C33.1225 53.4591 34.0929 52.8304 34.8913 53.1346Z" fill="#D4C7EF"/>
<path d="M28.7375 12.2662C29.5921 12.4038 30.0759 13.4615 29.8997 14.2533C29.7042 15.0676 28.6902 15.6563 27.9597 15.4549C27.1538 15.2326 26.5928 14.2656 26.8109 13.4155C27.061 12.5461 27.9197 11.9846 28.7375 12.2662Z" fill="#D4C7EF"/>
<path d="M45.8015 51.3957C45.6556 52.2798 44.6491 52.7865 43.8683 52.5712C43.1378 52.3697 42.5366 51.3496 42.7379 50.5649C42.9426 49.767 43.8685 49.1541 44.6963 49.3964C45.5242 49.6387 46.0767 50.5333 45.8015 51.3957Z" fill="#D4C7EF"/>
<path d="M15.5373 20.67C15.6447 19.8313 16.7024 19.2827 17.4487 19.4745C18.2421 19.6933 18.8123 20.6769 18.5883 21.4974C18.3735 22.3345 17.4518 22.8786 16.6584 22.6598C15.8365 22.4471 15.2604 21.4339 15.5373 20.67Z" fill="#D4C7EF"/>
<path d="M45.0873 18.0215C45.2584 17.1443 46.2775 16.6411 47.0046 16.8556C47.735 17.0571 48.3329 18.0902 48.119 18.8715C47.9151 19.6136 47.0077 20.2596 46.1706 20.0008C45.368 19.7654 44.8314 18.8612 45.0873 18.0215Z" fill="#D4C7EF"/>
<path d="M12.7676 29.8356C13.6533 30.0098 14.0926 31.0833 13.9047 31.8157C13.736 32.5255 12.8404 33.2308 11.9714 32.9912C11.131 32.7454 10.6523 31.7731 10.8696 30.9787C11.0869 30.1844 11.9465 29.5671 12.7676 29.8356Z" fill="#D4C7EF"/>
<path d="M12.9873 38.4391C13.8789 38.643 14.3064 39.6572 14.1084 40.4288C13.9138 41.1874 13.076 41.8247 12.1945 41.5816C11.3256 41.342 10.8872 40.4228 11.0952 39.6119C11.3041 38.7452 12.1847 38.2037 12.9873 38.4391Z" fill="#D4C7EF"/>
<path d="M34.7644 12.3737C34.5522 13.2535 33.6439 13.7453 32.8631 13.53C32.0445 13.3042 31.5599 12.3023 31.7546 11.5437C31.9425 10.8112 32.8214 10.1713 33.6526 10.4005C34.4837 10.6297 34.9884 11.5532 34.7644 12.3737Z" fill="#D4C7EF"/>
<path d="M51.3583 26.5852C50.4768 26.3421 50.0552 25.3575 50.2591 24.6155C50.4999 23.7295 51.4333 23.2447 52.1789 23.4923C52.9748 23.7538 53.4853 24.4968 53.253 25.4551C53.0373 26.348 52.218 26.8083 51.3583 26.5852Z" fill="#D4C7EF"/>
<path d="M52.6276 40.7159C53.4705 41.0044 53.9139 41.7989 53.689 42.6752C53.4701 43.5811 52.5467 44.0267 51.7911 43.8183C51.0229 43.6065 50.4745 42.643 50.7111 41.8259C50.9183 41.0708 51.7368 40.4562 52.6276 40.7159Z" fill="#D4C7EF"/>
<path d="M52.0574 29.747C52.2881 28.9003 53.1401 28.365 53.9646 28.6204C54.805 28.8661 55.2635 29.7068 55.042 30.5701C54.8331 31.4368 53.9693 31.9128 53.1726 31.7071C52.3599 31.511 51.8552 30.5875 52.0574 29.747Z" fill="#D4C7EF"/>
<path d="M14.7697 43.5802C15.6974 43.9061 16.0442 44.6039 15.863 45.5203C15.7842 45.9327 15.5358 46.2703 15.1563 46.4878C14.7895 46.7087 14.3807 46.778 13.9995 46.6869C13.6057 46.5924 13.2875 46.3085 13.0717 45.9409C12.8433 45.5698 12.7551 45.1253 12.8876 44.7137C13.1754 43.8548 13.821 43.3886 14.7697 43.5802Z" fill="#D4C7EF"/>
<path d="M23.3661 51.8049C23.686 51.9771 24.047 52.1467 24.2402 52.5501C24.44 52.9273 24.519 53.3552 24.4184 53.7476C24.3143 54.1531 24.0533 54.4872 23.699 54.7116C23.3288 54.9457 22.9007 55.0377 22.517 54.9038C21.69 54.6058 21.2038 53.9255 21.4522 52.9576C21.7198 51.9671 22.4451 51.6629 23.3661 51.8049Z" fill="#D4C7EF"/>
<path d="M52.1197 46.1637C51.7958 47.1108 51.1108 47.4681 50.2318 47.2677C49.8381 47.1731 49.5005 46.9119 49.304 46.5216C49.1167 46.1479 49.0252 45.7165 49.1292 45.311C49.2492 44.896 49.5102 44.5618 49.8896 44.3443C50.2531 44.1365 50.6687 44.041 51.049 44.1879C51.8693 44.5121 52.3118 45.1524 52.1197 46.1637Z" fill="#D4C7EF"/>
<path d="M24.6796 54.4639C24.8264 54.1543 24.996 53.8089 25.3628 53.5879C25.7456 53.3574 26.1511 53.3011 26.5482 53.3826C27.3046 53.5352 27.8832 54.5911 27.6441 55.3654C27.3655 56.2409 26.6537 56.7029 25.7595 56.4563C24.8998 56.2332 24.4883 55.4195 24.6796 54.4639Z" fill="#D4C7EF"/>
<path d="M20.1299 17.9592C19.822 18.8966 19.0816 19.3647 18.2319 19.1023C17.3067 18.8192 16.9607 18.0655 17.1512 17.1657C17.2292 16.8091 17.4365 16.4741 17.7588 16.2689C18.145 16.0253 18.6084 15.901 19.0298 16.0453C19.4295 16.1695 19.7603 16.4568 19.982 16.854C20.1693 17.2278 20.1542 17.6018 20.1299 17.9592Z" fill="#D4C7EF"/>
<path d="M55.2617 39.1736C54.9672 40.0587 54.2394 40.5302 53.3831 40.294C52.5393 40.0613 52.0808 39.2206 52.3182 38.3478C52.5363 37.4977 53.375 37.0147 54.165 37.2465C55.0121 37.4662 55.4202 38.293 55.2617 39.1736Z" fill="#D4C7EF"/>
<path d="M19.9632 50.1942C20.8028 50.4958 21.2538 51.2083 21.0474 52.1177C20.8578 52.9618 20.0284 53.4613 19.2065 53.2486C18.4475 53.0533 17.8589 52.2468 18.1098 51.3216C18.3766 50.3869 19.096 50.0531 19.9632 50.1942Z" fill="#D4C7EF"/>
<path d="M36.361 55.9207C36.5824 55.0575 37.4236 54.6172 38.1825 54.8125C38.9919 55.0217 39.5008 55.8763 39.27 56.7229C39.0259 57.6219 38.3015 58.0804 37.4199 57.8373C36.6013 57.6115 36.1378 56.8955 36.361 55.9207Z" fill="#D4C7EF"/>
<path d="M9.38593 34.4489C9.64268 33.5534 10.4259 33.1812 11.2411 33.42C12.1789 33.7066 12.4376 34.5902 12.269 35.3C12.1742 35.722 11.888 36.0492 11.5086 36.2667C11.1577 36.478 10.7698 36.4131 10.3937 36.4074C9.59356 36.0047 9.13677 35.4726 9.38593 34.4489Z" fill="#D4C7EF"/>
<path d="M51.3573 20.4928C51.1165 21.3787 50.3106 21.7867 49.524 21.5418C49.1747 21.4314 48.8582 21.2461 48.6642 20.8985C48.4425 20.5013 48.3576 20.0437 48.5028 19.6356C48.8292 18.7313 49.4613 18.3174 50.3428 18.5605C51.1488 18.7828 51.6241 19.5581 51.3573 20.4928Z" fill="#D4C7EF"/>
<path d="M47.6883 48.6669C47.9291 47.781 48.7383 47.36 49.5216 47.618C49.8709 47.7283 50.1874 47.9136 50.3814 48.2612C50.6031 48.6585 50.688 49.1161 50.5428 49.5242C50.2197 50.4154 49.5969 50.8459 48.7028 50.5993C47.906 50.3936 47.4215 49.6017 47.6883 48.6669Z" fill="#D4C7EF"/>
<path d="M29.1532 58.0504C28.3245 57.8639 27.8786 57.0266 28.0967 56.1765C28.3283 55.274 29.1753 54.8634 29.9183 55.0683C30.7117 55.2871 31.1736 56.1147 30.9747 56.9422C30.7767 57.7138 30.012 58.3292 29.1532 58.0504Z" fill="#D4C7EF"/>
<path d="M23.576 11.7811C23.6783 11.067 24.6478 10.4941 25.3841 10.7252C26.0734 10.9293 26.6167 11.8074 26.4087 12.6183C26.214 13.3769 25.3242 13.9018 24.572 13.6803C23.9079 13.4832 23.2806 12.5119 23.576 11.7811Z" fill="#D4C7EF"/>
<path d="M55.7175 33.8234C56.4807 33.9498 56.9787 34.8994 56.784 35.658C56.5961 36.3905 55.7248 36.9484 54.9818 36.7435C54.2387 36.5386 53.7265 35.6971 53.9346 34.8862C54.1401 34.0326 55.0165 33.56 55.7175 33.8234Z" fill="#D4C7EF"/>
<path d="M44.1407 54.873C43.9511 55.7171 43.1603 56.1712 42.3451 55.9324C41.5047 55.6866 41.1184 54.8799 41.3424 54.0593C41.563 53.2519 42.2782 52.7769 43.122 53.0096C43.9246 53.2449 44.3966 54.0333 44.1407 54.873Z" fill="#D4C7EF"/>
<path d="M14.8143 49.7126C14.9066 49.0378 15.8518 48.4022 16.604 48.6236C17.2807 48.8242 17.8266 49.745 17.6353 50.4905C17.444 51.2361 16.5164 51.7505 15.8582 51.583C15.0992 51.3877 14.555 50.3553 14.8143 49.7126Z" fill="#D4C7EF"/>
<path d="M19.8055 15.5449C19.175 15.4271 18.5687 14.5316 18.796 13.698C18.9999 12.956 19.8486 12.4337 20.579 12.6352C21.3346 12.8435 21.7814 13.8351 21.5977 14.4986C21.4005 15.2145 20.5191 15.8117 19.8055 15.5449Z" fill="#D4C7EF"/>
<path d="M29.5383 11.7728C28.7726 11.6036 28.3502 10.6749 28.5347 9.9555C28.7394 9.15766 29.657 8.68244 30.3177 8.89266C30.9818 9.08981 31.5192 9.93826 31.2986 10.7457C31.1115 11.4224 30.3275 12.0604 29.5383 11.7728Z" fill="#D4C7EF"/>
<path d="M12.4808 21.4937C13.2968 21.6767 13.6848 22.582 13.5128 23.3048C13.2981 24.1419 12.4318 24.5752 11.7643 24.3911C11.0968 24.2071 10.5401 23.3813 10.7482 22.5704C10.9269 21.8214 11.7159 21.2687 12.4808 21.4937Z" fill="#D4C7EF"/>
<path d="M45.1501 11.8907C45.9351 12.0371 46.3659 13.0383 46.1981 13.6922C46.006 14.4935 45.1078 14.9461 44.4462 14.7916C43.8098 14.6441 43.1843 13.7714 43.3923 12.9605C43.5836 12.2149 44.4423 11.6535 45.1501 11.8907Z" fill="#D4C7EF"/>
<path d="M40.2018 11.3104C40.3419 10.6067 41.204 10.0322 41.9999 10.2937C42.6607 10.5039 43.1662 11.3716 42.9363 12.1625C42.7165 12.9141 41.8275 13.3832 41.1542 13.1695C40.4901 12.9724 39.9275 12.117 40.2018 11.3104Z" fill="#D4C7EF"/>
<path d="M34.2475 58.587C34.0973 59.3298 33.2613 59.8555 32.4964 59.6306C31.7156 59.4153 31.3117 58.5196 31.5088 57.8037C31.7135 57.0059 32.5992 56.5499 33.2633 56.747C33.8929 56.9206 34.5093 57.7769 34.2475 58.587Z" fill="#D4C7EF"/>
<path d="M56.5039 27.0799C56.342 27.7635 55.521 28.3353 54.731 28.1035C53.9913 27.8855 53.5429 27.0056 53.7467 26.2635C53.9674 25.4561 54.8715 25.0332 55.5322 25.2434C56.2182 25.4606 56.7338 26.289 56.5039 27.0799Z" fill="#D4C7EF"/>
<path d="M9.18891 26.0197C9.41292 25.1992 10.197 24.7712 10.9492 24.9926C11.7518 25.228 12.16 26.0548 11.9335 26.8326C11.7136 27.5843 11.0362 28.0697 10.1924 27.837C9.43348 27.6417 8.95483 26.8795 9.18891 26.0197Z" fill="#D4C7EF"/>
<path d="M47.1695 53.9997C46.4576 53.8314 45.9319 53.0422 46.15 52.1921C46.3581 51.3812 47.1707 50.947 47.9011 51.1485C48.7071 51.3707 49.1085 52.2237 48.9206 52.9561C48.7419 53.7051 47.9847 54.2386 47.1695 53.9997Z" fill="#D4C7EF"/>
<path d="M9.66527 43.0828C9.91111 42.2823 10.654 41.857 11.4189 42.0819C12.2467 42.3242 12.5633 43.1398 12.4031 43.9219C12.3217 44.2916 12.0422 44.5926 11.7106 44.7813C11.3665 44.9665 10.9887 45.0724 10.6117 44.9124C9.90479 44.6194 9.45302 43.9626 9.66527 43.0828Z" fill="#D4C7EF"/>
<path d="M38.5811 8.69265C39.3737 8.96724 39.7759 9.76441 39.5561 10.5161C39.3136 11.3035 38.6681 11.7697 37.8369 11.5405C37.0561 11.3251 36.6312 10.5637 36.8426 9.73975C37.0448 8.8992 37.8566 8.52085 38.5811 8.69265Z" fill="#D4C7EF"/>
<path d="M54.6754 22.0661C54.464 22.8901 53.601 23.3103 52.9369 23.1132C52.2098 22.8987 51.7446 22.0841 51.9233 21.3351C52.0953 20.6123 52.8432 20.0623 53.6525 20.2715C54.3989 20.4633 54.8423 21.2578 54.6754 22.0661Z" fill="#D4C7EF"/>
<path d="M15.0503 19.8355C14.8044 20.636 14.1085 21.0883 13.3185 20.8564C12.5159 20.621 12.1161 19.8666 12.3527 19.0495C12.6128 18.1409 13.2576 17.9406 14.066 17.9955C14.794 18.3643 15.2382 18.8929 15.0503 19.8355Z" fill="#D4C7EF"/>
<path d="M8.87976 39.7852C8.10903 39.5306 7.70005 38.7596 7.8821 37.9975C7.96936 37.6575 8.16659 37.3617 8.47299 37.1661C8.82723 36.9417 9.22683 36.8559 9.60799 36.947C9.95137 37.0277 10.2478 37.2915 10.4451 37.626C10.6425 37.9605 10.7315 38.3492 10.6216 38.725C10.4018 39.4767 9.70504 39.9848 8.87976 39.7852Z" fill="#D4C7EF"/>
<path d="M48.5051 13.5302C49.2104 13.7246 49.6941 14.5723 49.5154 15.3213C49.3241 16.0668 48.5233 16.5602 47.8054 16.3622C47.0968 16.1808 46.5661 15.3062 46.8044 14.5877C47.0796 13.7253 47.6312 13.4152 48.5051 13.5302Z" fill="#D4C7EF"/>
<path d="M57.2734 30.3872C57.9535 30.5747 58.475 31.4327 58.2778 32.1486C58.1746 32.4983 57.9581 32.8167 57.6357 33.0219C57.2974 33.2367 56.9112 33.2703 56.5553 33.1861C55.8559 33.0213 55.373 32.1178 55.5794 31.4185C55.8261 30.5622 56.5262 30.2511 57.2734 30.3872Z" fill="#D4C7EF"/>
<path d="M7.68421 29.414C7.85702 28.6354 8.70739 28.2117 9.37484 28.3958C10.1305 28.6042 10.5445 29.4606 10.37 30.1407C10.1661 30.8828 9.43159 31.3804 8.6508 31.1651C7.95816 30.9741 7.48286 30.1988 7.68421 29.414Z" fill="#D4C7EF"/>
<path d="M11.4854 48.2344C11.6574 47.5115 12.433 47.0112 13.1475 47.2222C13.4749 47.3125 13.7721 47.5205 13.9728 47.842C14.192 48.1965 14.2273 48.5844 14.1174 48.9602C13.9043 49.6857 13.2899 50.1885 12.4679 49.9758C11.6871 49.7605 11.3504 49.0234 11.4854 48.2344Z" fill="#D4C7EF"/>
<path d="M40.8026 59.3163C40.1251 59.1715 39.6565 58.37 39.8545 57.5984C40.0886 56.7386 40.8584 56.4187 41.5132 56.5993C42.1933 56.7868 42.6828 57.454 42.4613 58.3173C42.2793 59.0793 41.5196 59.5701 40.8026 59.3163Z" fill="#D4C7EF"/>
<path d="M54.2676 43.521C54.3632 42.8331 55.2085 42.324 55.9012 42.515C56.6442 42.7199 57.0397 43.5432 56.8686 44.2102C56.6874 44.9165 55.9562 45.4011 55.2224 45.2128C54.539 45.0383 54.0201 44.223 54.2676 43.521Z" fill="#D4C7EF"/>
<path d="M13.9876 15.6211C14.1344 14.8913 14.8496 14.4163 15.6085 14.6116C16.3012 14.8026 16.7446 15.5971 16.5667 16.2903C16.3779 17.0785 15.5972 17.4935 14.9046 17.3024C14.1901 17.0914 13.7677 16.3727 13.9876 15.6211Z" fill="#D4C7EF"/>
<path d="M36.1381 8.85922C36.0425 9.54711 35.188 10.0397 34.4861 9.83213C33.759 9.61762 33.3668 8.78121 33.5539 8.10456C33.7343 7.45407 34.4059 6.93903 35.1993 7.15782C35.9045 7.35231 36.3857 8.15723 36.1381 8.85922Z" fill="#D4C7EF"/>
<path d="M55.3068 47.6169C55.0929 48.3981 54.4272 48.7327 53.6363 48.5567C52.9999 48.4092 52.5389 47.5258 52.736 46.8099C52.8996 46.2248 53.7298 45.6695 54.4065 45.8701C54.9665 46.0525 55.6047 46.9288 55.3068 47.6169Z" fill="#D4C7EF"/>
<path d="M37.5177 60.189C37.4507 60.8708 36.476 61.3583 35.8749 61.1785C35.2864 61.0022 34.7557 60.1276 34.9394 59.464C35.1131 58.8397 35.9021 58.287 36.5822 58.4746C37.2244 58.6517 37.7862 59.5629 37.5177 60.189Z" fill="#D4C7EF"/>
<path d="M25.9832 58.8428C25.8776 59.5699 24.9735 59.9928 24.3564 59.8226C23.7301 59.6359 23.2455 58.844 23.4528 58.0889C23.6432 57.3992 24.4088 56.9381 25.0981 57.1422C25.6774 57.3019 26.2728 58.0823 25.9832 58.8428Z" fill="#D4C7EF"/>
<path d="M21.6826 55.528C22.4517 55.6841 22.8195 56.4578 22.6316 57.1902C22.473 57.8607 21.7604 58.3784 21.0173 58.1735C20.3373 57.986 19.8914 57.1488 20.0592 56.4948C20.2504 55.7493 21.0412 55.2951 21.6826 55.528Z" fill="#D4C7EF"/>
<path d="M47.3571 56.4743C47.2716 57.123 46.4011 57.6252 45.7211 57.4376C45.0788 57.2605 44.5959 56.3571 44.8049 55.7004C45.0071 55.07 45.7542 54.5758 46.4435 54.7799C47.0446 54.9596 47.6307 55.7235 47.3571 56.4743Z" fill="#D4C7EF"/>
<path d="M22.124 9.29396C22.7822 9.46148 23.2256 10.256 23.0411 10.9753C22.8632 11.6685 22.0473 12.1158 21.4176 11.9421C20.8383 11.7824 20.2941 10.9601 20.498 10.218C20.6818 9.55444 21.4666 9.07065 22.124 9.29396Z" fill="#D4C7EF"/>
<path d="M25.2864 8.37344C25.4113 7.62364 26.2676 7.22955 26.888 7.38665C27.5806 7.57766 27.9989 8.36522 27.8495 9.05229C27.717 9.67397 26.8834 10.2424 26.2193 10.0452C25.5737 9.88117 25.0497 8.98041 25.2864 8.37344Z" fill="#D4C7EF"/>
<path d="M57.4856 39.0726C58.148 39.1712 58.5906 40.0215 58.3993 40.7671C58.2214 41.4603 57.4214 41.8979 56.801 41.7408C56.2058 41.5906 55.6524 40.7518 55.8529 40.0228C56.04 39.3462 56.8668 38.8039 57.4856 39.0726Z" fill="#D4C7EF"/>
<path d="M18.3369 53.9051C19.0463 54.0307 19.4435 54.9526 19.2858 55.5673C19.1281 56.182 18.3264 56.7312 17.6623 56.5341C16.9604 56.3265 16.5489 55.5128 16.7293 54.8623C16.9038 54.1822 17.6543 53.6749 18.3369 53.9051Z" fill="#D4C7EF"/>
<path d="M51.1906 17.884C50.4342 17.7314 50.089 16.922 50.2635 16.2418C50.4515 15.5094 51.1247 15.0929 51.824 15.2577C52.5108 15.4191 52.9735 16.1909 52.7982 16.9268C52.601 17.6427 51.8161 18.1265 51.1906 17.884Z" fill="#D4C7EF"/>
<path d="M26.6945 59.6971C26.7699 59.0877 27.695 58.5305 28.3179 58.7304C28.9661 58.9371 29.3919 59.8528 29.235 60.4117C29.042 61.0588 28.2949 61.553 27.5989 61.375C27.0574 61.2257 26.4503 60.386 26.6945 59.6971Z" fill="#D4C7EF"/>
<path d="M8.71838 33.6346C8.57241 34.3086 7.75311 34.7689 7.09237 34.5586C6.41904 34.3449 6.01594 33.6036 6.18121 32.9069C6.31292 32.341 7.07091 31.7518 7.80133 31.9532C8.4436 32.1303 8.94495 33.0669 8.71838 33.6346Z" fill="#D4C7EF"/>
<path d="M53.719 51.0723C53.5621 51.8413 52.7319 52.1866 52.1308 52.0068C51.4289 51.7992 51.0409 51.104 51.2163 50.3681C51.3614 49.7499 52.0556 49.1991 52.802 49.3909C53.4442 49.568 53.9531 50.4226 53.719 51.0723Z" fill="#D4C7EF"/>
<path d="M59.0323 35.6198C59.7652 35.864 60.1129 36.506 59.9501 37.2454C59.7882 37.929 59.0638 38.3874 58.3586 38.193C57.7415 38.0228 57.2628 37.2606 57.4566 36.5578C57.6639 35.8026 58.3455 35.4584 59.0323 35.6198Z" fill="#D4C7EF"/>
<path d="M57.9162 23.52C57.6519 24.2874 57.0936 24.6236 56.3691 24.4518C55.6857 24.2774 55.2759 23.5621 55.4479 22.8393C55.6224 22.1592 56.3468 21.7007 57.0202 21.9144C57.7472 22.1289 58.0504 22.7868 57.9162 23.52Z" fill="#D4C7EF"/>
<path d="M30.2678 6.51209C30.4515 5.84851 31.1726 5.40315 31.8149 5.58027C32.4605 5.74431 32.9257 6.55884 32.7168 7.21547C32.481 7.97673 31.8783 8.32869 31.1731 8.13421C30.4426 7.93278 30.126 7.32729 30.2678 6.51209Z" fill="#D4C7EF"/>
<path d="M17.1485 11.1849C17.7966 11.3917 18.2249 12.14 18.063 12.8236C17.9757 13.1637 17.7474 13.4228 17.4603 13.5957C17.1573 13.7783 16.8181 13.8388 16.5033 13.752C16.2011 13.6686 15.9231 13.4379 15.7443 13.1365C15.5562 12.8185 15.5015 12.4534 15.5888 12.1133C15.6693 11.7994 15.8918 11.5106 16.1948 11.3281C16.4752 11.1813 16.884 11.112 17.1485 11.1849Z" fill="#D4C7EF"/>
<path d="M57.2562 27.9316C57.3737 27.6839 57.4887 27.3935 57.7758 27.2206C58.0948 27.0284 58.4566 26.9321 58.8126 27.0163C59.1274 27.1031 59.3986 27.36 59.5901 27.6649C59.7689 27.9663 59.8017 28.3114 59.7086 28.6219C59.5047 29.3639 58.8575 29.7316 58.18 29.5868C57.5688 29.4463 57.0859 28.7529 57.2562 27.9316Z" fill="#D4C7EF"/>
<path d="M14.9592 52.3014C15.6543 52.5351 16.0465 53.1615 15.8712 53.8974C15.6891 54.6594 15.0671 55.0341 14.3585 54.8527C13.5995 54.6574 13.2452 54.0415 13.4339 53.2533C13.6093 52.5173 14.2086 52.1785 14.9592 52.3014Z" fill="#D4C7EF"/>
<path d="M7.98915 40.5759C8.63395 40.7957 9.05382 41.4717 8.91038 42.1884C8.78708 42.8267 7.98626 43.3201 7.35994 43.1333C7.06105 43.0369 6.79825 42.8524 6.60679 42.5475C6.40609 42.2261 6.37664 41.8678 6.43871 41.5208C6.55866 40.8957 7.38131 40.4223 7.98915 40.5759Z" fill="#D4C7EF"/>
<path d="M51.2024 52.9972C51.8766 53.1551 52.2587 53.8207 52.0741 54.54C51.8996 55.2202 51.2423 55.6271 50.5656 55.4265C49.8889 55.2259 49.5413 54.5838 49.7191 53.8906C49.9071 53.1581 50.5005 52.7896 51.2024 52.9972Z" fill="#D4C7EF"/>
<path d="M10.6205 47.2956C10.4519 48.0054 9.86429 48.4035 9.13051 48.2152C8.44711 48.0407 8.11034 47.3036 8.25547 46.6854C8.43333 45.9922 9.08473 45.5556 9.77066 45.7728C10.4885 45.9708 10.8084 46.5632 10.6205 47.2956Z" fill="#D4C7EF"/>
<path d="M32.4674 62.0034C32.2887 62.7524 31.6961 63.0651 30.9908 62.8706C30.3234 62.6866 29.9531 62.0803 30.1284 61.3444C30.2937 60.6477 30.9887 60.2512 31.6276 60.4414C32.3136 60.6585 32.6764 61.3468 32.4674 62.0034Z" fill="#D4C7EF"/>
<path d="M55.19 17.0122C55.8642 17.1701 56.1866 17.8053 56.018 18.515C55.8628 19.1725 55.1988 19.6055 54.544 19.425C53.9269 19.2548 53.5246 18.4576 53.6882 17.8725C53.8711 17.2647 54.5267 16.7593 55.19 17.0122Z" fill="#D4C7EF"/>
<path d="M43.4484 7.06592C44.0067 7.14986 44.4946 7.92863 44.289 8.57217C44.0734 9.25496 43.4707 9.60692 42.7965 9.44901C42.2105 9.31541 41.7956 8.51477 41.9785 7.90699C42.1682 7.27305 42.8036 6.84609 43.4484 7.06592Z" fill="#D4C7EF"/>
<path d="M6.2018 35.5595C6.76346 35.6303 7.21945 36.4283 7.03571 37.0919C6.88805 37.6674 6.14431 38.1485 5.54654 37.9556C4.93617 37.7593 4.54484 37.0772 4.72858 36.4136C4.92156 35.7666 5.56961 35.3431 6.2018 35.5595Z" fill="#D4C7EF"/>
<path d="M46.6775 8.67067C47.355 8.81549 47.67 9.53256 47.5248 10.1508C47.3696 10.8082 46.6267 11.2335 46.0415 11.0441C45.4093 10.8278 45.0617 10.1857 45.1917 9.52135C45.3209 8.91275 46.068 8.41854 46.6775 8.67067Z" fill="#D4C7EF"/>
<path d="M9.06787 20.1323C9.72356 20.2571 10.0544 20.9646 9.91855 21.5993C9.75328 22.296 9.00197 22.649 8.48228 22.5197C7.89963 22.373 7.45034 21.5489 7.61059 20.9769C7.7549 20.4145 8.45833 19.8802 9.06787 20.1323Z" fill="#D4C7EF"/>
<path d="M44.8439 58.3861C45.4484 58.5528 45.8171 59.2707 45.6778 59.9185C45.5487 60.5271 44.7394 60.9482 44.192 60.7692C43.5817 60.5729 43.2281 59.9012 43.364 59.2664C43.5058 58.6613 44.3032 58.181 44.8439 58.3861Z" fill="#D4C7EF"/>
<path d="M39.9003 60.2579C40.509 60.3557 40.907 61.2218 40.7342 61.7903C40.5446 62.4242 39.9225 62.7989 39.2862 62.6514C38.7665 62.5221 38.2467 61.7625 38.4522 61.119C38.6419 60.4851 39.2832 60.0877 39.9003 60.2579Z" fill="#D4C7EF"/>
<path d="M10.6246 16.6403C11.3147 16.7886 11.6162 17.558 11.4778 18.15C11.3562 18.6767 10.6872 19.2344 10.039 19.0277C9.41605 18.8279 9.05243 18.1954 9.1665 17.5406C9.27638 16.9547 10.0906 16.409 10.6246 16.6403Z" fill="#D4C7EF"/>
<path d="M7.52709 23.6148C8.09545 23.6595 8.52377 24.6179 8.36099 25.1472C8.20492 25.6503 7.54263 26.1819 6.88189 25.9717C6.3093 25.7858 5.87936 25.149 6.08241 24.4628C6.2821 23.7896 6.85963 23.4307 7.52709 23.6148Z" fill="#D4C7EF"/>
<path d="M61.4061 33.7256C61.2795 34.3769 60.5466 34.763 59.9799 34.6067C59.3629 34.4365 58.9967 33.7614 59.1485 33.117C59.2836 32.5381 59.9669 32.0823 60.5873 32.2394C61.1482 32.366 61.6008 33.1771 61.4061 33.7256Z" fill="#D4C7EF"/>
<path d="M40.0993 5.45608C40.676 5.57312 41.0791 6.3145 40.9147 6.95538C40.7838 7.46548 40.0963 7.99013 39.4574 7.79993C38.9537 7.66102 38.4784 6.88572 38.6487 6.27446C38.793 5.71205 39.5242 5.22746 40.0993 5.45608Z" fill="#D4C7EF"/>
<path d="M12.402 52.2824C12.1578 52.9714 11.6726 53.2857 10.9733 53.1209C10.3621 52.9803 10.0026 52.279 10.1385 51.6442C10.2543 51.088 11.0677 50.598 11.5991 50.7866C12.1969 50.9795 12.5631 51.6546 12.402 52.2824Z" fill="#D4C7EF"/>
<path d="M49.4259 12.6217C48.8777 12.4985 48.4385 11.8452 48.5878 11.1582C48.7372 10.4711 49.5422 10.1189 50.0552 10.2744C50.6529 10.4672 51.0065 11.1389 50.8547 11.7833C50.6927 12.4669 49.9162 12.8129 49.4259 12.6217Z" fill="#D4C7EF"/>
<path d="M5.97201 26.9952C6.60421 27.2116 6.93929 27.8502 6.78744 28.4945C6.65573 29.0604 5.87757 29.518 5.34612 29.3295C4.7517 29.1235 4.35954 28.4972 4.55252 27.8502C4.76564 27.1247 5.23405 26.8757 5.97201 26.9952Z" fill="#D4C7EF"/>
<path d="M22.0825 6.77564C22.2754 6.12863 22.8404 5.76624 23.5112 5.93723C24.1568 6.10127 24.4642 6.90029 24.33 7.42346C24.1991 7.93355 23.4864 8.45126 22.8886 8.2584C22.2531 8.05512 21.9314 7.36421 22.0825 6.77564Z" fill="#D4C7EF"/>
<path d="M12.1839 13.191C12.759 13.4196 13.1402 13.9309 12.9808 14.6572C12.855 15.2527 12.1633 15.6361 11.5966 15.4799C11.0299 15.3236 10.6293 14.6249 10.7929 14.0398C11.0086 13.357 11.6289 13.094 12.1839 13.191Z" fill="#D4C7EF"/>
<path d="M29.1981 5.53085C28.9438 6.25901 28.5132 6.51838 27.8264 6.35699C27.19 6.20951 26.8835 5.56479 27.032 4.93351C27.1704 4.34147 27.7933 3.91102 28.4036 4.10736C29.0425 4.29756 29.3415 4.81415 29.1981 5.53085Z" fill="#D4C7EF"/>
<path d="M50.4133 58.0174C50.2991 58.252 50.1909 58.5162 49.9357 58.6699C49.6646 58.8332 49.338 58.8972 49.045 58.8304C48.7427 58.7471 48.4934 58.5102 48.3271 58.2123C48.1793 57.9475 48.1834 57.6685 48.238 57.4035C48.3478 56.8175 49.0463 56.4079 49.613 56.5642C50.1923 56.724 50.571 57.4026 50.4133 58.0174Z" fill="#D4C7EF"/>
<path d="M34.9776 62.2055C35.6518 62.3634 35.8929 63.1581 35.7502 63.609C35.6034 64.1286 35.0586 64.6226 34.3601 64.402C33.6238 64.1709 33.4491 63.5906 33.6001 63.002C33.7511 62.4134 34.2598 62.0075 34.9776 62.2055Z" fill="#D4C7EF"/>
<path d="M19.4879 9.26723C19.2437 9.95615 18.7526 10.2409 18.1221 10.123C17.8258 10.0693 17.6016 9.8394 17.4412 9.57109C17.2716 9.28623 17.2354 8.95415 17.3185 8.68296C17.3923 8.39522 17.5921 8.1422 17.8632 7.97889C18.1343 7.81558 18.4315 7.81351 18.6994 7.87337C19.2728 8.00349 19.6263 8.67518 19.4879 9.26723Z" fill="#D4C7EF"/>
<path d="M36.6863 3.88467C37.3479 4.0391 37.6133 4.68648 37.4657 5.26197C37.318 5.83746 36.8404 6.27995 36.1444 6.10201C35.5365 5.94839 35.1729 5.31593 35.334 4.68812C35.4817 4.11263 36.1163 3.74146 36.6863 3.88467Z" fill="#D4C7EF"/>
<path d="M59.205 44.4064C59.8406 44.6097 60.1395 45.1263 59.981 45.7968C59.8325 46.4281 59.2457 46.7705 58.6379 46.6168C58.0552 46.4702 57.6949 45.8246 57.8493 45.223C58.023 44.5986 58.5846 44.2493 59.205 44.4064Z" fill="#D4C7EF"/>
<path d="M22.1001 61.6792C22.2645 61.0383 22.816 60.7283 23.4306 60.8557C23.941 60.9685 24.3794 61.6776 24.2065 62.2461C24.0362 62.8574 23.4276 63.1797 22.8953 63.0469C22.3253 62.9037 21.902 62.2408 22.1001 61.6792Z" fill="#D4C7EF"/>
<path d="M57.6625 47.7903C58.2108 47.9135 58.6197 48.4745 58.4292 49.1642C58.2422 49.8408 57.6915 50.0951 57.1088 49.9484C56.5228 49.8148 56.1592 49.1824 56.301 48.5773C56.4553 47.9756 57.1504 47.5791 57.6625 47.7903Z" fill="#D4C7EF"/>
<path d="M60.3248 23.7501C60.8613 23.814 61.251 24.6077 61.0949 25.1109C60.8994 25.7152 60.3857 26.0356 59.7837 25.9117C59.2573 25.8085 58.8542 25.0671 59.0077 24.5213C59.1613 23.9754 59.7875 23.5319 60.3248 23.7501Z" fill="#D4C7EF"/>
<path d="M18.7669 60.0598C18.8742 59.4311 19.4988 59.0992 20.0655 59.2555C20.5944 59.4014 21.0134 59.923 20.8356 60.6163C20.6711 61.2571 20.1574 61.5776 19.5403 61.4074C18.8569 61.233 18.5915 60.5856 18.7669 60.0598Z" fill="#D4C7EF"/>
<path d="M53.3582 12.0115C53.8787 12.085 54.2725 12.8099 54.1123 13.3819C53.9487 13.967 53.4056 14.3494 52.8137 14.1862C52.2218 14.0229 51.9178 13.4209 52.0595 12.8158C52.1694 12.2299 52.8838 11.8107 53.3582 12.0115Z" fill="#D4C7EF"/>
<path d="M61.5218 42.3144C61.4404 42.8942 60.7176 43.241 60.2047 43.0856C59.7043 42.9336 59.2769 42.3395 59.4631 41.7187C59.6427 41.124 60.1883 40.7843 60.7802 40.9475C61.3343 41.1003 61.6728 41.7258 61.5218 42.3144Z" fill="#D4C7EF"/>
<path d="M6.40056 44.2972C6.95467 44.4501 7.28975 45.0886 7.12614 45.6737C6.96253 46.2588 6.39842 46.5654 5.79058 46.4118C5.22052 46.2686 4.93329 45.6012 5.07424 45.0519C5.19841 44.5679 5.84139 44.059 6.40056 44.2972Z" fill="#D4C7EF"/>
<path d="M58.5081 18.7956C59.0253 18.8822 59.4141 19.5216 59.2597 20.1232C59.1146 20.7414 58.4178 21.0394 57.9334 20.8778C57.3608 20.6919 57.0685 20.1492 57.2011 19.5275C57.3135 18.9843 58.0245 18.5782 58.5081 18.7956Z" fill="#D4C7EF"/>
<path d="M56.8163 52.6127C56.7165 53.1594 56.1289 53.5575 55.5462 53.4108C54.951 53.2607 54.6738 52.554 54.8139 52.0605C54.9809 51.4623 55.5231 51.1357 56.0966 51.2658C56.6414 51.4021 57.0068 52.133 56.8163 52.6127Z" fill="#D4C7EF"/>
<path d="M4.34394 30.6076C4.96102 30.7778 5.23144 31.3005 5.11149 31.9257C4.9949 32.5377 4.28219 32.8453 3.81624 32.7168C3.3125 32.5779 2.88172 31.997 3.05204 31.3857C3.25762 30.7422 3.73946 30.4409 4.34394 30.6076Z" fill="#D4C7EF"/>
<path d="M17.4419 59.0222C17.2783 59.6072 16.7302 59.9042 16.1349 59.7541C15.6438 59.6186 15.2382 59.0446 15.4186 58.3941C15.5721 57.8483 16.1211 57.4955 16.7256 57.6622C17.2453 57.7915 17.6459 58.4902 17.4419 59.0222Z" fill="#D4C7EF"/>
<path d="M4.57626 39.2146C5.05564 39.2908 5.47887 39.9537 5.33121 40.5292C5.1802 41.1177 4.49268 41.4323 4.04267 41.2942C3.52046 41.1222 3.1367 40.5682 3.29107 39.9665C3.45804 39.3684 4.0381 39.0522 4.57626 39.2146Z" fill="#D4C7EF"/>
<path d="M25.3862 63.2717C25.4659 62.8035 26.0543 62.3496 26.6244 62.4928C27.2323 62.6464 27.4993 63.3923 27.376 63.8204C27.2166 64.3366 26.7045 64.7556 26.1252 64.5959C25.5334 64.4326 25.2487 63.8079 25.3862 63.2717Z" fill="#D4C7EF"/>
<path d="M60.8346 29.6466C61.0393 29.0589 61.4926 28.7637 62.1038 28.9043C62.7024 29.0414 62.9737 29.7184 62.8336 30.2119C62.6935 30.7055 62.1781 31.1375 61.5677 30.9412C60.9699 30.7483 60.7306 30.2622 60.8346 29.6466Z" fill="#D4C7EF"/>
<path d="M32.8817 4.41798C32.2898 4.25475 31.9262 3.62229 32.0571 3.1122C32.188 2.60211 32.8293 2.20477 33.3204 2.34022C33.7864 2.46872 34.2054 3.20049 34.0594 3.6644C33.9764 3.93559 33.7774 4.13282 33.5508 4.28039C33.3241 4.42796 33.0488 4.45005 32.8817 4.41798Z" fill="#D4C7EF"/>
<path d="M44.8389 3.69611C45.3737 3.8716 45.7097 4.45441 45.5435 4.99679C45.3707 5.56534 44.9107 5.88663 44.3154 5.73648C43.7202 5.58633 43.4733 4.97205 43.5982 4.43233C43.7451 3.91263 44.3193 3.56679 44.8389 3.69611Z" fill="#D4C7EF"/>
<path d="M8.89585 50.6013C8.67515 51.1987 8.26971 51.465 7.66775 51.341C7.1447 51.2247 6.80627 50.5992 6.9405 50.0761C7.0781 49.5398 7.68417 49.1748 8.2005 49.3172C8.70089 49.4692 9.03344 50.065 8.89585 50.6013Z" fill="#D4C7EF"/>
<path d="M5.68182 18.6664C6.16961 18.8149 6.52652 19.4735 6.40235 19.9574C6.28153 20.4283 5.59571 20.8414 5.1457 20.7033C4.67975 20.5748 4.30436 19.883 4.44448 19.3895C4.572 18.8925 5.19403 18.5178 5.68182 18.6664Z" fill="#D4C7EF"/>
<path d="M13.7196 9.83322C14.2385 10.0183 14.5945 10.5226 14.4469 11.0981C14.3152 11.664 13.7855 11.9941 13.2188 11.8378C12.6772 11.6885 12.3615 11.2373 12.4756 10.5825C12.5939 10.069 13.2125 9.70738 13.7196 9.83322Z" fill="#D4C7EF"/>
<path d="M61.816 39.5386C61.2963 39.4092 60.9545 38.7968 61.0921 38.2606C61.2263 37.7374 61.8164 37.3819 62.3202 37.5209C62.8239 37.6598 63.1875 38.2922 63.06 38.7893C62.9325 39.2863 62.3105 39.6609 61.816 39.5386Z" fill="#D4C7EF"/>
<path d="M56.1762 15.7437C55.7103 15.6152 55.3315 14.9365 55.4431 14.4491C55.5639 13.9783 56.2405 13.5487 56.6872 13.6998C57.1842 13.8649 57.5747 14.3927 57.3917 15.0005C57.2281 15.5856 56.7757 15.825 56.1762 15.7437Z" fill="#D4C7EF"/>
<path d="M41.9676 62.8167C42.1371 62.2612 42.7012 61.9546 43.1991 62.0639C43.6936 62.1863 44.0572 62.8187 43.923 63.3419C43.7954 63.8389 43.2456 64.2475 42.6915 64.0947C42.1659 63.9357 41.8829 63.4095 41.9676 62.8167Z" fill="#D4C7EF"/>
<path d="M48.178 5.34519C48.7414 5.51455 49.0302 6.07038 48.9053 6.6101C48.7836 7.13675 48.1935 7.49218 47.6771 7.34979C47.1575 7.22048 46.8543 6.56268 46.9591 6.10142C47.0573 5.66634 47.5828 5.19503 48.178 5.34519Z" fill="#D4C7EF"/>
<path d="M54.4979 54.8163C55.005 54.9421 55.3442 55.5119 55.2033 56.0612C55.1395 56.3097 55.0287 56.5312 54.7987 56.6919C54.5528 56.8621 54.2489 56.8904 54.0062 56.8375C53.7762 56.788 53.5512 56.6139 53.4126 56.3657C53.2648 56.1008 53.2404 55.828 53.295 55.5629C53.404 55.0328 53.9908 54.6905 54.4979 54.8163Z" fill="#D4C7EF"/>
<path d="M4.77929 23.4452C4.65094 23.998 4.08683 24.3046 3.57721 24.136C3.05164 23.9771 2.73002 23.4963 2.89699 22.8981C3.04717 22.3653 3.60875 22.016 4.08983 22.1907C4.56167 22.3488 4.96221 22.8374 4.77929 23.4452Z" fill="#D4C7EF"/>
<path d="M13.3286 56.0812C13.8853 56.2767 14.1691 56.7471 14.0273 57.3522C13.9124 57.8527 13.2837 58.2535 12.8152 58.0823C12.3341 57.9076 11.9369 57.406 12.1072 56.7947C12.2633 56.2916 12.7586 55.938 13.3286 56.0812Z" fill="#D4C7EF"/>
<path d="M37.1155 64.6997C37.1952 64.2315 37.6568 63.7986 38.258 63.9784C38.8373 64.1382 39.0573 64.647 38.9323 65.1867C38.8039 65.7395 38.2969 66.0338 37.7898 65.908C37.2324 65.7683 36.9569 65.1601 37.1155 64.6997Z" fill="#D4C7EF"/>
<path d="M29.9845 64.2177C30.4983 64.3173 30.7939 64.847 30.6622 65.4129C30.5431 65.9822 29.9353 66.2488 29.5038 66.1438C28.9807 66.0276 28.7027 65.3767 28.8168 64.932C28.9536 64.4515 29.4438 64.0125 29.9845 64.2177Z" fill="#D4C7EF"/>
<path d="M48.0059 60.2525C48.4878 60.3713 48.8506 60.8495 48.6676 61.4573C48.5049 61.9866 48.0801 62.2756 47.5101 62.1324C46.8896 61.9753 46.7334 61.428 46.8517 60.9145C47.0027 60.3259 47.5122 60.0743 48.0059 60.2525Z" fill="#D4C7EF"/>
<path d="M2.77631 34.1947C3.29265 34.3371 3.56642 34.8467 3.42882 35.383C3.28452 35.9454 2.81275 36.2074 2.25864 36.0546C1.74231 35.9122 1.46854 35.4025 1.62208 34.8567C1.75296 34.3466 2.27258 34.0557 2.77631 34.1947Z" fill="#D4C7EF"/>
<path d="M61.3505 22.3804C60.8149 22.2607 60.5537 21.7545 60.6787 21.2148C60.8171 20.6227 61.3577 20.4077 61.8144 20.5197C62.3215 20.6455 62.6264 21.1917 62.4829 21.6983C62.3587 22.1823 61.8945 22.5724 61.3505 22.3804Z" fill="#D4C7EF"/>
<path d="M19.0985 5.26652C19.1371 4.80099 19.7876 4.42021 20.2376 4.55831C20.6247 4.67905 21.0202 5.2923 20.8902 5.7466C20.7534 6.22706 20.1851 6.60252 19.751 6.45481C19.2162 6.27931 18.9542 5.82893 19.0985 5.26652Z" fill="#D4C7EF"/>
<path d="M2.5069 44.652C2.00822 44.5985 1.70251 43.8979 1.83844 43.4733C1.99451 42.9701 2.4604 42.6785 2.96749 42.8043C3.50901 42.9536 3.75507 43.4136 3.63931 43.9699C3.53361 44.4869 2.95944 44.8328 2.5069 44.652Z" fill="#D4C7EF"/>
<path d="M25.6449 3.82273C25.5787 4.23861 25.0666 4.6576 24.5595 4.53176C24.0306 4.3859 23.7862 3.81433 23.8877 3.36616C23.9766 2.91451 24.5097 2.57134 24.9916 2.69024C25.4861 2.8126 25.7993 3.43117 25.6449 3.82273Z" fill="#D4C7EF"/>
<path d="M41.5696 2.24832C42.023 2.37335 42.3496 2.93959 42.2322 3.39737C42.1181 3.84207 41.5346 4.17134 41.1031 4.06634C40.6464 3.9544 40.3373 3.26695 40.4439 2.90421C40.5807 2.42375 41.1036 2.11982 41.5696 2.24832Z" fill="#D4C7EF"/>
<path d="M63.6303 25.53C64.1786 25.6531 64.3718 26.2666 64.2837 26.6625C64.1755 27.1368 63.6869 27.4642 63.1798 27.3384C62.6979 27.2195 62.4023 26.6898 62.5265 26.2059C62.6431 25.8039 63.1174 25.3745 63.6303 25.53Z" fill="#D4C7EF"/>
<path d="M64.5 35.2791C64.4103 35.7865 63.7706 36.0722 63.3928 35.968C62.9932 35.8438 62.622 35.2933 62.7462 34.8094C62.8469 34.417 63.3749 33.9884 63.8501 34.1335C64.3286 34.2654 64.615 34.7786 64.5 35.2791Z" fill="#D4C7EF"/>
<path d="M7.83315 16.4307C7.70309 16.885 7.22378 17.229 6.74523 17.097C6.24485 16.945 5.99627 16.4423 6.1112 15.9418C6.2127 15.4936 6.78688 15.1478 7.20835 15.2921C7.63905 15.4528 7.94555 15.8875 7.83315 16.4307Z" fill="#D4C7EF"/>
<path d="M9.93416 54.5429C10.3901 54.7106 10.6714 55.1383 10.5623 55.6684C10.4734 56.1201 9.90258 56.4528 9.4744 56.3347C9.05882 56.2201 8.74474 55.6574 8.84625 55.2092C8.95364 54.7907 9.50263 54.4379 9.93416 54.5429Z" fill="#D4C7EF"/>
<path d="M29.8916 0.988497C30.3819 1.17973 30.6313 1.62664 30.5164 2.12713C30.4149 2.57529 29.8348 2.89149 29.41 2.76034C28.9852 2.62917 28.6711 2.0664 28.7818 1.63478C28.9085 1.19356 29.4634 0.870417 29.8916 0.988497Z" fill="#D4C7EF"/>
<path d="M33.3513 65.9164C33.7383 66.0371 34.0834 66.6365 33.9794 67.0419C33.872 67.4605 33.2693 67.8124 32.8571 67.6848C32.4323 67.5536 32.0745 66.9508 32.2323 66.5461C32.4102 66.063 32.8568 65.794 33.3513 65.9164Z" fill="#D4C7EF"/>
<path d="M52.4545 60.2048C52.0138 60.0833 51.6963 59.5336 51.8138 59.0758C51.9245 58.6442 52.4861 58.2949 52.9109 58.4261C53.3643 58.5511 53.6565 59.0938 53.5231 59.5612C53.3897 60.0286 52.8953 60.3264 52.4545 60.2048Z" fill="#D4C7EF"/>
<path d="M15.2923 6.54166C15.7306 6.6205 15.9624 7.18861 15.8197 7.63943C15.6771 8.09026 15.3036 8.33737 14.8191 8.17577C14.3313 8.02724 14.1122 7.6727 14.2338 7.14605C14.3454 6.65865 14.865 6.36779 15.2923 6.54166Z" fill="#D4C7EF"/>
<path d="M5.29235 49.0894C5.22274 49.5183 4.74426 49.8065 4.27578 49.6353C3.84508 49.4745 3.61749 49.0476 3.73831 48.5768C3.83227 48.2105 4.29563 47.8762 4.77083 48.0212C5.23343 48.1628 5.45011 48.6847 5.29235 49.0894Z" fill="#D4C7EF"/>
<path d="M1.50061 26.4483C1.5677 25.9767 2.07389 25.7381 2.45505 25.8292C2.88658 25.9343 3.1889 26.4378 3.07815 26.8694C2.97412 27.2748 2.45115 27.5788 2.07334 27.4746C1.63845 27.3827 1.34621 26.8399 1.50061 26.4483Z" fill="#D4C7EF"/>
<path d="M51.5079 7.18779C51.9612 7.31282 52.1452 7.69965 52.0554 8.20709C51.9699 8.64565 51.4662 8.92689 51.0859 8.77999C50.6266 8.62534 50.3923 8.22461 50.5291 7.74415C50.6432 7.29945 51.0671 7.06624 51.5079 7.18779Z" fill="#D4C7EF"/>
<path d="M37.7515 2.41379C37.3132 2.33495 37.0898 1.8392 37.1938 1.43373C37.3172 1.00559 37.7226 0.739279 38.1542 0.844279C38.4816 0.934576 38.8351 1.39619 38.7084 1.83742C38.5817 2.27864 38.1796 2.53187 37.7515 2.41379Z" fill="#D4C7EF"/>
<path d="M7.8031 12.5011C7.97429 12.0441 8.28068 11.8485 8.74076 11.9474C9.1471 12.0454 9.39316 12.5054 9.28577 12.9239C9.1851 13.3163 8.70662 13.6045 8.33217 13.4872C7.94513 13.3665 7.69571 12.9196 7.8031 12.5011Z" fill="#D4C7EF"/>
<path d="M55.4188 9.9189C55.3022 10.3209 54.9958 10.5165 54.5164 10.4403C54.1789 10.3892 53.8422 10.0723 53.8279 9.76026C53.8102 9.2512 54.0662 8.83163 54.4246 8.74842C54.5103 8.73002 54.5355 8.73697 54.5976 8.81012C54.7126 8.93988 54.8344 9.04348 54.9142 9.20553C54.9696 9.30484 55.0972 9.43807 55.2416 9.50591C55.4205 9.59724 55.4625 9.74887 55.4188 9.9189Z" fill="#D4C7EF"/>
<path d="M1.63054 30.2515C1.51142 30.8208 0.904481 31.0316 0.403233 30.7253C0.227755 30.6209 0.21011 30.532 0.263804 30.3227C0.300719 30.1788 0.337634 30.035 0.374549 29.8911C0.394684 29.8126 0.41482 29.7341 0.368632 29.6514C0.294732 29.5189 0.362715 29.4117 0.486954 29.3479C0.770687 29.188 1.04857 29.2087 1.31473 29.3801C1.60272 29.5716 1.70855 29.8948 1.63054 30.2515Z" fill="#D4C7EF"/>
<path d="M1.26746 37.868C1.61084 37.9486 1.92239 38.4687 1.81584 38.8315C1.68243 39.2988 1.34497 39.4579 0.912605 39.4087C0.704397 39.3792 0.56753 39.2295 0.446611 39.0701C0.294625 38.8741 0.358387 38.6256 0.367589 38.4321C0.388519 38.0877 0.924085 37.7873 1.26746 37.868Z" fill="#D4C7EF"/>
<path d="M15.1227 61.2816C15.6516 61.4274 15.9481 62.1114 15.7098 62.6199C15.651 62.7437 15.5369 62.7682 15.4596 62.859C15.4403 62.8817 15.39 62.8678 15.3841 62.8381C15.3605 62.7196 15.2338 62.7407 15.1809 62.6841C15.0314 62.5308 14.8333 62.4622 14.6645 62.3316C14.505 62.2176 14.3555 62.0643 14.17 61.9992C13.9718 61.9305 13.945 61.8251 14.0834 61.6532C14.2773 61.3705 14.8087 61.1389 15.1227 61.2816Z" fill="#D4C7EF"/>
<path d="M21.76 66.0529C21.65 66.0086 21.5299 66.0035 21.456 65.8711C21.3788 65.7518 21.189 65.7554 21.0505 65.7172C20.7642 65.6243 20.7583 65.5947 20.7977 65.2834C20.8573 64.8937 21.1158 64.7269 21.418 64.6002C21.5868 64.5207 22.0108 64.7076 22.1476 64.8574C22.3777 65.1169 22.4558 65.3905 22.3274 65.7333C22.2083 66.0925 22.1252 66.1537 21.76 66.0529Z" fill="#D4C7EF"/>
<path d="M59.9842 50.2512C60.0337 49.9008 60.3107 49.7671 60.6062 49.6665C60.8413 49.5913 61.2779 49.7817 61.3946 50.01C61.4315 50.0762 61.5499 50.1928 61.372 50.2558C61.3115 50.2812 61.3166 50.3666 61.2998 50.432C61.2662 50.5628 61.2579 50.7005 61.1051 50.7704C61.0572 50.7992 61.0396 50.9204 61.0195 50.9989C60.9331 51.2832 60.8214 51.3504 60.5444 51.274C60.1254 51.1725 59.8634 50.7221 59.9842 50.2512Z" fill="#D4C7EF"/>
<path d="M46.5499 63.7723C46.8681 63.846 47.0386 64.0751 47.1545 64.3591C47.1881 64.4384 47.1654 64.4742 47.089 64.5091C46.8279 64.6332 46.6223 64.8566 46.3058 64.8813C46.1538 64.8955 46.0061 65.0508 45.85 65.1338C45.63 65.2552 45.4949 65.2039 45.4319 64.9765C45.3453 64.6305 45.3847 64.3192 45.6416 64.054C45.9077 63.8052 46.1939 63.6881 46.5499 63.7723Z" fill="#D4C7EF"/>
<path d="M60.4764 16.5374C60.343 17.0048 59.9997 17.1342 59.6118 17.0693C59.2743 17.0182 58.982 16.4754 59.0659 16.1485C59.1532 15.8084 59.6762 15.5045 59.9843 15.6174C60.2798 15.727 60.5964 16.1224 60.4764 16.5374Z" fill="#D4C7EF"/>
<path d="M63.9675 43.6611C63.9038 43.9096 63.84 44.1581 63.7729 44.4197C63.7393 44.5505 63.6881 44.5924 63.5496 44.5542C63.1147 44.4623 62.8728 43.9334 62.9223 43.5829C62.9801 43.0947 63.2345 42.7867 63.7071 42.679C63.7197 42.6824 63.723 42.6694 63.7356 42.6728C63.8716 42.6683 64.0202 42.6673 64.1202 42.7509C64.2327 42.8379 64.1328 42.9644 64.1026 43.0821C64.0808 43.2722 64.0179 43.4649 63.9675 43.6611Z" fill="#D4C7EF"/>
<path d="M61.6308 46.882C61.6904 46.4923 61.9262 46.3613 62.1806 46.2634C62.3871 46.1943 62.7985 46.3778 62.8875 46.5564C62.9522 46.6722 63.0706 46.7889 62.8784 46.96C62.776 47.0438 62.7886 47.2573 62.7357 47.4108C62.6652 47.6855 62.6014 47.7239 62.3076 47.7129C62.0171 47.6888 61.8165 47.5774 61.6561 47.3091C61.5704 47.1174 61.6325 46.9805 61.6308 46.882Z" fill="#D4C7EF"/>
<path d="M17.5728 63.6098C17.6861 63.2209 17.9447 63.0541 18.3258 63.1452C18.581 63.2016 18.7851 63.2999 18.8884 63.5805C19.0034 63.9203 18.7743 64.4453 18.4352 64.5058C18.3051 64.54 18.1472 64.5245 18.0733 64.392C18.0179 64.2927 17.9516 64.2884 17.876 64.2676C17.5519 64.1642 17.4873 64.0484 17.5494 63.7014C17.5561 63.6752 17.5661 63.636 17.5728 63.6098Z" fill="#D4C7EF"/>
<path d="M42.2234 66.4445C41.9523 66.6078 41.6954 66.663 41.4226 66.7278C41.248 66.7776 41.0633 66.8668 40.8727 66.9263C40.7107 66.9796 40.5856 66.8891 40.5629 66.7148C40.5058 66.3069 40.8037 65.8289 41.1848 65.7099C41.5089 65.6032 41.9891 65.8336 42.1042 66.1735C42.1344 66.2659 42.1806 66.3486 42.2234 66.4445Z" fill="#D4C7EF"/>
<path d="M6.55147 53.0638C6.79663 53.1595 6.99646 53.3266 7.07458 53.6002C7.16194 53.8904 7.09482 54.152 6.87658 54.3719C6.76411 54.4949 6.61887 54.4829 6.50383 54.3531C6.482 54.3331 6.46352 54.3 6.45764 54.2704C6.29137 53.9724 6.04535 53.7225 5.86648 53.4211C5.81105 53.3218 5.79929 53.2625 5.87903 53.2145C6.08302 53.1027 6.30548 53.024 6.55147 53.0638Z" fill="#D4C7EF"/>
<path d="M65.3088 32.1269C65.2476 32.4182 65.2509 32.4051 65.0209 32.3556C64.6364 32.2776 64.439 31.9431 64.4255 31.5752C64.4095 31.1647 64.7025 30.8113 65.0702 30.7447C65.1717 30.7167 65.2414 30.7079 65.2608 30.8953C65.2977 31.1716 65.3221 31.4444 65.2928 31.7164C65.2685 31.8637 65.4465 32.0108 65.3088 32.1269Z" fill="#D4C7EF"/>
<path d="M25.8318 67.1058C25.7361 67.1635 25.6513 67.1261 25.5758 67.1052C25.1728 66.9941 24.7698 66.883 24.3794 66.7753C24.1023 66.6989 24.1032 66.6431 24.3021 66.4459C24.5237 66.2129 24.8167 66.0696 25.1601 66.1503C25.5034 66.231 25.6957 66.4801 25.7982 66.8165C25.8033 66.9019 25.805 67.0004 25.8318 67.1058Z" fill="#D4C7EF"/>
<path d="M58.6829 54.64C58.1782 54.1367 58.3485 53.3153 59.0184 53.122C59.193 53.0721 59.3945 53.1276 59.5608 53.2155C59.6766 53.2895 59.6271 53.4299 59.5667 53.4552C59.3753 53.5705 59.3686 53.8067 59.2117 53.9455C58.9875 54.1358 58.8852 54.4297 58.6829 54.64Z" fill="#D4C7EF"/>
<path d="M22.3117 1.99321C22.3613 2.48305 22.1666 2.82149 21.741 2.9562C21.4774 3.03756 21.024 2.91253 20.8787 2.69041C20.7922 2.55452 20.835 2.44028 20.9836 2.43924C21.0785 2.43739 21.1297 2.39549 21.1935 2.35707C21.3496 2.27409 21.515 2.20766 21.6863 2.17085C21.902 2.11831 22.0934 2.00304 22.3117 1.99321Z" fill="#D4C7EF"/>
<path d="M34.9798 0.234964C35.052 0.268882 35.1914 0.251297 35.2023 0.366344C35.2099 0.494478 35.136 0.572141 35.0244 0.639386C34.6794 0.880359 34.1908 0.787621 33.959 0.429605C33.9313 0.379953 33.891 0.32682 33.9489 0.258764C34.0034 0.203789 34.0328 0.14186 34.1176 0.179251C34.231 0.210508 34.3317 0.238291 34.445 0.269548C34.4954 0.28344 34.571 0.304277 34.5903 0.281597C34.7128 0.119325 34.8505 0.213315 34.9798 0.234964Z" fill="#D4C7EF"/>
<path d="M10.6292 9.107C10.7014 9.14092 10.7585 9.33873 10.7099 9.42334C10.5705 9.65101 10.4001 9.84211 10.1122 9.86073C10.0711 9.86339 10.0266 9.87913 10.0148 9.81987C10.003 9.7606 9.99463 9.68826 10.0391 9.67252C10.2809 9.57114 10.4076 9.34 10.5528 9.14196C10.5755 9.1062 10.604 9.10006 10.6292 9.107Z" fill="#D4C7EF"/>
<path d="M36.6878 67.5228C36.76 67.5567 36.823 67.574 36.7936 67.636C36.7802 67.6883 36.7533 67.7929 36.6811 67.759C36.5149 67.6711 36.3613 67.7968 36.2068 67.7682C36.1438 67.7509 36.0993 67.7666 36.054 67.8381C35.9927 67.9193 35.9205 67.8854 35.871 67.8157C35.8122 67.7294 35.8945 67.7241 35.9457 67.6822C36.1639 67.4623 36.4502 67.5553 36.6878 67.5228Z" fill="#D4C7EF"/>
<path d="M51.1469 62.043C50.8984 62.1705 50.7154 62.3581 50.5165 62.5553C50.4779 62.6007 50.4426 62.633 50.3863 62.5895C50.3519 62.566 50.3653 62.5137 50.3754 62.4744C50.4333 62.1963 50.832 61.9561 51.1469 62.043Z" fill="#D4C7EF"/>
<path d="M64.725 40.3408C64.7024 40.1665 64.6922 39.9956 64.7862 39.8395C64.8123 39.7907 64.8383 39.7418 64.8979 39.7723C64.9483 39.7862 64.9348 39.8385 64.9248 39.8777C64.8845 40.0347 64.8442 40.1916 64.8006 40.3616C64.7914 40.3451 64.7502 40.3477 64.725 40.3408Z" fill="#D4C7EF"/>
<path d="M12.0591 60.2406C11.8509 60.2112 11.7367 60.0257 11.4848 59.9562C11.8332 59.9122 11.8836 59.9261 12.0591 60.2406Z" fill="#D4C7EF"/>
<path d="M0.1594 33.515C0.19552 33.637 0.165317 33.7547 0.0998591 33.9047C-0.0177036 33.7323 0.0914164 33.6223 0.1594 33.515Z" fill="#D4C7EF"/>
<path d="M57.3576 11.77C57.408 11.7839 57.4424 11.8074 57.429 11.8597C57.4156 11.912 57.3744 11.9147 57.3366 11.9043C57.2896 11.8773 57.23 11.8469 57.2594 11.7849C57.2695 11.7457 57.3198 11.7596 57.3576 11.77Z" fill="#D4C7EF"/>
</svg>
