<svg width="121" height="127" viewBox="0 0 121 127" fill="none" xmlns="http://www.w3.org/2000/svg">
<path d="M80.6834 39.068C80.7563 39.1695 80.8535 39.2455 80.975 39.2455C82.1415 39.4484 82.8705 40.2091 83.2837 41.2741C83.6725 42.2884 83.5753 43.328 83.0406 44.317C82.5546 45.2045 81.8256 45.737 80.8535 45.9145C80.6348 45.9652 80.4161 46.0666 80.1001 46.1681C80.8292 46.6498 81.5096 47.0048 81.9228 47.7656C82.3359 48.5263 82.3116 49.3377 82.4574 50.1491C82.5546 49.7941 82.749 49.4899 82.8948 49.1856C83.1136 48.7545 83.4052 48.3741 83.8183 48.1459C84.2314 47.9177 84.6203 47.6388 85.1063 47.512C86.1999 47.2838 87.0747 47.6388 87.9253 48.3488C89.2376 49.4138 89.4077 51.6199 88.4599 52.9131C87.9739 53.5977 87.3663 54.1809 86.4672 54.3077C86.1999 54.3331 85.9569 54.4599 85.5437 54.5613C87.4879 55.4234 88.2169 56.9702 87.8281 58.9227C87.5851 60.1906 86.9775 61.1542 84.5473 61.7374C85.3736 62.1685 86.0298 62.701 86.3943 63.5124C86.7831 64.3492 86.8317 65.2874 86.6373 66.1242C86.4915 66.8342 86.1027 67.5442 85.4708 68.0006C84.8876 68.4063 84.2557 68.7867 83.4781 68.7613C83.6968 68.9642 83.8426 69.1924 84.0856 69.3446C84.596 69.6742 84.9362 70.1814 85.2035 70.7646C85.4465 71.2717 85.5194 71.7788 85.5437 72.3367C85.5923 73.3256 85.1306 74.061 84.5717 74.7456C84.0127 75.4303 83.308 75.836 82.4088 75.8614C82.3359 75.8614 82.263 75.8614 82.2144 75.9628C83.5996 76.6982 84.4744 77.8139 84.5473 79.5128C84.9848 78.6507 85.5194 77.966 86.37 77.5857C87.2448 77.2053 88.1683 77.1799 89.0189 77.6364C90.5256 78.4478 91.0602 79.8424 90.6957 81.4653C90.3555 83.0121 89.1161 84.0518 87.2691 83.8996C86.4186 83.8235 85.7138 83.4178 85.1792 82.7585C84.6446 82.1246 84.4015 81.3385 84.4015 80.451C84.0613 81.1103 83.6968 81.6935 83.1378 82.15C82.5546 82.6064 81.8985 82.8346 81.0965 83.0121C81.9957 83.5192 82.6761 84.1278 82.9434 85.0407C83.2107 85.9535 83.2594 86.9678 82.749 87.8046C81.8256 89.326 80.7563 89.96 78.8364 89.4528C77.3783 89.0725 76.5764 87.7539 76.625 86.1057C76.6736 84.4828 77.6214 82.9867 79.7113 82.8346C79.7113 82.6571 79.6384 82.5303 79.4926 82.4542C78.4476 81.9471 77.9616 81.0089 77.67 79.9185C77.6457 79.8424 77.6214 79.7664 77.5727 79.5889C77.2568 80.2228 76.8194 80.6539 76.3577 81.085C75.8716 81.5667 75.1912 81.5667 74.6079 81.9471C75.6043 82.5557 76.1875 83.3925 76.382 84.4828C76.6007 85.5732 76.3577 86.5621 75.7015 87.3989C75.0454 88.2864 74.0976 88.6414 73.0283 88.7935C73.9761 89.2753 74.6565 89.9853 74.9239 91.025C75.094 91.7096 75.1183 92.445 74.8509 93.1296C74.1705 94.9807 72.7367 95.5893 70.9627 95.285C69.7719 95.0821 68.7026 93.6114 68.6054 92.1661C68.5082 90.6446 69.2858 88.9964 71.6674 88.5653C71.2543 88.0582 70.6224 87.8553 70.2579 87.2721C69.9177 86.7142 69.699 86.1057 69.5289 85.3196C69.3101 85.9028 68.9942 86.2578 68.6783 86.5621C68.2652 86.9932 67.7548 87.2975 67.1716 87.475C66.88 87.5764 66.8314 87.7285 67.0501 87.9314C67.2688 88.1343 67.4875 88.3371 67.6576 88.5653C68.3381 89.4782 68.5811 90.4418 68.2652 91.6082C67.9978 92.6732 67.366 93.3832 66.4911 93.8904C65.3247 94.5243 64.1825 94.3721 63.0889 93.6621C62.7001 93.4086 62.4084 92.9775 62.1411 92.5718C61.7766 92.0393 61.6794 91.4053 61.5093 90.6446C60.8774 92.4704 59.6623 93.2311 57.9612 93.3578C58.4959 93.7636 59.1277 93.9918 59.4922 94.5496C59.8568 95.1075 60.0998 95.6907 60.1484 96.3754C60.197 97.0854 60.0269 97.7447 59.6623 98.3279C58.909 99.5197 57.5238 100.23 56.2358 99.7986C54.5347 99.2407 53.6598 97.8968 53.8542 96.1218C54 94.8793 54.7048 93.51 57.2565 93.155C56.5031 92.7493 55.7984 92.4196 55.3852 91.6843C54.9721 90.9743 54.802 90.1882 54.7291 89.326C54.4132 90.0868 54.0729 90.8221 53.3925 91.2786C52.712 91.7096 52.0073 92.0139 51.1567 92.0646C52.785 92.8761 53.5869 94.1439 53.2953 96.0204C52.4204 98.3786 50.9623 98.7336 49.6014 98.5054C48.1676 98.2772 47.1955 96.9332 47.0254 95.6654C46.8796 94.6004 47.2927 93.7129 47.9732 92.9521C48.6779 92.1661 49.6257 92.0139 50.5978 91.8871C49.7229 91.6336 49.0425 91.1264 48.5807 90.3911C48.0947 89.6557 47.9732 88.7682 48.0218 87.8807C47.8274 87.83 47.8274 87.9314 47.8274 88.0075C47.633 88.9964 47.0254 89.6557 46.2478 90.1882C45.4215 90.7207 44.5224 90.8221 43.6232 90.4925C42.8212 90.1882 42.1408 89.6811 41.7276 88.8443C41.4846 88.3878 41.4117 87.906 41.2902 87.4243C41.2416 87.2721 41.2659 87.0946 41.0958 86.8918C40.7556 88.1089 39.9293 88.7936 38.8843 89.1232C38.2039 89.3261 37.4505 89.326 36.7944 88.9457C35.312 88.1089 34.7044 87.0439 34.9475 85.2435C35.1662 83.6967 36.5757 82.6571 37.8637 82.581C38.9086 82.505 39.7592 82.936 40.4397 83.6714C41.1444 84.4321 41.2659 85.4464 41.2902 86.486C41.8249 84.7618 42.9427 83.8489 44.6439 83.57C43.4045 82.936 42.6268 81.9978 42.3838 80.6032C42.1165 80.6539 41.995 80.8821 41.8735 81.0596C41.1687 82.0485 39.4433 82.5303 38.3497 82.2007C36.6972 81.6682 35.6765 79.8932 35.9681 78.2449C36.1868 76.9264 36.8916 75.9374 38.1796 75.5317C38.374 75.4557 38.5684 75.3289 38.7871 75.3289C38.86 75.3289 38.9329 75.2781 38.9572 75.1767C38.9572 75.0753 38.9086 75.0246 38.8114 74.9992C37.8637 74.6696 37.3776 73.8835 36.9402 73.0214C36.8187 72.7678 36.8916 72.4635 36.7458 72.2099C36.6 72.2353 36.4785 72.3113 36.4056 72.4381C35.8223 73.3764 34.9475 73.7821 33.9511 73.9596C33.2463 74.0864 32.5902 73.7821 31.9826 73.4271C30.962 72.8439 30.4759 71.8549 30.403 70.7139C30.3301 69.5981 30.6703 68.6092 31.5695 67.8485C32.1527 67.3413 32.8089 67.1385 33.4893 66.9863C33.6109 66.961 33.7324 66.9863 33.8296 66.8088C32.0555 66.2763 31.3994 64.8817 31.1807 62.9545C30.7676 63.9942 30.2572 64.7295 29.3581 65.1353C28.4589 65.5156 27.5354 65.5156 26.7092 65.0845C25.4455 64.3999 24.6678 63.0813 24.9837 61.4585C25.2997 59.8863 26.4175 58.9481 27.9485 58.8213C28.5561 58.7706 29.115 58.9988 29.6497 59.2777C30.2572 59.582 30.5974 60.0892 30.8891 60.6724C31.1564 61.2302 31.2293 61.8642 31.3022 62.4981C31.6424 61.7374 31.9583 60.9513 32.6874 60.5202C33.3678 60.1145 34.0726 59.7342 34.9232 59.7342C34.2427 59.3792 33.6109 59.0749 33.1734 58.3902C32.7603 57.7563 32.4444 57.0717 32.3472 56.2856C32.0069 57.097 31.5452 57.7563 30.7676 58.162C30.0142 58.5677 29.2365 58.7452 28.4346 58.441C26.4418 57.7056 25.9801 56.1334 26.1502 54.7388C26.3689 53.1413 27.7298 52.1524 28.8963 51.9749C29.8684 51.8227 30.6946 52.2031 31.3994 52.8116C32.1284 53.4456 32.3715 54.3584 32.5173 55.322C32.7846 54.612 33.222 54.0288 33.7081 53.547C34.2184 53.0399 34.9475 52.9638 35.6279 52.6595C34.2427 51.6959 33.4164 50.5041 33.781 48.7545C34.1941 46.802 35.7251 46.0159 36.8916 45.9398C37.7908 45.8638 38.5684 46.2695 39.2489 46.8527C39.9536 47.4613 40.1723 48.3234 40.464 49.1602C40.6827 49.2109 40.6341 49.0334 40.707 48.9574C41.1687 48.1966 41.7763 47.6134 42.5539 47.2584C42.724 47.1823 42.8941 47.1823 43.0642 47.157C43.2101 47.1316 43.3559 47.1316 43.3802 46.9541C43.4288 46.7513 43.283 46.7259 43.1615 46.6498C42.5296 46.1681 42.0436 45.5848 41.8249 44.7481C41.5575 43.7845 41.6061 42.8716 42.0193 41.9841C42.4081 41.1727 43.0399 40.6909 43.8176 40.3105C44.4494 39.9809 45.1056 40.057 45.7374 40.0823C46.0291 40.1077 46.3207 40.3359 46.6123 40.488C47.6087 40.9952 48.1676 41.8827 48.4349 42.973C48.4592 43.0745 48.4592 43.1759 48.5564 43.252C48.921 42.7195 49.3584 42.263 49.8201 41.8066C50.3062 41.3248 51.0109 41.4009 51.5213 40.9952C49.7715 39.7527 49.407 38.2566 49.7472 37.0395C50.3062 34.9602 51.8372 34.1487 53.3682 34.3009C54.7534 34.453 56.1386 35.2391 56.576 37.927C57.4023 35.9998 58.8118 35.2898 60.7073 35.4927C62.1897 36.152 63.2833 37.1662 63.3562 39.0427C64.1582 37.5212 65.2517 36.6337 66.9529 36.7605C68.7026 36.8873 69.6018 38.003 70.1364 39.6766C70.9384 38.5609 71.8618 37.7748 73.247 37.7495C72.8339 37.4705 72.4937 37.1662 72.1535 36.8366C71.6431 36.3802 71.4001 35.7716 71.3029 35.1123C71.2543 34.6812 71.2543 34.2502 71.3029 33.8444C71.3758 33.3119 71.6188 32.8048 71.959 32.3991C73.0769 31.0044 74.9725 30.8523 76.3334 31.8159C77.4755 32.6273 77.8887 34.3009 77.4512 35.6195C77.111 36.6845 76.382 37.3184 75.4342 37.7495C75.2641 37.8255 75.094 37.8002 74.9239 37.8255C74.7537 37.8509 74.5593 37.7748 74.4135 37.9777C75.1912 38.3073 75.7501 38.8652 76.1875 39.6005C76.625 40.3359 76.7222 41.122 76.7465 41.9588C76.9409 41.6798 76.9652 41.3248 77.0867 41.0459C77.6943 39.778 78.7149 39.2962 79.9786 39.1695C80.2945 39.068 80.489 39.0934 80.6834 39.068ZM45.4701 83.7728C46.4665 84.1278 47.2198 84.7871 47.7059 85.7507C47.9489 86.2325 47.9489 86.765 48.0704 87.2721C48.0947 87.3735 48.0704 87.5257 48.2891 87.5257C48.362 86.765 48.8724 86.2832 49.3341 85.776C49.8201 85.2435 50.5735 85.2182 51.2296 84.8378C50.695 84.6096 50.3548 84.2546 50.0388 83.8996C49.65 83.4685 49.3341 82.9867 49.2855 82.3782C49.2612 82.2007 49.164 81.9978 48.9939 81.9725C48.8238 81.9217 48.7995 82.15 48.7509 82.2514C48.1433 83.1642 47.3171 83.646 46.2478 83.6968C45.9805 83.6968 45.7131 83.6714 45.4701 83.7728ZM81.461 56.3363C81.9228 55.6517 82.4088 55.1192 83.0163 54.7895C83.6482 54.4345 84.3529 54.5106 85.0334 54.3838C84.6932 54.3077 84.4015 54.1556 84.1585 53.9781C83.3809 53.4456 82.749 52.8116 82.6032 51.7974C82.5546 51.5184 82.3845 51.2649 82.2387 50.8591C81.704 52.2791 80.7563 52.9892 79.4926 53.2934C80.5133 54.0542 81.1694 54.967 81.461 56.3363ZM38.1796 63.0813C38.8114 62.1431 39.419 61.3317 40.4883 61.0527C40.6341 61.0274 40.7556 60.9767 40.7799 60.7992C40.8042 60.647 40.6584 60.6217 40.5855 60.5456C39.9536 60.0131 39.4919 59.3792 39.2975 58.5424C39.2489 58.3142 39.1517 58.086 39.0545 57.807C38.3011 59.1256 37.2561 59.8102 35.8223 59.8102C35.7251 59.8102 35.5793 59.8102 35.5793 60.0385C37.1103 60.3681 37.8394 61.5599 38.1796 63.0813ZM34.3156 66.9356C34.4614 67.0624 34.4857 67.1131 34.51 67.1131C35.4092 67.2906 36.0653 67.8485 36.5514 68.6346C36.7458 68.9642 36.8916 69.2938 36.9402 69.6996C36.9888 69.9531 37.1832 70.0038 37.3533 69.801C37.4019 69.7503 37.4262 69.6488 37.4748 69.5981C37.9123 69.0656 38.3254 68.5585 39.0302 68.3303C39.2732 68.2542 39.5405 68.2288 39.8078 68.0767C39.3704 67.5696 38.8843 67.1638 38.4955 66.6821C38.0824 66.1749 38.1553 65.4649 37.7665 64.907C37.0374 66.2763 35.9195 66.9103 34.3156 66.9356ZM74.0976 44.9509C74.1219 45.0777 74.1705 45.1031 74.2191 45.1284C74.9968 45.5848 75.5557 46.2441 75.823 47.157C75.9202 47.4866 76.066 47.4866 76.3091 47.2584C77.0624 46.5738 77.8401 46.0159 78.9093 46.0666C79.0309 46.0666 79.1767 46.0666 79.3225 45.9652C78.9093 45.8891 78.5934 45.5848 78.2532 45.4073C77.913 45.2298 77.6943 44.9509 77.4998 44.6213C77.111 44.0127 76.9409 43.3534 76.8437 42.6434C76.8194 42.542 76.7951 42.4152 76.6979 42.4152C76.5764 42.4152 76.5521 42.5166 76.5278 42.618C76.2362 43.5309 75.6286 44.1648 74.8023 44.5198C74.535 44.6213 74.3163 44.7734 74.0976 44.9509ZM53.0037 85.2435C53.6598 85.5732 54.0729 86.1057 54.4132 86.7143C54.7534 87.3228 54.8749 87.9821 55.045 88.6921C55.5067 87.2214 56.5517 86.5114 57.864 86.1564C57.8397 86.0803 57.864 86.055 57.8397 86.0296C56.9649 85.4464 56.3087 84.711 56.0171 83.6714C55.9928 83.5446 55.8956 83.4178 55.7012 83.4178C55.1179 84.4828 54.1215 84.9139 53.0037 85.2435ZM61.7766 89.7825C62.2626 88.7175 62.8459 87.83 63.9881 87.475C64.4498 87.3228 64.4741 87.1453 64.1096 86.7903C63.5263 86.2832 63.0403 85.7 62.9188 84.8885C62.8945 84.8125 62.8945 84.711 62.7973 84.711C62.6758 84.6857 62.5786 84.7364 62.5057 84.8378C61.9953 85.4971 61.4121 86.0296 60.5858 86.2578C60.3671 86.3339 60.0998 86.3339 59.8811 86.5368C60.4643 86.8918 60.9017 87.3228 61.242 87.8807C61.5336 88.4893 61.6551 89.1232 61.7766 89.7825ZM39.3947 55.9052C39.5648 55.8292 39.5891 55.7531 39.6134 55.677C40.0265 54.8149 40.707 54.3331 41.5332 54.0034C41.6547 53.9527 41.8249 54.0034 41.8492 53.8006C41.8492 53.6231 41.7762 53.5217 41.6304 53.4202C41.2416 53.1159 40.95 52.7102 40.7556 52.2031C40.6341 51.8988 40.5855 51.5945 40.5126 51.2902C40.4883 51.1381 40.4154 50.9606 40.2452 50.9606C40.0751 50.9606 40.0994 51.1127 40.0508 51.2141C39.5405 51.9749 38.9572 52.5834 38.0338 52.7609C37.8394 52.8116 37.6207 52.8624 37.4991 53.0906C38.5441 53.7245 39.1517 54.6881 39.3947 55.9052ZM58.0341 42.0095C57.4995 41.5784 57.1593 41.122 56.8919 40.5895C56.6246 40.057 56.6489 39.4484 56.5517 38.7891C56.1872 39.4991 55.8227 40.0316 55.3609 40.5134C54.8749 41.0205 54.1702 41.0713 53.5383 41.4009C54.3889 42.0855 55.2151 42.7195 55.4824 43.9873C56.1629 42.9477 56.9892 42.3645 58.0341 42.0095ZM45.3243 76.3939C44.2064 75.7853 43.7204 74.7964 43.4045 73.6806C42.481 74.6949 42.0193 75.1006 40.6584 75.4303C41.0715 75.9121 41.6547 76.1149 42.0193 76.5967C42.3838 77.1039 42.5053 77.7378 42.8212 78.321C43.3559 77.4335 43.9634 76.9771 45.3243 76.3939ZM76.2118 74.8217C76.4549 75.0246 76.6007 75.2021 76.7708 75.3542C77.2568 75.8106 77.6457 76.3432 77.7429 77.0785C77.7672 77.3321 77.8887 77.5603 78.1074 77.7885C78.6906 76.546 79.6627 75.9881 80.9507 75.7346C80.1244 75.2781 79.4683 74.771 79.0552 74.0103C78.9579 73.8328 78.9822 73.6046 78.8607 73.4524C78.7392 73.3003 78.642 73.1735 78.4719 73.4271C77.913 74.1371 77.1596 74.5428 76.2118 74.8217ZM68.3381 80.6539C68.4839 80.8314 68.5568 80.9582 68.654 81.0596C69.1157 81.6682 69.7233 82.1753 69.7719 83.0121C69.7719 83.1642 69.8448 83.3671 70.1121 83.4178C70.6954 82.3275 71.6431 81.7696 72.8825 81.516C71.8132 80.8821 71.1328 80.0707 70.8412 78.9042C70.3551 79.2339 70.1607 79.741 69.7719 79.9946C69.3587 80.3242 68.9213 80.5271 68.3381 80.6539ZM49.7229 47.8163C49.407 47.4106 49.1154 47.0302 48.8238 46.6752C48.5321 46.2948 48.6293 45.6863 48.2405 45.3059C47.9246 45.8638 47.5115 46.2695 47.0497 46.6245C46.588 46.9795 46.0048 47.0809 45.3486 47.2331C46.4665 47.7656 47.0497 48.6531 47.5115 49.8449C47.9246 48.6277 48.8481 48.2727 49.7229 47.8163ZM81.0722 58.4663C80.5133 59.3792 79.93 60.0385 79.0795 60.3681C78.8607 60.4442 78.9336 60.571 79.0066 60.6977C79.0552 60.7738 79.1524 60.8245 79.2253 60.9006C79.687 61.3063 80.0515 61.7881 80.2459 62.3713C80.2945 62.5488 80.4161 62.701 80.5376 62.9038C80.9021 62.422 81.3395 62.1685 81.7769 61.8895C82.2144 61.6106 82.749 61.5853 83.2594 61.4585C82.0686 60.8499 81.4124 59.861 81.0722 58.4663ZM69.9177 41.9588C69.3344 42.9477 68.5811 43.4548 67.6333 43.9113C68.6297 44.4691 68.8727 45.4581 69.3344 46.3456C69.7962 45.6102 70.3794 45.1031 71.1571 44.9002C71.4001 44.8241 71.5459 44.672 71.7646 44.4438C70.8168 43.9113 70.3065 43.0745 69.9177 41.9588ZM63.3319 40.3105C62.7973 41.122 62.3841 41.8066 61.6551 42.187C61.5093 42.263 61.3149 42.2884 61.1691 42.3898C61.0232 42.4913 60.9017 42.618 61.1205 42.7955C61.4607 43.0998 61.6794 43.4802 61.971 43.8352C62.214 44.1395 62.2383 44.5706 62.6029 44.8748C62.7973 44.4184 63.1375 44.1395 63.502 43.8859C63.8665 43.6323 64.3526 43.5309 64.7414 43.2013C63.9151 42.4659 63.4048 41.5784 63.3319 40.3105ZM51.6914 77.7124C51.5699 77.5603 51.497 77.4589 51.3754 77.3828C50.8651 77.0024 50.6221 76.3939 50.2819 75.8867C50.0388 75.5317 50.0631 75.5064 49.7472 75.7853C49.3827 76.1149 48.9939 76.3685 48.5564 76.5967C48.2891 76.7235 47.9975 76.7996 47.7302 76.9771C48.6293 77.6364 49.164 78.4985 49.3827 79.5889C49.7958 79.2592 49.9902 78.7775 50.4034 78.4985C50.8408 78.2196 51.181 77.8646 51.6914 77.7124ZM43.8176 71.1449C44.3036 70.3335 44.8626 69.8517 45.543 69.4967C45.9805 69.2685 46.0048 69.1924 45.6645 68.8374C45.2514 68.4063 44.9112 67.9499 44.7411 67.3413C44.6196 66.8849 44.4737 66.8342 44.1335 67.2146C43.6961 67.6963 43.2101 68.1021 42.5539 68.2288C42.3838 68.2542 42.238 68.3556 42.1408 68.5331C42.9184 69.1671 43.5989 69.9024 43.8176 71.1449ZM79.2496 70.0799C80.0758 69.3192 80.8049 68.6092 81.9228 68.5585C81.704 68.4571 81.6311 68.2795 81.461 68.1781C80.975 67.9246 80.6591 67.5188 80.3917 67.0624C80.2702 66.8342 80.2216 66.5553 80.0515 66.3778C79.9543 66.3017 79.9057 66.1749 79.7842 66.327C79.2253 66.961 78.5205 67.3921 77.67 67.8231C78.5691 68.3049 78.8364 69.2178 79.2496 70.0799ZM65.4219 80.2989C65.3976 80.1974 65.4219 80.1721 65.3976 80.1721C64.8872 79.6396 64.3283 79.1578 64.061 78.4224C64.0124 78.2703 63.8179 78.2196 63.6235 78.3971C63.1618 78.8028 62.7244 79.2592 62.0925 79.4114C61.8252 79.4874 61.8009 79.7157 62.0196 79.8932C62.4814 80.3242 62.8459 80.8314 62.9674 81.4907C62.9917 81.6682 63.1132 81.8203 63.2833 81.8964C63.8665 81.1864 64.4498 80.451 65.4219 80.2989ZM45.0813 63.6138C45.5673 62.8531 46.2721 62.422 47.0011 62.0163C46.5637 61.4077 46.0777 60.9006 45.8589 60.216C45.786 59.9624 45.5916 59.937 45.3972 60.1652C44.9598 60.6217 44.4494 60.9513 43.8419 61.1035C43.6961 61.1288 43.5746 61.1795 43.526 61.357C43.4531 61.5599 43.6475 61.5853 43.7204 61.6613C44.3036 62.1685 44.814 62.7517 45.0813 63.6138ZM75.4828 50.4788C74.9239 51.2395 74.292 51.772 73.3928 52.0256C74.0004 52.7102 74.6565 53.2934 74.8996 54.3077C75.5557 53.4709 76.3577 53.1413 77.3054 52.8624C76.3091 52.3299 75.8959 51.4424 75.4828 50.4788ZM58.4473 78.9803C57.864 78.3717 57.3537 77.8392 57.0621 77.1039C56.9892 76.9264 56.819 77.0532 56.7218 77.1292C56.3087 77.5603 55.8227 77.8646 55.2637 78.0421C55.0207 78.1182 54.9721 78.3717 55.1422 78.5746C55.6283 79.0564 55.9685 79.6142 56.1143 80.2989C56.1872 80.5778 56.4302 80.6032 56.576 80.375C57.0378 79.7157 57.621 79.2846 58.4473 78.9803ZM47.0254 52.6849C46.3936 53.4456 45.7374 54.0288 44.7654 54.3584C45.5187 54.8909 45.8832 55.677 46.2964 56.4377C46.9039 55.7784 47.4872 55.1699 48.3377 54.8909C47.8031 54.1809 47.2928 53.547 47.0254 52.6849ZM73.5872 74.4414C72.9797 73.7567 72.3965 73.1481 72.0319 72.3367C71.4973 72.8185 71.0356 73.3003 70.3794 73.5539C70.1607 73.6299 70.1364 73.8581 70.3065 74.0864C70.7196 74.6442 71.1571 75.2021 71.2786 75.9882C71.6431 75.6331 71.9347 75.2781 72.275 74.9992C72.6395 74.7203 73.0283 74.4921 73.5872 74.4414ZM68.3381 52.6595C68.5082 52.6595 68.5568 52.5327 68.6054 52.4566C68.9456 52.0763 69.3587 51.8481 69.8205 51.6959C70.1607 51.5691 70.185 51.5184 69.942 51.2141C69.5532 50.7324 69.14 50.3013 68.9699 49.6674C68.897 49.3631 68.7269 49.3377 68.5325 49.5913C68.168 50.0224 67.7305 50.3266 67.2688 50.6056C66.9529 50.8084 66.9286 50.8591 67.1959 51.1634C67.5604 51.5691 67.9492 51.9495 68.1437 52.5074C68.1437 52.6088 68.2409 52.6595 68.3381 52.6595ZM56.4302 48.7799C55.6283 48.3488 55.5554 47.4866 55.0693 46.8527C54.4861 47.512 53.9271 48.1713 53.028 48.5009C53.6355 48.8559 53.8785 49.3884 54.1701 49.8956C54.3403 50.1999 54.3889 50.2252 54.6319 50.0224C55.1665 49.5659 55.7255 49.1602 56.4302 48.7799ZM63.1618 50.0224C62.4084 49.5913 62.4084 48.6531 61.8009 48.1713C61.3392 48.8306 60.7316 49.2109 60.0755 49.5913C60.5372 50.0731 61.0232 50.5295 61.2663 51.1381C61.3392 51.3409 61.5336 51.2395 61.6551 51.1127C61.971 50.7324 62.3841 50.5041 62.8216 50.3013C62.8945 50.2506 62.9674 50.1491 63.1618 50.0224ZM74.2677 58.0606C73.8303 58.441 73.4901 58.8467 73.004 59.0749C72.7367 59.2017 72.7367 59.3538 72.9068 59.6074C73.1255 59.9117 73.3685 60.216 73.5144 60.5456C73.6359 60.7992 73.7817 61.002 74.0004 61.1542C74.4378 60.8245 74.778 60.4442 75.2884 60.292C75.6529 60.1906 75.6529 59.9624 75.3613 59.7088C74.8752 59.2777 74.5107 58.7452 74.2677 58.0606ZM73.247 65.3381C73.0283 65.4142 72.9311 65.541 72.8096 65.6678C72.5423 65.9467 72.2264 66.1749 71.9104 66.4031C71.6188 66.606 71.5945 66.6313 71.8132 66.9356C72.0562 67.2906 72.2993 67.6456 72.4694 68.026C72.518 68.1528 72.5909 68.3303 72.7853 68.381C73.1984 67.7217 74.0004 67.5949 74.535 67.0624C74.0004 66.5299 73.5144 66.0481 73.247 65.3381ZM52.2017 70.4096C52.2503 70.2574 52.0802 70.2067 51.983 70.1306C51.6671 69.8264 51.4484 69.4713 51.2782 69.0656C51.181 68.8374 50.9866 68.7867 50.8651 68.9896C50.5978 69.3953 50.1604 69.4713 49.8201 69.6742C49.4799 69.8771 49.4556 69.8771 49.7229 70.1813C50.0632 70.5617 50.3305 70.9928 50.5735 71.4239C50.7436 71.7028 50.7922 71.7281 51.0352 71.4999C51.3511 71.1956 51.6428 70.8406 52.0802 70.6885C52.2017 70.6631 52.2017 70.5617 52.2017 70.4096ZM54.5833 55.8799C54.4618 55.7024 54.2917 55.5502 54.2431 55.3474C54.1701 55.1192 54 54.9417 53.9271 54.7134C53.8542 54.4599 53.6841 54.4092 53.4411 54.5867C53.1252 54.8149 52.8092 55.0938 52.4204 55.2459C52.1045 55.3981 52.0802 55.5756 52.3232 55.8545C52.5419 56.1081 52.785 56.3363 52.9308 56.6406C53.0523 56.9702 53.2224 56.8942 53.4168 56.742C53.8056 56.4884 54.1702 56.1842 54.5833 55.8799ZM63.6478 72.5903C63.9638 73.1481 64.304 73.6046 64.4498 74.1624C64.4984 74.1624 64.5227 74.1624 64.547 74.1624C65.0573 73.9089 65.3976 73.3764 65.9565 73.1481C66.1266 73.0974 66.078 72.8946 65.9322 72.7424C65.7135 72.4889 65.4462 72.2606 65.3247 71.9056C65.2031 71.6014 65.033 71.6267 64.7414 71.8549C64.4255 72.1339 64.1339 72.4635 63.6478 72.5903ZM52.3475 61.7881C51.8858 62.1431 51.3997 62.422 50.9137 62.6756C51.0838 63.1574 51.4727 63.4363 51.6914 63.842C51.8858 64.197 51.9101 64.197 52.226 63.9181C52.4447 63.7406 52.6391 63.5631 52.8579 63.411C53.1495 63.2081 53.1738 63.1574 52.9794 62.8531C52.785 62.5235 52.5419 62.1938 52.3475 61.7881ZM67.4389 57.0717C67.123 57.3506 66.9043 57.6295 66.5883 57.807C66.2724 57.9845 66.2967 58.0099 66.5397 58.3649C66.7099 58.5931 66.88 58.8467 67.0015 59.1256C67.0987 59.3285 67.2445 59.3538 67.366 59.2524C67.6576 59.0495 67.9492 58.872 68.2652 58.7199C68.3624 58.6692 68.5811 58.517 68.411 58.3395C68.0465 57.9592 67.8034 57.4774 67.4389 57.0717ZM57.9612 70.511C57.6453 70.7899 57.3051 70.9928 56.9649 71.1956C56.7947 71.2971 56.7704 71.4239 56.8676 71.5253C57.1593 71.8549 57.3051 72.2606 57.5238 72.641C57.6453 72.8439 57.7425 72.7931 57.8883 72.6664C58.1313 72.4128 58.3744 72.1592 58.666 71.9817C58.8847 71.8296 58.8604 71.6521 58.7389 71.5253C58.4473 71.221 58.3257 70.7646 57.9612 70.511ZM60.6101 55.9813C60.3671 55.9559 60.2699 56.1334 60.1241 56.2349C59.3707 56.8434 59.395 56.8434 59.9783 57.6295C60.1484 57.8577 60.3185 57.8577 60.44 57.7056C60.683 57.4267 61.242 57.5281 61.2177 56.9702C61.2177 56.9449 61.2177 56.9195 61.2177 56.9195C61.0475 56.6152 60.9017 56.3363 60.7316 56.0574C60.683 56.0067 60.6101 55.9813 60.6101 55.9813ZM65.9565 66.5299C66.2967 66.3524 66.6369 66.1495 66.9529 65.8706C67.0744 65.7692 67.0987 65.6931 67.0015 65.5663C66.7828 65.2874 66.6126 64.9831 66.3453 64.7549C66.2724 64.7042 66.2238 64.6281 66.1509 64.6788C65.9079 64.8563 65.6649 65.0592 65.4462 65.262C65.349 65.3635 65.349 65.541 65.4219 65.6424C65.6163 65.9213 65.6892 66.2763 65.9565 66.5299ZM58.909 65.0338C59.1763 64.9324 59.395 64.7803 59.638 64.6281C59.8082 64.5013 59.8325 64.3238 59.7596 64.2224C59.638 64.0195 59.5651 63.766 59.3707 63.6392C59.2978 63.5885 59.2249 63.4617 59.1277 63.5378C58.8604 63.6899 58.5445 63.8167 58.423 64.121C58.3501 64.3238 58.5445 64.5013 58.6903 64.6788C58.7632 64.7803 58.7632 64.9324 58.909 65.0338Z" fill="#D4C7EF"/>
<path d="M46.345 39.8288C44.5224 39.9048 43.1372 38.282 43.1615 36.4055C43.1858 34.4784 44.571 33.0584 46.3936 33.0584C48.3134 33.0584 49.6743 34.6052 49.65 36.507C49.6257 38.4595 48.1433 39.9555 46.345 39.8288Z" fill="#D4C7EF"/>
<path d="M71.2543 33.2612C71.4001 34.9095 69.6747 36.583 67.9493 36.583C66.2724 36.5577 64.6928 34.808 64.7657 33.0837C64.8386 31.3341 66.2724 29.7873 68.0708 29.8126C69.8448 29.838 71.4001 31.4609 71.2543 33.2612Z" fill="#D4C7EF"/>
<path d="M86.9289 66.251C86.856 64.4253 88.4356 63.0306 90.1611 63.056C91.9594 63.0813 93.3689 64.5774 93.3446 66.5045C93.3203 68.2542 91.7407 69.8517 89.991 69.801C88.387 69.7503 86.7588 68.1781 86.9289 66.251Z" fill="#D4C7EF"/>
<path d="M85.7381 73.3764C85.6409 71.6014 87.3178 70.0546 89.0675 70.1053C90.6471 70.156 92.2267 71.7535 92.1538 73.6553C92.0809 75.3796 90.5013 76.9264 88.8488 76.8503C87.1476 76.825 85.568 75.3289 85.7381 73.3764Z" fill="#D4C7EF"/>
<path d="M88.1197 59.2524C88.0225 57.6042 89.675 55.9052 91.3762 55.9306C93.053 55.9559 94.6326 57.6549 94.6083 59.3792C94.584 60.9513 93.1016 62.6756 91.3033 62.6503C89.6021 62.6249 87.9982 60.9767 88.1197 59.2524Z" fill="#D4C7EF"/>
<path d="M64.4012 31.968C64.547 33.6669 62.9917 35.2898 61.1448 35.2391C59.4193 35.2137 57.9612 33.6416 57.9855 31.8159C58.0098 30.1423 59.4679 28.4941 61.2663 28.5194C62.8216 28.5701 64.5956 30.0916 64.4012 31.968Z" fill="#D4C7EF"/>
<path d="M41.5332 42.3138C41.679 44.1141 40.0994 45.6863 38.374 45.6863C36.7458 45.7116 35.1662 44.0127 35.1419 42.3645C35.1176 40.5895 36.6972 38.9666 38.3254 38.9666C40.148 38.9666 41.6547 40.5134 41.5332 42.3138Z" fill="#D4C7EF"/>
<path d="M35.7008 77.611C35.798 79.2846 34.3642 80.9075 32.4687 80.8821C30.8891 80.8567 29.3094 79.2592 29.3337 77.4842C29.358 75.8614 30.9134 74.1371 32.6388 74.1878C34.2913 74.2639 35.8466 75.8107 35.7008 77.611Z" fill="#D4C7EF"/>
<path d="M51.2539 30.6748C51.1324 28.9251 52.7607 27.3276 54.3889 27.3276C56.1386 27.3276 57.5724 28.8237 57.5724 30.6241C57.5481 32.5259 56.2358 33.8952 54.4618 33.9205C52.6877 33.9712 51.181 32.4244 51.2539 30.6748Z" fill="#D4C7EF"/>
<path d="M90.1368 43.8352C90.2583 45.3566 88.7759 47.157 86.9532 47.1316C85.1549 47.1063 83.794 45.4834 83.794 43.8606C83.794 42.0855 85.1792 40.5641 86.9532 40.5388C88.7516 40.5134 90.2097 42.187 90.1368 43.8352Z" fill="#D4C7EF"/>
<path d="M95.7262 52.2031C95.6776 54.0542 94.3167 55.4742 92.5912 55.5249C90.8415 55.5756 89.3834 53.9274 89.3834 52.2284C89.3591 50.5295 90.9387 48.8813 92.5912 48.9066C94.1952 48.9066 95.7262 50.4027 95.7262 52.2031Z" fill="#D4C7EF"/>
<path d="M63.8666 94.5496C65.4462 94.4989 67.0501 95.995 67.0501 97.8207C67.0258 99.7479 65.5434 101.143 63.9152 101.117C62.1168 101.092 60.8288 99.824 60.7802 97.8968C60.7073 95.9697 62.214 94.575 63.8666 94.5496Z" fill="#D4C7EF"/>
<path d="M80.6834 39.0934C80.6348 39.0173 80.6105 38.9159 80.5619 38.8905C80.173 38.8398 79.9057 38.5609 79.6141 38.358C79.0066 37.9777 78.6663 37.3945 78.4476 36.7098C78.1317 35.797 78.3018 34.9855 78.6663 34.1487C78.9823 33.4134 79.5655 33.0077 80.2216 32.7287C80.6348 32.5512 81.0722 32.2977 81.5582 32.3991C82.1658 32.5512 82.7733 32.7541 83.2837 33.1598C83.7697 33.5655 84.1099 34.0727 84.3286 34.6812C84.839 35.9998 84.2314 37.648 83.0649 38.4087C82.506 38.7891 81.8985 38.992 81.218 38.992C81.0479 39.0427 80.8535 39.0427 80.6834 39.0934Z" fill="#D4C7EF"/>
<path d="M27.2681 48.0952C27.4139 46.2188 28.5804 44.9509 30.403 44.9509C32.2257 44.9509 33.5137 46.447 33.4893 48.222C33.465 50.0224 32.0069 51.4677 30.3301 51.4424C28.6047 51.3663 27.3167 49.997 27.2681 48.0952Z" fill="#D4C7EF"/>
<path d="M47.6087 32.678C46.9282 32.5005 46.2235 32.323 45.6645 31.8666C45.2028 31.4862 44.8869 30.9791 44.7411 30.3959C44.6925 30.2437 44.6439 30.0916 44.571 29.9394C44.4494 29.7366 44.4251 29.5084 44.4737 29.2801C44.6925 28.3419 44.9355 27.4037 45.7617 26.8205C46.2478 26.4655 46.7824 26.1866 47.39 26.1105C48.0947 26.0344 48.7509 26.288 49.3341 26.7191C50.1847 27.3276 50.6707 28.1898 50.7436 29.2294C50.8408 30.4466 49.966 31.9934 48.678 32.3737C48.3134 32.4498 48.0218 32.7541 47.6087 32.678Z" fill="#D4C7EF"/>
<path d="M26.9765 72.4635C25.2997 72.3114 23.9388 71.0689 23.8415 69.2178C23.7929 68.3556 24.1818 67.5949 24.765 66.961C25.3726 66.3017 26.1745 65.9467 26.9765 65.9467C27.7541 65.9467 28.5561 66.3017 29.1393 66.9356C29.7469 67.5696 30.0628 68.381 30.0628 69.1924C30.0628 70.0039 29.7469 70.8406 29.115 71.4492C28.6047 72.0071 27.6326 72.4635 26.9765 72.4635Z" fill="#D4C7EF"/>
<path d="M81.8256 93.4339C81.7527 94.0679 81.5582 94.8032 81.0479 95.3864C80.4161 96.0964 79.5898 96.5275 78.7149 96.5275C77.8644 96.5275 77.0624 96.1218 76.4549 95.4625C75.8716 94.8539 75.6043 94.0679 75.6286 93.2818C75.6772 91.3293 77.0381 90.0614 78.7149 90.0107C80.2702 89.9853 81.777 91.3546 81.8256 93.4339Z" fill="#D4C7EF"/>
<path d="M39.6134 38.4341C37.8637 38.3327 36.5271 37.1409 36.5028 35.2391C36.4785 33.4387 37.8394 31.9934 39.5648 31.9934C41.2173 31.968 42.6511 33.2359 42.6754 35.1884C42.6754 37.0648 41.5089 38.2566 39.6134 38.4341Z" fill="#D4C7EF"/>
<path d="M43.7447 91.0504C45.4944 91.1518 46.831 92.4704 46.8067 94.2961C46.7824 96.1979 45.4944 97.5418 43.7204 97.4911C41.8735 97.4657 40.6827 96.2232 40.6584 94.2707C40.6341 92.4196 41.9464 91.1771 43.7447 91.0504Z" fill="#D4C7EF"/>
<path d="M89.5535 87.4243C89.4563 89.4528 88.0468 90.67 86.4672 90.67C84.7661 90.67 83.3809 89.1486 83.4052 87.3736C83.4052 86.5114 83.7697 85.776 84.3773 85.1421C84.9848 84.5335 85.7381 84.2293 86.5158 84.2293C87.3421 84.2293 88.1197 84.5843 88.7273 85.2182C89.3105 85.8268 89.4563 86.6382 89.5535 87.4243Z" fill="#D4C7EF"/>
<path d="M67.6576 99.1139C67.5847 97.5418 69.0428 95.9189 70.6711 95.9443C72.4451 95.9697 73.7331 97.3643 73.6845 99.1139C73.6359 101.092 72.5423 102.233 70.6711 102.258C68.9456 102.309 67.6576 100.889 67.6576 99.1139Z" fill="#D4C7EF"/>
<path d="M31.3508 87.7793C29.7469 87.9314 28.3131 86.2578 28.3374 84.6857C28.3617 82.9614 29.6011 81.5414 31.3751 81.5667C33.1248 81.5921 34.267 82.936 34.3156 84.635C34.3399 86.3593 32.9061 87.9061 31.3508 87.7793Z" fill="#D4C7EF"/>
<path d="M34.5586 41.0713C34.6072 42.6941 33.2463 44.1648 31.5452 44.1395C29.8441 44.1141 28.6047 42.6941 28.629 40.9698C28.6533 39.3723 29.9656 37.8762 31.691 37.9016C33.222 37.9523 34.6801 39.4991 34.5586 41.0713Z" fill="#D4C7EF"/>
<path d="M93.9278 67.6963C93.8549 66.0228 95.2887 64.552 96.8927 64.5774C98.5938 64.6028 99.8575 65.8199 99.8818 67.671C99.8818 69.5474 98.4966 70.7899 96.917 70.8153C95.3373 70.8406 93.8549 69.3446 93.9278 67.6963Z" fill="#D4C7EF"/>
<path d="M68.9942 29.128C67.4146 29.2801 66.0294 27.7334 66.0294 26.0344C66.0294 24.513 67.5361 22.9408 69.0185 22.9408C70.5252 22.9662 72.0077 24.4116 71.9834 26.1105C71.9104 27.7841 70.671 29.2548 68.9942 29.128Z" fill="#D4C7EF"/>
<path d="M98.1806 57.5281C99.8089 57.4267 101.097 58.9481 101.097 60.6217C101.097 62.1685 99.7603 63.6899 98.1077 63.6899C96.601 63.6899 95.1429 62.0924 95.1672 60.5456C95.1915 58.9988 96.5767 57.3506 98.1806 57.5281Z" fill="#D4C7EF"/>
<path d="M62.4328 21.7237C63.8909 21.5716 65.4705 23.1691 65.4462 24.8173C65.4219 26.3641 64.0853 27.9109 62.4571 27.8855C60.8045 27.8601 59.5165 26.5669 59.4922 24.8426C59.4679 23.093 60.8288 21.6476 62.4328 21.7237Z" fill="#D4C7EF"/>
<path d="M95.7019 77.8139C94.0493 77.9153 92.7857 76.4699 92.7614 74.7457C92.7371 73.0721 94.2195 71.6521 95.7262 71.6267C97.2815 71.6267 98.7153 73.2242 98.691 74.7203C98.691 76.4192 97.3544 77.966 95.7019 77.8139Z" fill="#D4C7EF"/>
<path d="M91.0845 36.7859C91.1574 38.4848 89.7965 39.8288 88.1197 39.8288C86.5644 39.8288 85.1792 38.3327 85.1792 36.7098C85.1792 35.2391 86.5887 33.6162 88.1926 33.6416C89.6993 33.6669 91.2303 35.0362 91.0845 36.7859Z" fill="#D4C7EF"/>
<path d="M28.7019 76.3685C28.7262 77.966 27.3896 79.4367 25.6885 79.386C24.0846 79.3353 22.7966 77.9914 22.8209 76.2164C22.8452 74.6189 24.2061 73.1735 25.8343 73.1989C27.2924 73.1989 28.8477 74.7203 28.7019 76.3685Z" fill="#D4C7EF"/>
<path d="M96.6739 45.0777C96.844 46.7513 95.2401 48.1713 93.782 48.222C92.2753 48.2473 90.7686 46.6245 90.7686 45.1538C90.7686 43.5309 92.1781 42.0095 93.7577 42.0095C95.3859 42.0602 96.7711 43.4041 96.6739 45.0777Z" fill="#D4C7EF"/>
<path d="M36.9402 96.0457C35.3363 96.1979 33.9754 94.5496 33.9754 92.9775C33.9754 91.5068 35.4578 89.8839 36.9159 89.8839C38.3983 89.8839 39.905 91.3293 39.8807 93.0029C39.8564 94.6764 38.5684 96.1471 36.9402 96.0457Z" fill="#D4C7EF"/>
<path d="M75.7744 24.3101C77.2811 24.1073 78.7392 25.8316 78.7635 27.3276C78.7635 28.9251 77.3297 30.4719 75.7987 30.4466C74.2434 30.4466 72.8582 28.9759 72.8582 27.3784C72.8339 25.7301 74.3163 24.158 75.7744 24.3101Z" fill="#D4C7EF"/>
<path d="M94.5111 78.6C96.115 78.4985 97.4759 80.1721 97.4516 81.6428C97.4516 83.1135 95.9449 84.7364 94.4868 84.711C93.1016 84.6857 91.5463 83.291 91.5949 81.5921C91.6192 79.9692 92.9315 78.5239 94.5111 78.6Z" fill="#D4C7EF"/>
<path d="M58.5445 23.5241C58.666 25.2737 57.0135 26.6176 55.6526 26.6176C54.3403 26.643 52.6877 25.2991 52.6877 23.5494C52.7121 21.8505 54.1702 20.4812 55.6526 20.5065C57.135 20.5319 58.6174 21.8505 58.5445 23.5241Z" fill="#D4C7EF"/>
<path d="M43.7204 28.0884C43.7933 29.8634 42.238 31.1566 40.8042 31.1566C39.3947 31.1566 37.888 29.8887 37.888 28.1137C37.888 26.3641 39.2732 25.0962 40.7799 25.0962C42.3838 25.0708 43.7447 26.4655 43.7204 28.0884Z" fill="#D4C7EF"/>
<path d="M99.3714 56.4631C97.7432 56.4884 96.4552 55.0177 96.4552 53.4456C96.4552 51.7974 97.9619 50.4027 99.3714 50.4027C100.732 50.4027 102.263 51.7467 102.263 53.4202C102.263 55.0938 100.902 56.4884 99.3714 56.4631Z" fill="#D4C7EF"/>
<path d="M82.6518 94.5243C82.6518 92.7493 84.1585 91.4814 85.5437 91.5068C87.1963 91.5321 88.4842 93.0536 88.4113 94.575C88.3384 96.1979 87.2935 97.5164 85.5194 97.5418C83.8669 97.5672 82.6761 96.2486 82.6518 94.5243Z" fill="#D4C7EF"/>
<path d="M58.7389 103.729C58.6417 105.453 57.4752 106.67 55.847 106.67C54.1702 106.696 52.9551 105.174 52.9551 103.653C52.9551 102.106 54.3646 100.61 55.8956 100.661C57.3051 100.686 58.7632 101.929 58.7389 103.729Z" fill="#D4C7EF"/>
<path d="M77.4998 97.3643C79.0795 97.3897 80.4161 98.7336 80.3675 100.407C80.3432 102.106 79.1038 103.374 77.4998 103.374C75.8959 103.399 74.6565 102.005 74.6322 100.407C74.5836 98.7843 75.9445 97.3897 77.4998 97.3643Z" fill="#D4C7EF"/>
<path d="M35.6522 33.9205C35.5307 35.8223 34.4857 36.8112 32.8089 36.9127C32.0555 36.9634 31.3508 36.6591 30.7919 36.0505C30.2329 35.4673 29.917 34.7319 29.8927 33.9712C29.8684 33.1852 30.2086 32.4498 30.7432 31.8666C31.2779 31.258 32.0069 30.8777 32.7846 30.9284C34.4128 31.0552 35.5307 32.0441 35.6522 33.9205Z" fill="#D4C7EF"/>
<path d="M25.4941 54.0542C25.3483 54.7388 25.2268 55.4995 24.6192 56.0574C24.0603 56.6152 23.3555 56.9702 22.6265 56.9702C21.8731 56.9702 21.1684 56.6406 20.6094 56.0827C20.0262 55.4995 19.6616 54.7388 19.7102 53.9527C19.8318 52.2538 20.7795 51.0113 22.5779 51.0113C24.4248 51.0366 25.2997 52.2538 25.4941 54.0542Z" fill="#D4C7EF"/>
<path d="M49.0425 105.403C47.2441 105.25 46.2964 104.135 46.2235 102.385C46.1992 101.599 46.4908 100.838 47.074 100.28C47.633 99.7479 48.3377 99.3675 49.0911 99.3675C49.8687 99.3929 50.5735 99.7225 51.1324 100.331C51.6671 100.914 52.0316 101.65 51.9587 102.436C51.7886 104.135 50.8894 105.276 49.0425 105.403Z" fill="#D4C7EF"/>
<path d="M21.5086 57.807C22.1161 57.9338 22.7966 58.086 23.3555 58.6692C23.9388 59.2777 24.2304 60.0131 24.279 60.7992C24.3762 62.2952 22.8209 63.8928 21.3628 63.8167C19.7103 63.7153 18.5681 62.5995 18.5681 60.7992C18.5438 59.0749 19.7589 57.9085 21.5086 57.807Z" fill="#D4C7EF"/>
<path d="M82.6761 31.6384C80.9021 31.5116 79.7356 30.3451 79.7842 28.6209C79.8328 26.7444 80.975 25.7301 82.6275 25.6541C83.2837 25.6287 83.9641 25.8569 84.4745 26.3641C85.082 26.9726 85.5194 27.7841 85.4708 28.6462C85.4465 29.4576 85.1063 30.2184 84.5231 30.8269C83.9641 31.3594 83.308 31.5116 82.6761 31.6384Z" fill="#D4C7EF"/>
<path d="M62.6758 107.938C60.9989 107.811 59.8325 106.67 59.8325 104.946C59.8325 103.247 61.0719 101.979 62.7001 102.005C64.2797 102.005 65.5191 103.349 65.4948 104.946C65.5191 106.645 64.2797 107.811 62.6758 107.938Z" fill="#D4C7EF"/>
<path d="M26.6606 46.8781C26.539 48.6024 25.5184 49.7941 23.8415 49.8449C22.2862 49.8956 21.0225 48.577 20.9982 46.9288C20.9739 45.4073 22.0918 43.9113 23.8172 43.9366C25.567 43.9873 26.4904 45.1791 26.6606 46.8781Z" fill="#D4C7EF"/>
<path d="M24.5706 80.4764C26.1745 80.4764 27.341 81.8457 27.3653 83.3671C27.3896 84.99 26.1502 86.3593 24.5706 86.3339C22.8938 86.3085 21.7516 85.1675 21.7516 83.3925C21.7516 81.7443 22.7723 80.5271 24.5706 80.4764Z" fill="#D4C7EF"/>
<path d="M48.921 19.3908C50.5978 19.4415 51.6185 20.7348 51.5942 22.383C51.5456 24.2848 50.1361 25.1976 48.8238 25.223C48.0461 25.2483 47.3414 24.868 46.7824 24.2594C46.2478 23.7016 46.1749 22.9408 46.0048 22.2308C46.3207 20.5319 47.0254 19.4162 48.921 19.3908Z" fill="#D4C7EF"/>
<path d="M93.2231 91.5828C91.5706 91.5575 90.477 90.2389 90.5256 88.6414C90.5499 87.9314 90.72 87.2468 91.2303 86.7143C91.8136 86.1057 92.5669 85.7253 93.3446 85.8014C95.07 85.9789 96.0907 86.9678 96.0907 88.7428C96.0907 90.3657 94.9728 91.6336 93.2231 91.5828Z" fill="#D4C7EF"/>
<path d="M42.5782 98.2772C44.2307 98.3025 45.3486 99.6211 45.2757 101.219C45.2514 101.929 45.0813 102.613 44.571 103.146C43.9877 103.754 43.2344 104.135 42.4567 104.059C40.7556 103.881 39.7106 102.918 39.7106 101.117C39.6863 99.5197 40.8285 98.2264 42.5782 98.2772Z" fill="#D4C7EF"/>
<path d="M17.4259 67.9499C17.353 66.3017 18.5924 65.0592 20.172 65.0592C21.8488 65.0592 22.9667 66.4538 22.9667 67.9499C22.9667 69.5474 21.7516 70.8153 20.2206 70.8406C18.7868 70.8406 17.353 69.6996 17.4259 67.9499Z" fill="#D4C7EF"/>
<path d="M95.0457 35.1377C96.3337 34.9855 97.7918 36.5323 97.7432 38.0284C97.7189 39.423 96.4552 40.8684 94.9485 40.8684C93.539 40.8684 92.2024 39.4484 92.2267 37.927C92.251 36.583 93.6362 34.9348 95.0457 35.1377Z" fill="#D4C7EF"/>
<path d="M72.1778 106.214C72.3236 107.71 70.9141 109.105 69.5046 109.105C68.1437 109.105 66.7585 107.735 66.7585 106.239C66.7585 104.743 67.9736 103.374 69.4803 103.374C71.0599 103.349 72.2993 104.769 72.1778 106.214Z" fill="#D4C7EF"/>
<path d="M30.1114 94.6004C28.5561 94.6511 27.3896 93.3832 27.4139 91.735C27.4382 90.0361 28.6533 88.9203 30.1843 88.9457C31.691 88.9711 32.8575 90.0868 32.8575 91.7857C32.8332 93.4086 31.691 94.6764 30.1114 94.6004Z" fill="#D4C7EF"/>
<path d="M25.0323 36.9634C26.2474 36.8112 27.8027 38.282 27.7784 39.8034C27.7541 41.1727 26.4175 42.6434 25.0323 42.6434C23.6471 42.6434 22.3105 41.1473 22.2862 39.8288C22.2619 38.3073 23.7929 36.7859 25.0323 36.9634Z" fill="#D4C7EF"/>
<path d="M86.7102 29.8634C86.613 28.6209 87.8767 27.0487 89.432 27.0741C90.8172 27.0994 92.1295 28.4434 92.1295 29.9141C92.1295 31.4355 90.6228 32.7541 89.3834 32.7287C88.0468 32.7034 86.5887 31.3341 86.7102 29.8634Z" fill="#D4C7EF"/>
<path d="M97.9133 46.3456C97.8404 44.8241 99.2499 43.5816 100.587 43.5816C102.069 43.5816 103.333 45.0777 103.284 46.4216C103.26 47.7656 102.045 49.1856 100.538 49.1602C99.2742 49.1349 97.7918 47.9684 97.9133 46.3456Z" fill="#D4C7EF"/>
<path d="M72.8825 18.9598C72.9554 20.5826 71.5702 21.7491 70.2336 21.7744C68.6783 21.7744 67.5118 20.3544 67.5118 19.0105C67.5118 17.6665 68.6783 16.2212 70.185 16.2212C71.5702 16.1958 72.9068 17.413 72.8825 18.9598Z" fill="#D4C7EF"/>
<path d="M105.18 75.7599C105.301 77.3067 103.77 78.6 102.555 78.6C101.073 78.6253 99.8575 77.1546 99.8089 75.836C99.7603 74.5682 100.975 72.9706 102.482 72.9706C103.867 72.9706 105.252 74.3146 105.18 75.7599Z" fill="#D4C7EF"/>
<path d="M103.819 66.1749C105.107 66.0988 106.516 67.4428 106.443 69.0656C106.395 70.4096 105.131 71.7789 103.649 71.7281C102.239 71.6774 101 70.2321 101.048 68.8628C101.073 67.5189 102.288 66.0481 103.819 66.1749Z" fill="#D4C7EF"/>
<path d="M18.9326 77.7885C17.5717 77.8646 16.2594 76.546 16.2837 74.9992C16.2837 73.4271 17.6446 72.2353 18.9812 72.2607C20.4636 72.2607 21.6787 73.706 21.6544 75.0499C21.6544 76.3178 20.4636 77.8899 18.9326 77.7885Z" fill="#D4C7EF"/>
<path d="M84.2557 104.439C82.992 104.464 81.6068 103.196 81.6311 101.599C81.6554 100.103 82.9677 98.835 84.3529 98.8604C85.8596 98.8857 87.0261 100.382 86.9775 101.726C86.9289 103.12 85.7381 104.49 84.2557 104.439Z" fill="#D4C7EF"/>
<path d="M63.4534 14.9533C64.9844 14.9787 66.1023 16.2465 66.078 17.768C66.0537 19.3908 64.8143 20.5573 63.3562 20.5065C61.9467 20.4558 60.7802 19.4162 60.7802 17.7173C60.7559 16.1958 61.8495 14.928 63.4534 14.9533Z" fill="#D4C7EF"/>
<path d="M33.0762 99.8747C33.0276 98.4547 34.1455 97.0854 35.7251 97.0854C37.2318 97.0854 38.374 98.4039 38.374 99.8747C38.374 101.498 37.086 102.664 35.7251 102.664C34.3399 102.689 33.0519 101.523 33.0762 99.8747Z" fill="#D4C7EF"/>
<path d="M34.0726 24.0819C35.5793 24.158 36.6729 25.3498 36.6486 26.8966C36.6243 28.5701 35.3606 29.5591 33.9268 29.6351C33.2463 29.6605 32.5902 29.2801 32.1042 28.7476C31.6181 28.1898 31.2536 27.5305 31.3508 26.7444C31.5209 25.2737 32.4444 24.1073 34.0726 24.0819Z" fill="#D4C7EF"/>
<path d="M107.585 61.8642C107.488 63.487 106.297 64.6281 104.888 64.5774C103.406 64.5013 102.288 63.5124 102.288 61.8388C102.288 60.2667 103.406 59.1002 104.937 59.1002C106.492 59.0749 107.537 60.4188 107.585 61.8642Z" fill="#D4C7EF"/>
<path d="M92.0809 98.5814C90.5499 98.5814 89.4077 97.1614 89.432 95.8175C89.4563 94.3468 90.6471 93.0789 92.0323 93.0536C93.3689 93.0282 94.6812 94.1693 94.7055 95.7922C94.7298 97.2882 93.5633 98.5054 92.0809 98.5814Z" fill="#D4C7EF"/>
<path d="M76.9895 22.9916C75.4828 22.9155 74.3649 21.8251 74.3892 20.2276C74.4135 18.6048 75.5314 17.489 77.0624 17.5398C78.7635 17.5905 79.4197 18.7062 79.7113 20.253C79.4197 21.7998 78.7149 22.8901 76.9895 22.9916Z" fill="#D4C7EF"/>
<path d="M39.419 21.0137C39.4919 19.4415 40.6341 18.3005 42.0436 18.2751C42.6754 18.2751 43.283 18.5033 43.769 18.9851C44.3279 19.543 44.6682 20.253 44.6925 21.0137C44.7168 21.6983 44.4008 22.383 43.9148 22.9155C43.4288 23.448 42.7969 23.803 42.0922 23.7776C40.6827 23.7269 39.4676 22.6619 39.419 21.0137Z" fill="#D4C7EF"/>
<path d="M103.94 82.86C103.94 84.28 102.701 85.5985 101.316 85.6239C99.9304 85.6239 98.691 84.356 98.691 82.9107C98.6667 81.4907 99.9304 80.0707 101.291 80.1721C102.919 80.2735 103.721 81.161 103.94 82.86Z" fill="#D4C7EF"/>
<path d="M78.885 107.482C78.885 108.851 77.6456 110.246 76.3091 110.22C75.6529 110.195 74.9968 109.941 74.4864 109.434C73.9518 108.902 73.7088 108.192 73.6845 107.482C73.6359 106.087 74.9725 104.743 76.2848 104.794C77.8887 104.845 78.7635 106.011 78.885 107.482Z" fill="#D4C7EF"/>
<path d="M56.8433 13.7615C58.2771 13.7108 59.4193 15.1055 59.4193 16.4494C59.4193 17.9708 58.1313 19.1626 56.8676 19.1626C55.4824 19.1373 54.2674 17.9962 54.2674 16.424C54.2674 15.0294 55.3852 13.7615 56.8433 13.7615Z" fill="#D4C7EF"/>
<path d="M26.0044 29.9901C27.341 29.9648 28.5804 31.1819 28.5561 32.6273C28.5561 33.2866 28.3374 33.9459 27.8756 34.4784C27.3653 35.0616 26.7092 35.3152 26.0044 35.2898C24.6435 35.2391 23.477 34.3262 23.4527 32.678C23.4527 31.1059 24.5706 30.1169 26.0044 29.9901Z" fill="#D4C7EF"/>
<path d="M20.8038 90.4671C20.7309 89.1232 21.8974 87.8553 23.3312 87.8553C24.9351 87.8807 25.8586 89.1739 25.8586 90.4925C25.8586 91.8618 24.9351 93.1043 23.3312 93.1043C21.9217 93.1296 20.7066 91.9379 20.8038 90.4671Z" fill="#D4C7EF"/>
<path d="M54.6562 108.166C55.8956 108.014 57.1836 109.358 57.1836 110.753C57.1836 112.249 55.9442 113.39 54.7048 113.39C53.3925 113.39 52.2017 112.249 52.1774 110.778C52.1531 109.409 53.3196 108.04 54.6562 108.166Z" fill="#D4C7EF"/>
<path d="M83.794 18.9598C85.1306 18.8837 86.2971 19.9994 86.3214 21.5208C86.3214 22.9155 85.1549 24.1326 83.8669 24.1326C82.4088 24.158 81.3152 22.8901 81.3152 21.4955C81.3395 20.0501 82.3845 18.909 83.794 18.9598Z" fill="#D4C7EF"/>
<path d="M106.127 57.3506C104.888 57.5027 103.624 56.1334 103.649 54.7134C103.673 53.2427 104.937 52.1017 106.2 52.127C107.415 52.1524 108.63 53.1667 108.63 54.7642C108.63 56.1842 107.464 57.4774 106.127 57.3506Z" fill="#D4C7EF"/>
<path d="M48.0461 112.097C46.588 112.071 45.6888 110.981 45.6159 109.409C45.5673 108.141 46.8796 106.848 48.2162 106.873C49.3098 106.899 50.6707 108.192 50.6464 109.561C50.5978 110.702 49.3827 112.325 48.0461 112.097Z" fill="#D4C7EF"/>
<path d="M17.7175 84.711C16.5024 84.9139 15.1901 83.3164 15.2144 82.0993C15.2387 80.9075 16.5024 79.4875 17.7418 79.5128C18.9083 79.5382 20.2449 80.7553 20.2449 82.1246C20.2449 83.4178 18.9326 84.9139 17.7175 84.711Z" fill="#D4C7EF"/>
<path d="M14.534 62.3713C13.2217 62.5235 12.0552 61.0274 12.0552 59.7849C12.0795 58.517 13.2217 57.2238 14.6312 57.2492C15.9192 57.2745 17.0857 58.4917 17.0614 59.8863C17.0614 61.0527 15.9921 62.5488 14.534 62.3713Z" fill="#D4C7EF"/>
<path d="M18.2278 52.6849C18.325 54.2063 17.1586 55.2713 15.7977 55.2713C14.5583 55.2967 13.3189 54.2063 13.3189 52.7102C13.3189 51.3409 14.5583 50.0984 15.7734 50.0984C17.1586 50.0984 18.325 51.3663 18.2278 52.6849Z" fill="#D4C7EF"/>
<path d="M28.872 101.421C27.7055 101.574 26.4175 100.179 26.4175 98.8097C26.4175 97.5164 27.7541 96.1725 28.9935 96.2486C30.1843 96.3247 31.3994 97.4911 31.3751 98.8857C31.3508 100.103 30.3058 101.574 28.872 101.421Z" fill="#D4C7EF"/>
<path d="M98.6667 31.2073C98.691 32.5259 97.5245 33.743 96.1879 33.743C94.8999 33.743 93.7334 32.4244 93.7334 31.1566C93.7334 29.9901 94.8999 28.5701 96.2851 28.5955C97.5245 28.6209 98.7396 29.8634 98.6667 31.2073Z" fill="#D4C7EF"/>
<path d="M101.777 36.7098C103.138 36.583 104.232 38.003 104.256 39.2455C104.256 40.6402 103.09 41.8066 101.826 41.8573C100.684 41.908 99.2985 40.6148 99.3228 39.2709C99.2985 37.9777 100.611 36.5577 101.777 36.7098Z" fill="#D4C7EF"/>
<path d="M63.9152 112.071C64.061 113.365 62.7973 114.607 61.4121 114.607C60.1241 114.607 58.9819 113.314 58.9576 112.071C58.9333 110.88 60.1241 109.434 61.485 109.46C62.7487 109.485 64.0853 110.778 63.9152 112.071Z" fill="#D4C7EF"/>
<path d="M19.4429 45.6102C19.5644 47.0048 18.1549 48.1966 17.0128 48.1966C15.8706 48.1966 14.534 46.9541 14.5583 45.6102C14.5826 44.1902 15.7977 43.0238 17.0128 43.0491C18.2764 43.0491 19.5158 44.2156 19.4429 45.6102Z" fill="#D4C7EF"/>
<path d="M97.6703 90.0107C97.5731 88.5146 98.8125 87.475 100.076 87.475C101.437 87.475 102.482 88.54 102.531 89.9346C102.579 91.3039 101.461 92.5464 100.1 92.5718C98.7639 92.5464 97.5488 91.3039 97.6703 90.0107Z" fill="#D4C7EF"/>
<path d="M13.3918 64.121C14.4854 63.9688 15.8949 65.4396 15.8463 66.7074C15.7977 68.026 14.4125 69.2685 13.3675 69.2431C12.1524 69.1924 10.9373 68.026 10.913 66.6313C10.913 65.541 12.0795 63.9942 13.3918 64.121Z" fill="#D4C7EF"/>
<path d="M50.0146 17.7426C48.7752 17.7933 47.5844 16.4747 47.633 15.1308C47.6816 13.7615 48.7752 12.6458 50.0632 12.6205C51.1081 12.5951 52.4933 13.7362 52.4933 15.2069C52.4933 16.5001 51.1081 17.8948 50.0146 17.7426Z" fill="#D4C7EF"/>
<path d="M41.2902 110.778C39.8807 110.854 38.8843 109.46 38.9086 108.243C38.9329 106.823 39.9536 105.758 41.3145 105.732C42.4567 105.707 43.7447 106.746 43.769 108.243C43.769 109.536 42.5296 110.905 41.2902 110.778Z" fill="#D4C7EF"/>
<path d="M70.6468 113.314C70.5738 114.81 69.6261 115.774 68.2652 115.824C67.0015 115.85 65.8593 114.709 65.8593 113.289C65.8593 112.046 66.9529 110.778 68.2652 110.804C69.6747 110.829 70.5981 111.945 70.6468 113.314Z" fill="#D4C7EF"/>
<path d="M91.1088 105.377C89.6507 105.25 88.8002 104.363 88.7516 102.918C88.7273 101.548 89.7722 100.433 91.1088 100.407C92.3725 100.407 93.5147 101.548 93.4661 102.918C93.4418 104.388 92.4454 105.276 91.1088 105.377Z" fill="#D4C7EF"/>
<path d="M107.391 45.1791C108.63 45.2045 109.748 46.3456 109.748 47.6388C109.773 48.932 108.582 50.1999 107.342 50.1238C105.909 50.0477 105.009 49.0841 105.009 47.6641C105.009 46.1934 105.909 45.3059 107.391 45.1791Z" fill="#D4C7EF"/>
<path d="M93.0044 22.7633C92.9558 24.0819 91.8622 25.2483 90.5985 25.2737C89.9667 25.2737 89.4077 24.9694 88.9703 24.513C88.5086 24.0312 88.2412 23.4226 88.2412 22.7887C88.2412 22.1801 88.5085 21.5462 88.946 21.0644C89.4077 20.5573 90.0153 20.2783 90.6471 20.2783C91.2303 20.2783 91.8379 20.5573 92.2996 21.039C92.6884 21.4955 93.0044 22.2308 93.0044 22.7633Z" fill="#D4C7EF"/>
<path d="M83.1379 106.265C83.6239 106.366 84.1828 106.442 84.6203 106.899C85.1063 107.406 85.4465 108.04 85.4708 108.75C85.4708 109.384 85.1549 110.018 84.7175 110.525C84.28 111.006 83.6968 111.235 83.1136 111.209C81.7284 111.184 80.7806 110.144 80.7077 108.8C80.6591 107.583 81.6311 106.341 83.1379 106.265Z" fill="#D4C7EF"/>
<path d="M20.6094 38.4848C20.5365 39.9048 19.6373 40.9445 18.2764 40.9698C16.8669 40.9952 15.9192 40.0063 15.8949 38.5862C15.8706 37.0648 16.7697 36.1012 18.2278 36.0759C19.5887 36.0505 20.4636 37.0141 20.6094 38.4848Z" fill="#D4C7EF"/>
<path d="M37.6207 19.7205C37.5477 21.039 36.5757 22.1548 35.2634 22.2308C34.0969 22.3069 32.8575 21.039 32.8818 19.7712C32.9061 19.1626 33.1005 18.5794 33.538 18.0723C33.9997 17.5398 34.6072 17.3115 35.2391 17.2608C36.3813 17.1847 37.5963 18.5033 37.6207 19.7205Z" fill="#D4C7EF"/>
<path d="M36.7458 106.975C36.7944 108.319 35.8223 109.358 34.4857 109.358C33.222 109.358 32.2014 108.319 32.2257 106.949C32.25 105.58 33.1977 104.616 34.4857 104.616C35.8466 104.616 36.7701 105.555 36.7458 106.975Z" fill="#D4C7EF"/>
<path d="M27.2195 27.9109C25.9072 27.9362 24.9351 27.0234 24.9108 25.5526C24.8865 24.1833 26.0044 23.1944 27.1466 23.1691C28.4346 23.1691 29.5039 24.1833 29.4553 25.578C29.4553 27.0234 28.5804 27.9109 27.2195 27.9109Z" fill="#D4C7EF"/>
<path d="M12.1524 76.0896C10.7672 76.115 9.94094 75.1514 9.94094 73.7314C9.94094 72.3874 10.8158 71.3985 12.1767 71.3731C13.4647 71.3478 14.4854 72.4635 14.4611 73.7567C14.4125 75.1514 13.3918 76.1657 12.1524 76.0896Z" fill="#D4C7EF"/>
<path d="M101.097 97.1107C101.145 98.4547 100.198 99.3675 98.8854 99.3929C97.6703 99.4182 96.601 98.3786 96.601 97.06C96.601 95.8175 97.7918 94.6764 98.8854 94.7018C100.028 94.7525 101.218 95.7414 101.097 97.1107Z" fill="#D4C7EF"/>
<path d="M112.737 70.2321C112.859 71.3224 111.741 72.6157 110.526 72.5396C109.238 72.4635 108.339 71.4999 108.29 70.156C108.242 68.9896 109.432 67.8231 110.575 67.8738C111.765 67.9246 112.81 68.9135 112.737 70.2321Z" fill="#D4C7EF"/>
<path d="M45.4701 13.939C45.6159 15.0294 44.4494 16.2719 43.2101 16.2465C42.1408 16.2465 40.95 15.0801 40.9986 13.863C41.0472 12.6204 42.0436 11.5554 43.283 11.5808C44.4981 11.6315 45.543 12.6458 45.4701 13.939Z" fill="#D4C7EF"/>
<path d="M111.498 77.0785C111.571 78.4225 110.477 79.3607 109.335 79.386C108.12 79.4114 107.026 78.2196 107.075 77.0278C107.148 75.7346 108.096 74.771 109.311 74.6949C110.429 74.6442 111.644 75.8107 111.498 77.0785Z" fill="#D4C7EF"/>
<path d="M73.6116 11.8851C73.7088 13.1783 72.6395 14.1419 71.473 14.1926C70.185 14.218 69.2129 12.9754 69.1886 11.9358C69.1643 10.7694 70.3794 9.52687 71.4487 9.55223C72.4937 9.55223 73.7574 10.6172 73.6116 11.8851Z" fill="#D4C7EF"/>
<path d="M24.3519 97.6179C24.3519 98.835 23.2826 99.8747 22.0918 99.9254C20.9739 99.9761 19.8561 98.6575 19.9047 97.5418C19.9533 96.2993 20.9496 95.3104 22.1161 95.2596C23.234 95.2343 24.4491 96.5022 24.3519 97.6179Z" fill="#D4C7EF"/>
<path d="M18.7382 89.2246C18.8597 90.4164 17.5474 91.5829 16.4781 91.5321C15.2873 91.4814 14.3396 90.4925 14.291 89.2246C14.2667 88.185 15.3359 86.841 16.551 86.9171C17.7418 86.9678 18.7382 87.9821 18.7382 89.2246Z" fill="#D4C7EF"/>
<path d="M80.4161 13.1276C80.489 14.4969 79.2982 15.4351 78.2046 15.4605C77.2325 15.4858 75.9445 14.4969 75.9931 13.1783C76.0417 11.9104 76.9652 10.9215 78.156 10.8201C79.2253 10.744 80.5619 12.0119 80.4161 13.1276Z" fill="#D4C7EF"/>
<path d="M66.8314 10.6679C67.0258 11.7583 65.5677 13.0262 64.5713 12.9754C63.6235 12.9247 62.3841 11.9358 62.4328 10.5919C62.4814 9.42544 63.3805 8.30972 64.6685 8.36044C65.9322 8.41115 66.8314 9.32401 66.8314 10.6679Z" fill="#D4C7EF"/>
<path d="M75.0697 116.864C73.8789 116.94 72.8582 115.748 72.8582 114.607C72.8582 113.365 73.8546 112.35 75.0454 112.325C76.1146 112.3 77.2325 113.365 77.2568 114.607C77.3054 115.723 76.1146 116.965 75.0697 116.864Z" fill="#D4C7EF"/>
<path d="M113.928 63.1574C114.001 64.2985 112.908 65.4142 111.717 65.4142C110.769 65.4142 109.53 64.3745 109.554 63.0813C109.554 62.067 110.672 60.7992 111.814 60.8245C112.859 60.8245 114.05 61.9656 113.928 63.1574Z" fill="#D4C7EF"/>
<path d="M19.4186 33.6669C18.1063 33.5402 17.3287 32.7794 17.2801 31.3848C17.2315 30.1676 18.2764 29.1534 19.4429 29.1026C20.4636 29.0519 21.703 30.3451 21.6301 31.4355C21.5815 32.6527 20.5851 33.6669 19.4186 33.6669Z" fill="#D4C7EF"/>
<path d="M105.957 84.1532C105.909 83.0628 106.832 81.9217 108.096 81.871C109.359 81.8203 110.356 83.1643 110.332 84.2039C110.283 85.4211 109.287 86.41 108.096 86.4353C106.832 86.4607 105.86 85.1675 105.957 84.1532Z" fill="#D4C7EF"/>
<path d="M60.2213 9.37472C60.1484 10.6679 59.2006 11.6062 58.0098 11.6315C56.9649 11.6569 55.7984 10.4144 55.8713 9.32401C55.9442 8.10686 56.8433 7.06722 58.0584 7.11793C59.4193 7.16865 60.0755 7.92936 60.2213 9.37472Z" fill="#D4C7EF"/>
<path d="M103.017 29.9141C104.232 29.9648 105.131 30.8523 105.155 32.1962C105.18 33.4894 103.94 34.453 102.968 34.453C102.02 34.453 100.781 33.3627 100.83 32.1455C100.878 30.8523 101.923 29.9141 103.017 29.9141Z" fill="#D4C7EF"/>
<path d="M87.1477 14.3955C87.0261 15.5872 86.3214 16.5508 84.9848 16.6015C83.8912 16.6522 82.8948 15.5365 82.8948 14.3955C82.8948 13.2544 83.9155 12.164 85.0091 12.1894C86.2971 12.2654 87.0504 13.3051 87.1477 14.3955Z" fill="#D4C7EF"/>
<path d="M108.582 42.6941C107.197 42.5673 106.54 41.8827 106.492 40.5134C106.443 39.2455 107.415 38.358 108.582 38.3327C109.675 38.3073 110.72 39.2709 110.672 40.5134C110.647 41.8066 109.894 42.618 108.582 42.6941Z" fill="#D4C7EF"/>
<path d="M27.6569 107.913C27.1952 107.811 26.6849 107.735 26.296 107.33C25.8829 106.899 25.6156 106.315 25.5913 105.732C25.5913 105.124 25.8829 104.54 26.3203 104.084C26.7092 103.678 27.1952 103.551 27.6812 103.526C28.7505 103.45 29.7955 104.566 29.7955 105.707C29.7955 106.873 28.7991 107.913 27.6569 107.913Z" fill="#D4C7EF"/>
<path d="M13.003 80.9075C13.0516 82.2514 11.7879 83.0882 10.9373 83.0375C9.96524 83.0121 8.84736 82.226 8.89596 80.806C8.94457 79.31 9.86803 78.7014 10.9616 78.7014C12.0552 78.7014 13.003 79.4621 13.003 80.9075Z" fill="#D4C7EF"/>
<path d="M97.4516 26.2373C96.1393 26.1105 95.4102 25.3244 95.313 24.0819C95.2644 23.4987 95.5561 22.9662 95.9449 22.5351C96.358 22.0787 96.917 21.8505 97.4273 21.8758C97.9619 21.8758 98.4966 22.1294 98.9097 22.5605C99.3228 22.9916 99.4686 23.5494 99.4929 24.0819C99.5415 25.223 98.5452 26.2119 97.4516 26.2373Z" fill="#D4C7EF"/>
<path d="M115.022 55.9813C115.07 57.2999 114.074 58.1113 113.005 58.1113C111.935 58.1113 110.939 57.4267 110.915 56.032C110.89 54.8149 111.814 53.8259 112.98 53.8259C114.05 53.8259 114.997 54.8402 115.022 55.9813Z" fill="#D4C7EF"/>
<path d="M55.4824 117.878C55.4338 119.172 54.6805 119.983 53.4411 120.008C52.2746 120.034 51.3998 119.095 51.3755 117.878C51.3511 116.712 52.2989 115.723 53.4168 115.723C54.5833 115.748 55.4581 116.636 55.4824 117.878Z" fill="#D4C7EF"/>
<path d="M7.75378 56.4377C8.94457 56.4377 9.74653 57.3252 9.81943 58.5424C9.86803 59.5567 8.84736 60.7231 7.77808 60.6724C6.6359 60.647 5.78534 59.6581 5.76104 58.5931C5.73674 57.452 6.6845 56.3363 7.75378 56.4377Z" fill="#D4C7EF"/>
<path d="M48.8724 116.61C48.921 117.701 48.1433 118.74 46.8553 118.715C45.5916 118.69 44.8869 117.777 44.8626 116.61C44.814 115.444 45.7374 114.455 46.8553 114.43C47.9732 114.43 48.9939 115.545 48.8724 116.61Z" fill="#D4C7EF"/>
<path d="M91.8622 110.018C92.008 111.057 90.8172 112.173 89.8694 112.122C88.7273 112.046 87.9253 111.235 87.8524 110.043C87.7795 109.003 88.8731 107.888 89.8937 107.913C90.9144 107.938 91.9837 108.902 91.8622 110.018Z" fill="#D4C7EF"/>
<path d="M8.96887 49.3884C10.1111 49.287 10.9859 50.3013 10.9859 51.4424C10.9859 52.5074 10.2812 53.547 8.99317 53.547C7.80239 53.547 7.00043 52.7356 7.00043 51.4931C6.97613 50.1238 7.9725 49.3124 8.96887 49.3884Z" fill="#D4C7EF"/>
<path d="M108.898 91.2532C109.019 92.2675 107.95 93.3579 106.881 93.3325C105.787 93.3071 104.864 92.4704 104.864 91.2786C104.864 90.0868 105.763 89.2246 106.881 89.1993C107.95 89.1232 109.019 90.2643 108.898 91.2532Z" fill="#D4C7EF"/>
<path d="M60.2213 121.225C59.1763 121.352 58.2285 120.16 58.2528 119.121C58.2772 118.107 59.1034 117.016 60.2699 117.067C61.3878 117.118 62.2383 117.98 62.2383 119.172C62.2383 120.287 61.3149 121.225 60.2213 121.225Z" fill="#D4C7EF"/>
<path d="M30.403 18.5287C30.403 19.6444 29.4553 20.5826 28.3617 20.5573C27.2681 20.5319 26.4661 19.619 26.4418 18.4019C26.4175 17.2608 27.4382 16.3987 28.4589 16.3987C29.358 16.3987 30.5488 17.3622 30.403 18.5287Z" fill="#D4C7EF"/>
<path d="M99.5901 104.211C99.6874 105.225 98.7639 106.265 97.646 106.265C96.5038 106.29 95.6533 105.124 95.7019 104.135C95.7505 102.968 96.5524 102.157 97.6946 102.106C98.691 102.055 99.736 103.196 99.5901 104.211Z" fill="#D4C7EF"/>
<path d="M40.0994 117.346C39.1031 117.422 38.131 116.509 38.1067 115.343C38.0824 114.151 39.176 113.289 40.0994 113.314C41.2173 113.339 42.0436 114.201 42.0922 115.343C42.1165 116.433 41.0229 117.473 40.0994 117.346Z" fill="#D4C7EF"/>
<path d="M53.1738 8.05615C53.1738 9.29865 52.3961 10.0594 51.2539 10.1354C50.1361 10.2115 49.2612 9.01972 49.2612 8.08151C49.2612 7.06722 50.0632 5.97686 51.2053 6.00221C52.4204 6.07829 53.1738 6.839 53.1738 8.05615Z" fill="#D4C7EF"/>
<path d="M10.1354 46.3963C9.04177 46.3709 8.26412 45.4834 8.23982 44.2916C8.23982 43.3027 9.04178 42.263 10.2569 42.2884C11.2775 42.3138 12.1524 43.1759 12.1524 44.393C12.1767 45.4327 11.156 46.5231 10.1354 46.3963Z" fill="#D4C7EF"/>
<path d="M38.3497 12.6458C38.4469 13.584 37.4991 14.6997 36.4299 14.6997C35.3363 14.6997 34.4614 13.5587 34.4857 12.6458C34.5343 11.5808 35.312 10.5919 36.4299 10.5919C37.5477 10.6172 38.374 11.5554 38.3497 12.6458Z" fill="#D4C7EF"/>
<path d="M6.563 63.3856C7.41356 63.3095 8.48283 64.197 8.50714 65.3381C8.53144 66.5553 7.36495 67.4174 6.563 67.3921C5.59092 67.3413 4.61885 66.5806 4.61885 65.4142C4.61885 64.2224 5.56662 63.3856 6.563 63.3856Z" fill="#D4C7EF"/>
<path d="M81.8742 113.821C82.992 113.923 83.7211 114.633 83.7697 115.85C83.8183 117.042 82.7733 117.878 81.8499 117.853C80.9264 117.828 79.93 117.067 79.9786 115.824C80.0272 114.607 80.7563 113.923 81.8742 113.821Z" fill="#D4C7EF"/>
<path d="M112.276 49.0841C112.276 47.8923 113.199 46.9034 114.147 46.9034C115.095 46.9034 116.091 47.9177 116.091 48.9066C116.091 49.8449 115.022 50.9859 114.147 50.9352C113.637 50.9099 113.199 50.6309 112.835 50.2759C112.47 49.9209 112.3 49.4138 112.276 49.0841Z" fill="#D4C7EF"/>
<path d="M119.25 71.221C119.202 72.3114 118.351 73.2242 117.33 73.1735C116.261 73.1228 115.484 72.4128 115.459 71.221C115.435 70.0292 116.383 69.2685 117.379 69.2431C118.351 69.2685 119.226 70.1814 119.25 71.221Z" fill="#D4C7EF"/>
<path d="M20.658 26.2626C19.5158 26.1358 18.8597 25.5019 18.7868 24.3101C18.7382 23.2705 19.6616 22.3323 20.6337 22.3323C21.6301 22.3323 22.5536 23.2958 22.5536 24.3355C22.5293 25.3498 21.6544 26.2626 20.658 26.2626Z" fill="#D4C7EF"/>
<path d="M74.535 4.81042C74.5107 5.79936 73.5387 6.78829 72.6395 6.78829C71.7646 6.78829 70.7197 5.69793 70.744 4.78507C70.744 3.84685 71.7646 2.8072 72.6881 2.83256C73.6116 2.83256 74.5593 3.82149 74.535 4.81042Z" fill="#D4C7EF"/>
<path d="M93.7091 15.6633C93.6362 16.7283 92.9315 17.6412 91.8622 17.6412C90.8172 17.6665 89.991 16.8297 89.991 15.6887C89.991 14.5983 90.6228 13.7869 91.8136 13.6855C92.7614 13.6601 93.6848 14.649 93.7091 15.6633Z" fill="#D4C7EF"/>
<path d="M65.1789 120.439C65.1546 119.4 66.0537 118.462 67.0501 118.462C68.0222 118.462 68.9213 119.4 68.9213 120.414C68.9213 121.428 67.9979 122.417 67.0744 122.417C66.1509 122.417 65.2032 121.428 65.1789 120.439Z" fill="#D4C7EF"/>
<path d="M103.77 98.3532C103.77 97.415 104.766 96.3754 105.666 96.35C106.54 96.35 107.61 97.415 107.561 98.3279C107.513 99.3422 106.783 100.331 105.641 100.28C104.548 100.255 103.916 99.5197 103.77 98.3532Z" fill="#D4C7EF"/>
<path d="M15.2873 94.3468C16.3323 94.3975 17.1343 95.3104 17.1829 96.2993C17.2072 97.2882 16.2837 98.2772 15.3116 98.2772C14.3882 98.2772 13.4161 97.4404 13.4161 96.3247C13.4404 95.2597 14.2181 94.4736 15.2873 94.3468Z" fill="#D4C7EF"/>
<path d="M117.987 78.2957C117.962 79.4367 117.136 80.2482 116.14 80.2735C115.168 80.2989 114.268 79.3607 114.268 78.321C114.244 77.2814 115.24 76.3939 116.091 76.3685C116.893 76.3432 117.962 77.1039 117.987 78.2957Z" fill="#D4C7EF"/>
<path d="M35.1662 114.049C35.1905 115.064 34.3642 115.977 33.3435 115.977C32.8818 115.977 32.4444 115.875 32.0555 115.52C31.6424 115.14 31.448 114.582 31.4237 114.1C31.3994 113.644 31.5938 113.136 31.9583 112.756C32.3472 112.35 32.8089 112.173 33.2949 112.148C34.267 112.097 35.1419 113.035 35.1662 114.049Z" fill="#D4C7EF"/>
<path d="M65.8107 5.419C64.79 5.44435 63.9881 4.53149 64.0367 3.49185C64.061 2.42684 64.7414 1.59006 65.8593 1.61541C66.8557 1.64077 67.7305 2.52827 67.6576 3.51721C67.609 4.48078 66.9529 5.46971 65.8107 5.419Z" fill="#D4C7EF"/>
<path d="M13.2703 37.2423C13.1974 38.3834 12.5169 39.1441 11.399 39.1695C10.4756 39.1948 9.47921 38.2059 9.55211 37.2423C9.62502 36.2534 10.3055 35.2645 11.4476 35.2898C12.3954 35.3405 13.246 36.1012 13.2703 37.2423Z" fill="#D4C7EF"/>
<path d="M9.69792 86.131C10.5485 86.055 11.5206 86.7143 11.4963 87.9314C11.4963 89.0978 10.7186 89.7571 9.72222 89.7825C8.70155 89.8079 7.94819 88.9964 7.92389 87.9821C7.89959 86.8664 8.82306 86.055 9.69792 86.131Z" fill="#D4C7EF"/>
<path d="M7.12194 72.4889C7.19484 73.5032 6.41718 74.3146 5.37221 74.3399C4.32723 74.3906 3.57388 73.3764 3.54958 72.5142C3.50097 71.4746 4.49734 70.6378 5.32361 70.6378C6.22277 70.6631 7.21914 71.3731 7.12194 72.4889Z" fill="#D4C7EF"/>
<path d="M22.6265 104.464C22.6508 105.428 21.9946 106.341 20.8524 106.29C19.8561 106.239 19.1513 105.58 19.127 104.439C19.1027 103.196 19.9776 102.639 20.9253 102.613C22.0189 102.613 22.6994 103.45 22.6265 104.464Z" fill="#D4C7EF"/>
<path d="M46.1992 6.839C46.1992 7.87865 45.4458 8.63937 44.4494 8.63937C43.4045 8.63937 42.724 7.87865 42.724 6.76293C42.724 5.72328 43.4774 4.96257 44.4981 4.98792C45.4458 4.98792 46.1992 5.82471 46.1992 6.839Z" fill="#D4C7EF"/>
<path d="M94.7298 111.285C94.6812 110.22 95.4345 109.485 96.4309 109.46C97.5245 109.434 98.1563 110.347 98.1806 111.26C98.2049 112.274 97.403 113.111 96.4552 113.086C95.5561 113.086 94.6569 112.401 94.7298 111.285Z" fill="#D4C7EF"/>
<path d="M104.207 23.5748C105.034 23.4226 106.006 24.4623 105.982 25.3751C105.957 26.1612 105.082 27.2009 104.232 27.1755C103.333 27.1501 102.409 26.2626 102.458 25.3751C102.506 24.2848 103.163 23.5748 104.207 23.5748Z" fill="#D4C7EF"/>
<path d="M27.9242 11.3779C27.7784 10.4144 28.8477 9.50151 29.6497 9.55223C30.5974 9.60294 31.3265 10.3383 31.3508 11.3526C31.3508 12.4429 30.6703 13.1276 29.6497 13.1783C28.7019 13.229 27.827 12.3162 27.9242 11.3779Z" fill="#D4C7EF"/>
<path d="M109.845 35.1884C109.092 35.2645 108.12 34.5037 108.096 33.4894C108.096 32.4244 108.971 31.6891 109.797 31.6637C110.623 31.613 111.474 32.4498 111.498 33.4134C111.522 34.4023 110.599 35.2898 109.845 35.1884Z" fill="#D4C7EF"/>
<path d="M120.198 64.3745C120.198 65.2874 119.372 66.1749 118.521 66.1749C117.695 66.1749 116.844 65.2367 116.82 64.3745C116.796 63.4617 117.841 62.5488 118.521 62.5742C119.42 62.5995 120.198 63.4363 120.198 64.3745Z" fill="#D4C7EF"/>
<path d="M90.3555 117.092C90.4041 118.183 89.432 118.842 88.703 118.867C87.8281 118.893 87.0261 118.132 87.0018 117.118C86.9775 116.154 87.7552 115.343 88.6544 115.343C89.4077 115.368 90.3798 116.053 90.3555 117.092Z" fill="#D4C7EF"/>
<path d="M73.8546 123.432C72.9311 123.508 72.1292 122.443 72.1292 121.682C72.1535 120.87 72.9311 119.907 73.8303 119.907C74.5593 119.907 75.5557 120.693 75.5314 121.657C75.5314 122.62 74.7781 123.406 73.8546 123.432Z" fill="#D4C7EF"/>
<path d="M79.444 7.77722C78.5934 7.75186 77.7672 7.0165 77.7672 6.05293C77.7915 5.03864 78.5448 4.32864 79.4683 4.30328C80.2946 4.27792 81.1694 5.19078 81.1208 6.05293C81.0479 6.94043 80.4404 7.7265 79.444 7.77722Z" fill="#D4C7EF"/>
<path d="M14.3153 30.1169C14.2424 31.0552 13.6348 31.7905 12.6627 31.8412C11.8365 31.8919 10.9859 30.9791 10.9859 30.1169C10.9859 29.2801 11.8122 28.418 12.6384 28.3926C13.4161 28.3926 14.291 29.2548 14.3153 30.1169Z" fill="#D4C7EF"/>
<path d="M116.796 41.8066C116.699 42.8209 116.042 43.5056 115.119 43.5309C114.293 43.5563 113.466 42.618 113.491 41.7559C113.515 40.8938 114.341 40.0316 115.143 40.0316C115.97 40.057 116.796 40.9445 116.796 41.8066Z" fill="#D4C7EF"/>
<path d="M5.78534 79.6396C5.76104 80.4257 4.88617 81.3639 4.13282 81.3639C3.35516 81.3639 2.456 80.4003 2.4803 79.5635C2.5046 78.7014 3.37946 77.7378 4.15712 77.8392C5.08059 77.9407 5.76104 78.6507 5.78534 79.6396Z" fill="#D4C7EF"/>
<path d="M24.8379 112.807C24.8379 111.919 25.6399 111.057 26.4904 111.057C27.2924 111.057 28.1673 111.945 28.143 112.807C28.143 113.72 27.341 114.531 26.4661 114.506C25.5913 114.48 24.8379 113.694 24.8379 112.807Z" fill="#D4C7EF"/>
<path d="M100.173 17.0326C100.246 17.8948 99.3714 18.6048 98.5209 18.554C97.6703 18.5033 97.0628 17.9201 97.1114 16.9312C97.1357 15.9422 97.646 15.359 98.6181 15.3337C99.5172 15.3083 100.271 16.1451 100.173 17.0326Z" fill="#D4C7EF"/>
<path d="M21.5572 18.7569C20.7795 18.833 20.0505 18.0723 20.1234 17.1087C20.1963 16.2212 20.8281 15.5872 21.703 15.5872C22.3834 15.5872 23.1854 16.2972 23.1611 17.2608C23.1368 18.199 22.3348 18.8583 21.5572 18.7569Z" fill="#D4C7EF"/>
<path d="M59.0305 0.702553C59.8811 0.601124 60.5372 1.43791 60.5615 2.19863C60.5858 3.06078 59.8568 3.87221 59.0548 3.87221C58.3015 3.87221 57.5238 3.03542 57.5238 2.2747C57.4752 1.41256 58.2772 0.601124 59.0305 0.702553Z" fill="#D4C7EF"/>
<path d="M116.383 85.4464C116.383 86.3593 115.799 86.8918 114.876 86.9678C114.074 87.0186 113.345 86.2071 113.418 85.421C113.466 84.4828 114.05 83.8489 114.949 83.8743C115.775 83.8743 116.383 84.5589 116.383 85.4464Z" fill="#D4C7EF"/>
<path d="M118.084 57.2745C118.011 56.4124 118.764 55.7531 119.518 55.7531C120.32 55.7784 120.976 56.4124 121 57.2745C121 57.9338 120.368 58.8213 119.542 58.796C118.716 58.7706 118.084 58.1367 118.084 57.2745Z" fill="#D4C7EF"/>
<path d="M86.2485 5.82471C87.1233 5.92614 87.6094 6.40793 87.658 7.32079C87.6823 8.13222 87.0018 8.81687 86.2242 8.81687C85.4951 8.81687 84.7661 8.05615 84.7904 7.29543C84.8147 6.50936 85.4708 5.82471 86.2485 5.82471Z" fill="#D4C7EF"/>
<path d="M113.515 94.1186C112.762 94.0932 112.276 93.6114 112.178 92.6732C112.106 92.0139 112.494 91.2279 113.029 91.0504C113.904 90.7714 114.754 91.0504 115.07 91.6843C115.143 91.8364 115.143 91.8871 115.046 92.0393C114.876 92.3182 114.754 92.5971 114.511 92.8254C114.366 92.9775 114.196 93.2818 114.147 93.5861C114.074 93.9664 113.831 94.1186 113.515 94.1186Z" fill="#D4C7EF"/>
<path d="M52.4933 2.78185C51.4484 2.83256 50.7922 1.79291 51.0838 0.702553C51.181 0.322195 51.3268 0.246123 51.7157 0.246123C51.983 0.246123 52.2503 0.246123 52.5176 0.246123C52.6634 0.246123 52.8093 0.246123 52.9308 0.119337C53.1252 -0.0835207 53.3439 -0.007449 53.514 0.195409C53.9271 0.651839 54.0243 1.18434 53.8542 1.76756C53.6598 2.40149 53.1495 2.75649 52.4933 2.78185Z" fill="#D4C7EF"/>
<path d="M39.1031 5.774C39.1274 6.45864 38.374 7.29543 37.6936 7.27007C36.8187 7.24472 36.3813 6.68686 36.2598 5.85007C36.2111 5.44436 36.4056 5.11471 36.6243 4.81042C36.8916 4.43007 37.3533 4.43007 37.6936 4.35399C38.3011 4.22721 39.0788 5.08935 39.1031 5.774Z" fill="#D4C7EF"/>
<path d="M5.10489 43.1252C5.10489 44.1902 4.05991 45.0777 3.06354 44.8748C2.82052 44.8241 2.72332 44.6213 2.5289 44.5198C2.4803 44.4945 2.4803 44.3931 2.5289 44.3677C2.72332 44.2663 2.62611 44.0381 2.69901 43.9113C2.89343 43.5563 2.91773 43.1506 3.06354 42.7702C3.18505 42.4152 3.37946 42.0602 3.40377 41.6798C3.42807 41.2741 3.59818 41.1727 3.96271 41.3502C4.54595 41.5784 5.2021 42.4659 5.10489 43.1252Z" fill="#D4C7EF"/>
<path d="M0.00151886 57.9085C0.0258206 57.6802 -0.0227829 57.452 0.171631 57.2492C0.341744 57.0463 0.244537 56.6913 0.244537 56.4124C0.268838 55.8292 0.317442 55.8038 0.876382 55.7277C1.58113 55.6517 1.99426 56.0574 2.35879 56.5645C2.57751 56.8434 2.456 57.731 2.26158 58.0606C1.92136 58.6185 1.48393 58.8974 0.827779 58.8213C0.14733 58.7706 0.00151886 58.6438 0.00151886 57.9085Z" fill="#D4C7EF"/>
<path d="M45.7131 122.164C46.345 122.088 46.7095 122.544 47.0254 123.051C47.2685 123.457 47.1469 124.37 46.8067 124.699C46.7095 124.801 46.5637 125.08 46.3693 124.775C46.2964 124.674 46.1506 124.725 46.0291 124.725C45.786 124.725 45.543 124.775 45.3486 124.522C45.2757 124.446 45.057 124.471 44.9112 124.471C44.3765 124.446 44.2064 124.268 44.2064 123.71C44.1821 122.874 44.8383 122.164 45.7131 122.164Z" fill="#D4C7EF"/>
<path d="M15.822 103.425C15.8463 104.059 15.5303 104.49 15.0929 104.845C14.9714 104.946 14.8985 104.921 14.8013 104.794C14.4611 104.363 13.975 104.084 13.7806 103.501C13.6834 103.222 13.3432 103.019 13.1245 102.765C12.8085 102.41 12.8328 102.131 13.1974 101.903C13.7563 101.574 14.3153 101.498 14.8985 101.853C15.4574 102.233 15.7977 102.715 15.822 103.425Z" fill="#D4C7EF"/>
<path d="M104.451 106.823C103.576 106.797 103.187 106.214 103.114 105.453C103.041 104.794 103.843 103.983 104.451 103.983C105.082 103.983 105.86 104.819 105.811 105.453C105.763 106.062 105.228 106.848 104.451 106.823Z" fill="#D4C7EF"/>
<path d="M59.0548 126.474C58.5931 126.474 58.1313 126.474 57.6453 126.474C57.4023 126.474 57.3051 126.398 57.3051 126.119C57.2565 125.257 58.0584 124.547 58.6903 124.471C59.5651 124.344 60.2213 124.674 60.6344 125.511C60.6344 125.536 60.6587 125.536 60.6587 125.562C60.7316 125.815 60.8045 126.094 60.7073 126.322C60.6101 126.576 60.3428 126.449 60.1241 126.449C59.7839 126.5 59.4193 126.474 59.0548 126.474Z" fill="#D4C7EF"/>
<path d="M52.3475 123.634C53.0523 123.558 53.3925 123.939 53.6841 124.37C53.9028 124.725 53.7813 125.587 53.514 125.84C53.3439 126.018 53.1981 126.297 52.8093 126.018C52.6148 125.866 52.2503 125.993 51.9587 125.967C51.4484 125.967 51.3512 125.866 51.2296 125.308C51.1324 124.75 51.2296 124.319 51.6185 123.888C51.9101 123.634 52.1774 123.685 52.3475 123.634Z" fill="#D4C7EF"/>
<path d="M2.23728 48.8559C2.96633 48.8813 3.37946 49.287 3.40377 50.0477C3.42807 50.5549 3.35516 50.9859 2.91773 51.3156C2.38309 51.6959 1.36242 51.5184 1.0951 50.9099C0.973589 50.6816 0.924986 50.3774 1.1194 50.1745C1.26521 50.0224 1.24091 49.8956 1.24091 49.7434C1.26521 49.0841 1.43532 48.9066 2.06717 48.8559C2.11577 48.8559 2.18868 48.8559 2.23728 48.8559Z" fill="#D4C7EF"/>
<path d="M9.11468 96.5782C8.70155 96.1471 8.48283 95.6907 8.23982 95.2089C8.06971 94.9047 7.82669 94.6004 7.63227 94.2707C7.46216 93.9918 7.55937 93.7129 7.85099 93.5861C8.53144 93.2818 9.50351 93.6114 9.89234 94.2707C10.2326 94.8286 10.0624 95.8429 9.52781 96.2232C9.382 96.3247 9.26049 96.4514 9.11468 96.5782Z" fill="#D4C7EF"/>
<path d="M15.263 23.0423C15.2144 23.5494 15.02 24.0058 14.5826 24.2848C14.1208 24.5891 13.6348 24.5891 13.1488 24.2848C12.8815 24.1326 12.8328 23.8537 13.003 23.5748C13.0273 23.5241 13.0759 23.4733 13.1245 23.448C13.5619 22.9916 13.8778 22.4083 14.3153 21.9265C14.4611 21.7744 14.5583 21.7237 14.6798 21.8505C14.9714 22.1801 15.2144 22.5605 15.263 23.0423Z" fill="#D4C7EF"/>
<path d="M79.7113 123.432C79.1767 123.457 79.201 123.457 79.1767 123C79.1281 122.24 79.6141 121.707 80.2459 121.504C80.9507 121.276 81.7041 121.657 81.9957 122.316C82.0929 122.493 82.1415 122.62 81.8256 122.747C81.3638 122.95 80.9021 123.127 80.4161 123.203C80.1487 123.229 79.9786 123.634 79.7113 123.432Z" fill="#D4C7EF"/>
<path d="M0.123028 66.0735C-0.0227829 65.9213 0.00151886 65.7438 0.00151886 65.5917C0.00151886 64.7803 0.00151886 63.9688 0.00151886 63.1828C0.00151886 62.6249 0.0987259 62.5995 0.536158 62.8785C1.04649 63.1828 1.43532 63.6645 1.45962 64.3492C1.48393 65.0338 1.1437 65.5156 0.609063 65.8706C0.463252 65.9213 0.29314 65.9721 0.123028 66.0735Z" fill="#D4C7EF"/>
<path d="M37.4748 121.834C38.1067 120.642 39.6134 120.566 40.2695 121.733C40.4397 122.037 40.4397 122.443 40.3668 122.798C40.2938 123.051 40.0265 123.026 39.9536 122.924C39.662 122.62 39.2489 122.722 38.9329 122.493C38.4955 122.164 37.9366 122.113 37.4748 121.834Z" fill="#D4C7EF"/>
<path d="M111.425 28.0376C110.599 28.3673 109.918 28.1644 109.481 27.4291C109.214 26.9726 109.214 26.0598 109.53 25.6794C109.724 25.4512 109.943 25.4766 110.016 25.7555C110.064 25.933 110.161 26.0091 110.259 26.1105C110.477 26.3641 110.672 26.643 110.818 26.9473C111.012 27.3276 111.304 27.6319 111.425 28.0376Z" fill="#D4C7EF"/>
<path d="M120.538 51.0113C120.514 51.1634 120.611 51.417 120.417 51.4931C120.198 51.5691 120.028 51.4677 119.858 51.2902C119.275 50.7577 119.202 49.7941 119.712 49.1856C119.785 49.1095 119.858 49.0081 120.004 49.0841C120.125 49.1602 120.247 49.1856 120.222 49.3631C120.222 49.5913 120.222 49.7941 120.222 50.0224C120.222 50.1238 120.222 50.2759 120.271 50.3013C120.611 50.4534 120.514 50.7577 120.538 51.0113Z" fill="#D4C7EF"/>
<path d="M93.4904 9.50151C93.4661 9.65365 93.1502 9.85651 92.9801 9.8058C92.5183 9.65365 92.1052 9.42544 91.9351 8.89294C91.9108 8.81687 91.8622 8.74079 91.9594 8.69008C92.0566 8.63937 92.1781 8.58865 92.2267 8.66472C92.5183 9.07044 92.9801 9.19722 93.3932 9.37472C93.4661 9.40008 93.4904 9.4508 93.4904 9.50151Z" fill="#D4C7EF"/>
<path d="M4.59455 86.6889C4.57025 86.841 4.57025 86.9678 4.44874 86.9425C4.35153 86.9425 4.15712 86.9425 4.18142 86.7903C4.25433 86.4353 3.96271 86.2071 3.93841 85.9028C3.93841 85.776 3.8898 85.7 3.74399 85.6493C3.57388 85.5732 3.59818 85.421 3.69539 85.2943C3.8169 85.1421 3.8655 85.2943 3.96271 85.3703C4.44874 85.6746 4.42444 86.2578 4.59455 86.6889Z" fill="#D4C7EF"/>
<path d="M21.0225 111.235C20.6823 110.829 20.2692 110.575 19.8318 110.296C19.7346 110.246 19.6616 110.195 19.7102 110.068C19.7346 109.992 19.8318 109.992 19.9047 109.992C20.415 109.967 21.0225 110.601 21.0225 111.235Z" fill="#D4C7EF"/>
<path d="M65.1789 126.297C65.4705 126.17 65.7621 126.069 66.078 126.17C66.1752 126.195 66.2724 126.221 66.2481 126.348C66.2481 126.449 66.1509 126.449 66.078 126.449C65.7864 126.449 65.4948 126.449 65.1789 126.449C65.2032 126.424 65.1789 126.348 65.1789 126.297Z" fill="#D4C7EF"/>
<path d="M5.44511 36.862C5.39651 36.4562 5.66383 36.152 5.66383 35.6448C5.90685 36.2787 5.90685 36.3802 5.44511 36.862Z" fill="#D4C7EF"/>
<path d="M46.1263 1.59006C45.9319 1.71684 45.7131 1.71684 45.4215 1.66613C45.6645 1.36184 45.9076 1.51398 46.1263 1.59006Z" fill="#D4C7EF"/>
<path d="M111.231 98.6575C111.231 98.7589 111.206 98.835 111.109 98.835C111.012 98.835 110.988 98.7589 110.988 98.6829C111.012 98.5815 111.036 98.4547 111.158 98.48C111.231 98.48 111.231 98.5815 111.231 98.6575Z" fill="#D4C7EF"/>
</svg>
