<svg width="325" height="321" viewBox="0 0 325 321" fill="none" xmlns="http://www.w3.org/2000/svg">
<path d="M322.769 155.277C319.188 185.625 305.372 220.907 277.73 237.118C235.984 261.609 239.474 299.28 157.993 315.689C146.112 318.136 134 319.281 121.871 319.104C115.934 318.999 110.009 318.514 104.133 317.65C52.3705 310.071 17.5027 274.02 4.71685 230.528C-12.082 173.209 21.4943 135.794 43.7683 113.191C66.0422 90.5868 82.3394 20.2636 162.315 3.57137C174.516 0.968641 186.974 -0.218622 199.446 0.0330226C227.899 0.759933 258.935 10.0922 280.409 29.6226C282.031 31.0764 283.602 32.5943 285.121 34.1764C314.967 64.8403 327.652 113.907 322.769 155.277Z" fill="#B09ED7"/>
<path opacity="0.7" d="M323.77 156.277C320.189 186.625 306.373 221.907 278.731 238.118C236.985 262.609 240.475 300.28 158.994 316.689C147.113 319.136 135.001 320.281 122.872 320.104C116.934 319.999 111.01 319.514 105.134 318.65C53.3715 311.071 18.5037 275.02 5.71782 231.528C-11.081 174.209 22.4953 136.794 44.7693 114.191C67.0432 91.5868 83.3404 21.2636 163.316 4.57137C175.517 1.96864 187.975 0.781378 200.447 1.03302C228.9 1.75993 259.936 11.0922 281.41 30.6226C283.032 32.0764 284.603 33.5943 286.122 35.1764C315.968 65.8403 328.653 114.907 323.77 156.277Z" fill="white"/>
<path d="M303.132 201.879H293.254C293.158 201.879 293.066 201.84 292.998 201.772C292.93 201.704 292.892 201.612 292.892 201.515C292.892 201.419 292.93 201.326 292.998 201.258C293.066 201.19 293.158 201.152 293.254 201.152H303.132C303.228 201.152 303.321 201.19 303.389 201.258C303.457 201.326 303.495 201.419 303.495 201.515C303.495 201.612 303.457 201.704 303.389 201.772C303.321 201.84 303.228 201.879 303.132 201.879Z" fill="#09011C"/>
<path d="M288.846 201.879H6.69198C6.59574 201.879 6.50344 201.84 6.43539 201.772C6.36734 201.704 6.3291 201.612 6.3291 201.515C6.3291 201.419 6.36734 201.326 6.43539 201.258C6.50344 201.19 6.59574 201.152 6.69198 201.152H288.846C288.942 201.152 289.035 201.19 289.103 201.258C289.171 201.326 289.209 201.419 289.209 201.515C289.209 201.612 289.171 201.704 289.103 201.772C289.035 201.84 288.942 201.879 288.846 201.879Z" fill="#09011C"/>
<path d="M266.001 246.702H164.883L163.895 245.713L163.356 245.178H130.965L130.639 245.713L129.849 246.996H28.2773L68.9297 201.521L225.146 201.516L266.001 246.702Z" fill="#B09ED7"/>
<path opacity="0.4" d="M266.001 246.702H164.883L163.895 245.713L163.356 245.178H130.965L130.639 245.713L129.849 246.996H28.2773L68.9297 201.521L225.146 201.516L266.001 246.702Z" fill="white"/>
<path d="M28.2823 246.969V249.866C28.2808 250.117 28.329 250.365 28.4238 250.597C28.5186 250.829 28.6583 251.04 28.8349 251.218C29.0114 251.396 29.2213 251.537 29.4525 251.633C29.6837 251.73 29.9316 251.779 30.182 251.779H263.301C264.012 251.781 264.694 251.501 265.2 251C265.706 250.499 265.994 249.819 266.001 249.107V246.723H164.882L163.356 245.194H130.97L129.849 247.006L28.2823 246.969Z" fill="#09011C"/>
<path d="M71.4428 98.8179H222.798C223.464 98.8179 224.104 99.0831 224.575 99.5552C225.046 100.027 225.311 100.668 225.311 101.335V201.537H68.9561V101.341C68.9546 100.677 69.2151 100.039 69.6809 99.5665C70.1466 99.094 70.7799 98.8249 71.4428 98.8179V98.8179Z" fill="#09011C"/>
<path d="M221.715 104.81H72.4462C72.1103 104.81 71.8379 105.082 71.8379 105.419V197.533C71.8379 197.87 72.1103 198.143 72.4462 198.143H221.715C222.051 198.143 222.323 197.87 222.323 197.533V105.419C222.323 105.082 222.051 104.81 221.715 104.81Z" fill="white"/>
<path d="M212.856 109.401V190.933C212.857 191.129 212.819 191.323 212.744 191.504C212.669 191.685 212.56 191.85 212.421 191.989C212.283 192.127 212.119 192.237 211.938 192.312C211.757 192.386 211.563 192.424 211.367 192.424H82.8624C82.6672 192.424 82.4738 192.385 82.2935 192.31C82.1131 192.235 81.9494 192.125 81.8115 191.987C81.6737 191.848 81.5645 191.684 81.4903 191.503C81.4161 191.322 81.3782 191.128 81.3789 190.933V109.401C81.3803 109.008 81.5373 108.631 81.8153 108.354C82.0934 108.076 82.4699 107.92 82.8624 107.92H211.367C211.76 107.92 212.137 108.076 212.416 108.353C212.695 108.631 212.853 109.007 212.856 109.401Z" fill="#B09ED7"/>
<path opacity="0.4" d="M212.856 109.401V112.966H81.3789V109.401C81.3803 109.008 81.5372 108.631 81.8153 108.354C82.0934 108.076 82.4699 107.92 82.8624 107.92H211.367C211.76 107.92 212.137 108.076 212.416 108.353C212.695 108.631 212.853 109.007 212.856 109.401Z" fill="white"/>
<path d="M83.5407 111.085C84.0211 111.085 84.4105 110.695 84.4105 110.214C84.4105 109.732 84.0211 109.342 83.5407 109.342C83.0603 109.342 82.6709 109.732 82.6709 110.214C82.6709 110.695 83.0603 111.085 83.5407 111.085Z" fill="#B09ED7"/>
<path d="M86.9665 111.085C87.4469 111.085 87.8363 110.695 87.8363 110.214C87.8363 109.732 87.4469 109.342 86.9665 109.342C86.4861 109.342 86.0967 109.732 86.0967 110.214C86.0967 110.695 86.4861 111.085 86.9665 111.085Z" fill="#09011C"/>
<path d="M90.0935 111.085C90.5739 111.085 90.9633 110.695 90.9633 110.214C90.9633 109.732 90.5739 109.342 90.0935 109.342C89.6131 109.342 89.2236 109.732 89.2236 110.214C89.2236 110.695 89.6131 111.085 90.0935 111.085Z" fill="white"/>
<path opacity="0.4" d="M95.5843 118.626H92.6279C92.5454 118.626 92.4785 118.693 92.4785 118.776V121.737C92.4785 121.82 92.5454 121.887 92.6279 121.887H95.5843C95.6668 121.887 95.7337 121.82 95.7337 121.737V118.776C95.7337 118.693 95.6668 118.626 95.5843 118.626Z" fill="white"/>
<path opacity="0.75" d="M102.169 118.626H97.7988C97.7163 118.626 97.6494 118.693 97.6494 118.776V121.737C97.6494 121.82 97.7163 121.887 97.7988 121.887H102.169C102.252 121.887 102.319 121.82 102.319 121.737V118.776C102.319 118.693 102.252 118.626 102.169 118.626Z" fill="white"/>
<path d="M95.5843 137.457H92.6279C92.5454 137.457 92.4785 137.524 92.4785 137.606V140.567C92.4785 140.65 92.5454 140.717 92.6279 140.717H95.5843C95.6668 140.717 95.7337 140.65 95.7337 140.567V137.606C95.7337 137.524 95.6668 137.457 95.5843 137.457Z" fill="white"/>
<path d="M102.169 137.457H97.7988C97.7163 137.457 97.6494 137.524 97.6494 137.606V140.567C97.6494 140.65 97.7163 140.717 97.7988 140.717H102.169C102.252 140.717 102.319 140.65 102.319 140.567V137.606C102.319 137.524 102.252 137.457 102.169 137.457Z" fill="#09011C"/>
<path opacity="0.4" d="M95.5843 143.667H92.6279C92.5454 143.667 92.4785 143.734 92.4785 143.817V146.778C92.4785 146.861 92.5454 146.928 92.6279 146.928H95.5843C95.6668 146.928 95.7337 146.861 95.7337 146.778V143.817C95.7337 143.734 95.6668 143.667 95.5843 143.667Z" fill="white"/>
<path d="M110.014 143.667H103.792C103.709 143.667 103.643 143.734 103.643 143.817V146.778C103.643 146.861 103.709 146.928 103.792 146.928H110.014C110.097 146.928 110.164 146.861 110.164 146.778V143.817C110.164 143.734 110.097 143.667 110.014 143.667Z" fill="white"/>
<path d="M95.5852 150.172H92.6289C92.5464 150.172 92.4795 150.239 92.4795 150.322V153.283C92.4795 153.365 92.5464 153.432 92.6289 153.432H95.5852C95.6678 153.432 95.7347 153.365 95.7347 153.283V150.322C95.7347 150.239 95.6678 150.172 95.5852 150.172Z" fill="white"/>
<path opacity="0.75" d="M106.353 150.172H100.131C100.048 150.172 99.9814 150.239 99.9814 150.322V153.283C99.9814 153.365 100.048 153.432 100.131 153.432H106.353C106.436 153.432 106.502 153.365 106.502 153.283V150.322C106.502 150.239 106.436 150.172 106.353 150.172Z" fill="white"/>
<g opacity="0.4">
<path d="M95.5843 175.299H92.6279C92.5454 175.299 92.4785 175.366 92.4785 175.448V178.41C92.4785 178.492 92.5454 178.559 92.6279 178.559H95.5843C95.6668 178.559 95.7337 178.492 95.7337 178.41V175.448C95.7337 175.366 95.6668 175.299 95.5843 175.299Z" fill="white"/>
<path d="M106.353 175.299H100.131C100.048 175.299 99.9814 175.366 99.9814 175.448V178.41C99.9814 178.492 100.048 178.559 100.131 178.559H106.353C106.436 178.559 106.502 178.492 106.502 178.41V175.448C106.502 175.366 106.436 175.299 106.353 175.299Z" fill="white"/>
</g>
<g opacity="0.4">
<path d="M95.5843 181.525H92.6279C92.5454 181.525 92.4785 181.592 92.4785 181.675V184.636C92.4785 184.719 92.5454 184.786 92.6279 184.786H95.5843C95.6668 184.786 95.7337 184.719 95.7337 184.636V181.675C95.7337 181.592 95.6668 181.525 95.5843 181.525Z" fill="white"/>
<path d="M106.353 181.525H100.131C100.048 181.525 99.9814 181.592 99.9814 181.675V184.636C99.9814 184.719 100.048 184.786 100.131 184.786H106.353C106.436 184.786 106.502 184.719 106.502 184.636V181.675C106.502 181.592 106.436 181.525 106.353 181.525Z" fill="white"/>
</g>
<path d="M95.5843 188.137H92.6279C92.5454 188.137 92.4785 188.204 92.4785 188.287V191.248C92.4785 191.331 92.5454 191.398 92.6279 191.398H95.5843C95.6668 191.398 95.7337 191.331 95.7337 191.248V188.287C95.7337 188.204 95.6668 188.137 95.5843 188.137Z" fill="white"/>
<path d="M102.207 188.137H97.7881C97.7056 188.137 97.6387 188.204 97.6387 188.287V191.248C97.6387 191.331 97.7056 191.398 97.7881 191.398H102.207C102.289 191.398 102.356 191.331 102.356 191.248V188.287C102.356 188.204 102.289 188.137 102.207 188.137Z" fill="#09011C"/>
<path opacity="0.4" d="M95.5843 156.287H92.6279C92.5454 156.287 92.4785 156.354 92.4785 156.436V159.397C92.4785 159.48 92.5454 159.547 92.6279 159.547H95.5843C95.6668 159.547 95.7337 159.48 95.7337 159.397V156.436C95.7337 156.354 95.6668 156.287 95.5843 156.287Z" fill="white"/>
<path d="M106.353 156.287H100.131C100.048 156.287 99.9814 156.354 99.9814 156.436V159.397C99.9814 159.48 100.048 159.547 100.131 159.547H106.353C106.436 159.547 106.502 159.48 106.502 159.397V156.436C106.502 156.354 106.436 156.287 106.353 156.287Z" fill="white"/>
<path opacity="0.75" d="M127.278 156.287H108.12C108.038 156.287 107.971 156.354 107.971 156.436V159.397C107.971 159.48 108.038 159.547 108.12 159.547H127.278C127.36 159.547 127.427 159.48 127.427 159.397V156.436C127.427 156.354 127.36 156.287 127.278 156.287Z" fill="white"/>
<path d="M148.366 156.287H129.209C129.126 156.287 129.06 156.354 129.06 156.436V159.397C129.06 159.48 129.126 159.547 129.209 159.547H148.366C148.449 159.547 148.516 159.48 148.516 159.397V156.436C148.516 156.354 148.449 156.287 148.366 156.287Z" fill="#09011C"/>
<path opacity="0.75" d="M160.219 156.287H150.304C150.221 156.287 150.154 156.354 150.154 156.436V159.397C150.154 159.48 150.221 159.547 150.304 159.547H160.219C160.301 159.547 160.368 159.48 160.368 159.397V156.436C160.368 156.354 160.301 156.287 160.219 156.287Z" fill="white"/>
<g opacity="0.4">
<path d="M95.5843 162.786H92.6279C92.5454 162.786 92.4785 162.853 92.4785 162.936V165.897C92.4785 165.98 92.5454 166.047 92.6279 166.047H95.5843C95.6668 166.047 95.7337 165.98 95.7337 165.897V162.936C95.7337 162.853 95.6668 162.786 95.5843 162.786Z" fill="white"/>
<path d="M106.353 162.786H100.131C100.048 162.786 99.9814 162.853 99.9814 162.936V165.897C99.9814 165.98 100.048 166.047 100.131 166.047H106.353C106.436 166.047 106.502 165.98 106.502 165.897V162.936C106.502 162.853 106.436 162.786 106.353 162.786Z" fill="white"/>
<path d="M127.277 162.786H108.119C108.037 162.786 107.97 162.853 107.97 162.936V165.897C107.97 165.98 108.037 166.047 108.119 166.047H127.277C127.359 166.047 127.426 165.98 127.426 165.897V162.936C127.426 162.853 127.359 162.786 127.277 162.786Z" fill="white"/>
<path d="M148.366 162.786H129.209C129.126 162.786 129.06 162.853 129.06 162.936V165.897C129.06 165.98 129.126 166.047 129.209 166.047H148.366C148.449 166.047 148.516 165.98 148.516 165.897V162.936C148.516 162.853 148.449 162.786 148.366 162.786Z" fill="white"/>
<path d="M160.218 162.786H150.303C150.22 162.786 150.153 162.853 150.153 162.936V165.897C150.153 165.98 150.22 166.047 150.303 166.047H160.218C160.3 166.047 160.367 165.98 160.367 165.897V162.936C160.367 162.853 160.3 162.786 160.218 162.786Z" fill="white"/>
</g>
<path d="M95.5843 168.799H92.6279C92.5454 168.799 92.4785 168.866 92.4785 168.949V171.91C92.4785 171.993 92.5454 172.06 92.6279 172.06H95.5843C95.6668 172.06 95.7337 171.993 95.7337 171.91V168.949C95.7337 168.866 95.6668 168.799 95.5843 168.799Z" fill="white"/>
<path opacity="0.75" d="M106.353 168.799H100.131C100.048 168.799 99.9814 168.866 99.9814 168.949V171.91C99.9814 171.993 100.048 172.06 100.131 172.06H106.353C106.436 172.06 106.502 171.993 106.502 171.91V168.949C106.502 168.866 106.436 168.799 106.353 168.799Z" fill="white"/>
<path d="M127.278 168.799H108.12C108.038 168.799 107.971 168.866 107.971 168.949V171.91C107.971 171.993 108.038 172.06 108.12 172.06H127.278C127.36 172.06 127.427 171.993 127.427 171.91V168.949C127.427 168.866 127.36 168.799 127.278 168.799Z" fill="#09011C"/>
<path d="M148.366 168.799H129.209C129.126 168.799 129.06 168.866 129.06 168.949V171.91C129.06 171.993 129.126 172.06 129.209 172.06H148.366C148.449 172.06 148.516 171.993 148.516 171.91V168.949C148.516 168.866 148.449 168.799 148.366 168.799Z" fill="white"/>
<path d="M160.219 168.799H150.304C150.221 168.799 150.154 168.866 150.154 168.949V171.91C150.154 171.993 150.221 172.06 150.304 172.06H160.219C160.301 172.06 160.368 171.993 160.368 171.91V168.949C160.368 168.866 160.301 168.799 160.219 168.799Z" fill="#09011C"/>
<path d="M140.783 118.626H103.717C103.634 118.626 103.567 118.693 103.567 118.776V121.737C103.567 121.82 103.634 121.887 103.717 121.887H140.783C140.866 121.887 140.933 121.82 140.933 121.737V118.776C140.933 118.693 140.866 118.626 140.783 118.626Z" fill="#09011C"/>
<path opacity="0.4" d="M95.5843 124.757H92.6279C92.5454 124.757 92.4785 124.824 92.4785 124.906V127.868C92.4785 127.95 92.5454 128.017 92.6279 128.017H95.5843C95.6668 128.017 95.7337 127.95 95.7337 127.868V124.906C95.7337 124.824 95.6668 124.757 95.5843 124.757Z" fill="white"/>
<path opacity="0.75" d="M106.524 124.757H100.756C100.673 124.757 100.606 124.824 100.606 124.906V127.868C100.606 127.95 100.673 128.017 100.756 128.017H106.524C106.607 128.017 106.674 127.95 106.674 127.868V124.906C106.674 124.824 106.607 124.757 106.524 124.757Z" fill="white"/>
<path opacity="0.75" d="M160.219 124.757H151.75C151.667 124.757 151.601 124.824 151.601 124.906V127.868C151.601 127.95 151.667 128.017 151.75 128.017H160.219C160.301 128.017 160.368 127.95 160.368 127.868V124.906C160.368 124.824 160.301 124.757 160.219 124.757Z" fill="white"/>
<path d="M183.218 124.757H162.129C162.046 124.757 161.979 124.824 161.979 124.906V127.868C161.979 127.95 162.046 128.017 162.129 128.017H183.218C183.301 128.017 183.368 127.95 183.368 127.868V124.906C183.368 124.824 183.301 124.757 183.218 124.757Z" fill="#09011C"/>
<path d="M150 124.757H108.12C108.038 124.757 107.971 124.824 107.971 124.906V127.868C107.971 127.95 108.038 128.017 108.12 128.017H150C150.082 128.017 150.149 127.95 150.149 127.868V124.906C150.149 124.824 150.082 124.757 150 124.757Z" fill="white"/>
<path opacity="0.4" d="M95.5843 131.251H92.6279C92.5454 131.251 92.4785 131.318 92.4785 131.401V134.362C92.4785 134.444 92.5454 134.511 92.6279 134.511H95.5843C95.6668 134.511 95.7337 134.444 95.7337 134.362V131.401C95.7337 131.318 95.6668 131.251 95.5843 131.251Z" fill="white"/>
<path opacity="0.75" d="M106.524 131.251H100.756C100.673 131.251 100.606 131.318 100.606 131.401V134.362C100.606 134.444 100.673 134.511 100.756 134.511H106.524C106.607 134.511 106.674 134.444 106.674 134.362V131.401C106.674 131.318 106.607 131.251 106.524 131.251Z" fill="white"/>
<path opacity="0.75" d="M160.219 131.251H151.75C151.667 131.251 151.601 131.318 151.601 131.401V134.362C151.601 134.444 151.667 134.511 151.75 134.511H160.219C160.301 134.511 160.368 134.444 160.368 134.362V131.401C160.368 131.318 160.301 131.251 160.219 131.251Z" fill="white"/>
<path d="M183.218 131.251H162.129C162.046 131.251 161.979 131.318 161.979 131.401V134.362C161.979 134.444 162.046 134.511 162.129 134.511H183.218C183.301 134.511 183.368 134.444 183.368 134.362V131.401C183.368 131.318 183.301 131.251 183.218 131.251Z" fill="white"/>
<path d="M150 131.251H108.12C108.038 131.251 107.971 131.318 107.971 131.401V134.362C107.971 134.444 108.038 134.511 108.12 134.511H150C150.082 134.511 150.149 134.444 150.149 134.362V131.401C150.149 131.318 150.082 131.251 150 131.251Z" fill="#09011C"/>
<path opacity="0.2" d="M147.161 103.682C148.027 103.682 148.73 102.978 148.73 102.11C148.73 101.243 148.027 100.539 147.161 100.539C146.294 100.539 145.592 101.243 145.592 102.11C145.592 102.978 146.294 103.682 147.161 103.682Z" fill="black"/>
<path d="M298.964 189.275V237.444C298.961 238.023 298.729 238.577 298.319 238.985C297.909 239.392 297.354 239.621 296.776 239.619H268.184C267.898 239.62 267.614 239.564 267.35 239.455C267.086 239.346 266.845 239.186 266.642 238.984C266.44 238.782 266.279 238.542 266.169 238.278C266.059 238.014 266.002 237.73 266.001 237.444V189.275H266.257C267.618 190.056 274.374 190.654 282.485 190.654C290.596 190.654 297.347 190.056 298.707 189.275H298.964Z" fill="#B09ED7"/>
<path opacity="0.2" d="M298.964 195.401V237.444C298.961 238.023 298.729 238.577 298.319 238.985C297.909 239.393 297.354 239.621 296.776 239.619H268.184C267.898 239.62 267.614 239.564 267.35 239.456C267.086 239.347 266.845 239.187 266.642 238.985C266.44 238.783 266.279 238.543 266.169 238.278C266.059 238.014 266.002 237.73 266.001 237.444V235.488C270.628 236.129 286.311 237.407 293.163 226.273C293.715 225.356 294.182 224.39 294.556 223.387C295.986 219.651 298.953 210.217 298.964 195.401Z" fill="black"/>
<path d="M299.407 195.401C299.259 195.393 299.111 195.393 298.964 195.401V201.537C299.111 201.529 299.259 201.529 299.407 201.537C304.903 201.537 309.37 206.209 309.37 211.96C309.37 217.711 304.903 222.382 299.407 222.382C299.252 222.382 299.113 222.382 298.964 222.382V228.476C299.113 228.476 299.252 228.476 299.407 228.476C308.137 228.476 315.218 221.073 315.218 211.906C315.218 202.74 308.137 195.401 299.407 195.401Z" fill="#B09ED7"/>
<path opacity="0.4" d="M298.964 195.417V201.537C298.964 201.537 301.829 201.467 303.457 202.429V195.951C301.988 195.582 300.478 195.402 298.964 195.417V195.417Z" fill="white"/>
<path opacity="0.4" d="M298.964 222.35V228.475C298.964 228.475 301.845 228.513 303.564 227.909L303.217 221.57C301.877 222.15 300.422 222.417 298.964 222.35V222.35Z" fill="white"/>
<path d="M275.078 190.441H273.915V207.187H275.078V190.441Z" fill="white"/>
<path opacity="0.4" d="M188.261 245.713H163.895L163.361 245.178H130.97L130.644 245.713H105.691C105.578 245.71 105.467 245.679 105.368 245.624C105.268 245.568 105.184 245.49 105.121 245.395C105.058 245.3 105.019 245.192 105.007 245.079C104.995 244.966 105.01 244.852 105.051 244.746L111.129 228.673L183.415 228.711L188.912 244.746C188.954 244.852 188.97 244.968 188.958 245.082C188.946 245.197 188.906 245.306 188.842 245.402C188.777 245.497 188.691 245.575 188.59 245.63C188.488 245.684 188.375 245.712 188.261 245.713V245.713Z" fill="white"/>
<path d="M270.308 213.83V209.02C270.308 208.784 270.36 208.551 270.461 208.337C270.561 208.124 270.708 207.935 270.889 207.785L274.203 205.038C274.287 204.971 274.392 204.934 274.499 204.934C274.607 204.934 274.711 204.971 274.795 205.038L278.424 207.913C278.614 208.064 278.768 208.256 278.873 208.474C278.979 208.693 279.033 208.932 279.033 209.175V213.83C279.033 213.915 279.016 213.998 278.984 214.076C278.952 214.154 278.904 214.224 278.845 214.284C278.786 214.343 278.715 214.391 278.637 214.423C278.56 214.455 278.476 214.472 278.392 214.472H270.948C270.778 214.472 270.615 214.404 270.495 214.284C270.375 214.164 270.308 214 270.308 213.83V213.83Z" fill="#09011C"/>
<path d="M110.953 207.293H183.629" stroke="white" stroke-width="0.25" stroke-miterlimit="10"/>
<path d="M119.32 210.971H175.261" stroke="white" stroke-width="0.25" stroke-miterlimit="10"/>
<path d="M122.522 214.386H172.06" stroke="white" stroke-width="0.25" stroke-miterlimit="10"/>
<path d="M104.571 218.978H190.017" stroke="white" stroke-width="0.25" stroke-miterlimit="10"/>
<path d="M120.825 223.825H173.821" stroke="white" stroke-width="0.25" stroke-miterlimit="10"/>
<path d="M106.156 223.103L109.017 214.92" stroke="white" stroke-width="0.25" stroke-miterlimit="10"/>
<path d="M119.977 207.293L116.722 219.015" stroke="white" stroke-width="0.25" stroke-miterlimit="10"/>
<path d="M123.478 210.971L122.977 214.386" stroke="white" stroke-width="0.25" stroke-miterlimit="10"/>
<path d="M127.667 207.293L127.011 210.971" stroke="white" stroke-width="0.25" stroke-miterlimit="10"/>
<path d="M126.322 214.386L125.506 218.978" stroke="white" stroke-width="0.25" stroke-miterlimit="10"/>
<path d="M134.391 218.978L134.828 214.386" stroke="white" stroke-width="0.25" stroke-miterlimit="10"/>
<path d="M131.546 210.971L131.167 214.386" stroke="white" stroke-width="0.25" stroke-miterlimit="10"/>
<path d="M135.746 207.293L135.554 210.971" stroke="white" stroke-width="0.25" stroke-miterlimit="10"/>
<path d="M143.964 207.454L143.777 211.136" stroke="white" stroke-width="0.25" stroke-miterlimit="10"/>
<path d="M139.876 210.971V214.386" stroke="white" stroke-width="0.25" stroke-miterlimit="10"/>
<path d="M148.297 210.971V214.386" stroke="white" stroke-width="0.25" stroke-miterlimit="10"/>
<path d="M143.425 214.386V218.978" stroke="white" stroke-width="0.25" stroke-miterlimit="10"/>
<path d="M152.47 214.386V218.978" stroke="white" stroke-width="0.25" stroke-miterlimit="10"/>
<path d="M160.998 214.386V218.978" stroke="white" stroke-width="0.25" stroke-miterlimit="10"/>
<path d="M169.13 214.45L169.93 223.825" stroke="white" stroke-width="0.25" stroke-miterlimit="10"/>
<path d="M178.341 214.616L179.648 223.825" stroke="white" stroke-width="0.25" stroke-miterlimit="10"/>
<path d="M186.745 214.493L188.954 223.825" stroke="white" stroke-width="0.25" stroke-miterlimit="10"/>
<path d="M156.91 214.386L156.644 210.971" stroke="white" stroke-width="0.25" stroke-miterlimit="10"/>
<path d="M165.085 210.971L165.619 214.386" stroke="white" stroke-width="0.25" stroke-miterlimit="10"/>
<path d="M152.021 207.293V210.971" stroke="white" stroke-width="0.25" stroke-miterlimit="10"/>
<path d="M159.994 207.293V210.971" stroke="white" stroke-width="0.25" stroke-miterlimit="10"/>
<path d="M168.175 207.293V210.971" stroke="white" stroke-width="0.25" stroke-miterlimit="10"/>
<path d="M176.062 207.293V210.971" stroke="white" stroke-width="0.25" stroke-miterlimit="10"/>
<path d="M298.964 188.987C298.964 189.078 298.878 189.185 298.707 189.276C297.347 190.056 290.591 190.655 282.485 190.655C274.379 190.655 267.618 190.056 266.257 189.276C266.081 189.185 266.001 189.078 266.001 188.987C266.001 188.068 273.381 187.319 282.485 187.319C291.589 187.319 298.964 188.068 298.964 188.987Z" fill="#B09ED7"/>
<path d="M281.952 190.649C290 190.649 296.525 190.063 296.525 189.34C296.525 188.617 290 188.03 281.952 188.03C273.903 188.03 267.378 188.617 267.378 189.34C267.378 190.063 273.903 190.649 281.952 190.649Z" fill="white"/>
<path d="M226.426 30.3228C218.15 30.3238 210.064 32.8066 203.21 37.4512C196.355 42.0959 191.046 48.6897 187.966 56.3833C184.886 64.0769 184.177 72.5179 185.929 80.6191C187.681 88.7203 191.814 96.1106 197.797 101.838L191.895 112.87L206.393 108.166C211.93 111.233 218.093 112.989 224.412 113.301C230.73 113.612 237.036 112.471 242.847 109.965C248.657 107.458 253.817 103.653 257.932 98.8398C262.047 94.027 265.007 88.3346 266.586 82.1988C268.165 76.0629 268.321 69.6464 267.042 63.441C265.762 57.2355 263.082 51.4057 259.205 46.3983C255.328 41.3909 250.359 37.3387 244.677 34.5522C238.996 31.7658 232.752 30.319 226.426 30.3228V30.3228Z" fill="#09011C"/>
<path d="M224.479 27.3618C216.203 27.3623 208.117 29.8443 201.262 34.4882C194.406 39.132 189.096 45.7251 186.015 53.4183C182.933 61.1114 182.221 69.5524 183.971 77.6542C185.721 85.756 189.853 93.1476 195.834 98.877L189.937 109.904L204.43 105.205C209.967 108.275 216.131 110.035 222.452 110.35C228.772 110.664 235.08 109.525 240.893 107.02C246.706 104.514 251.869 100.709 255.986 95.8962C260.104 91.0831 263.066 85.3897 264.647 79.2523C266.228 73.1149 266.385 66.6965 265.105 60.489C263.826 54.2816 261.145 48.4498 257.268 43.4407C253.39 38.4317 248.419 34.3783 242.736 31.5912C237.052 28.8041 230.807 27.3574 224.479 27.3618V27.3618Z" fill="white"/>
<path d="M224.478 110.758C217.448 110.753 210.532 108.977 204.366 105.595L190.054 110.251C189.984 110.273 189.909 110.273 189.838 110.252C189.768 110.231 189.705 110.19 189.659 110.133C189.614 110.076 189.587 110.008 189.579 109.936C189.572 109.864 189.584 109.792 189.616 109.727L195.417 98.9462C188.452 92.1822 184.052 83.2029 182.971 73.5466C181.89 63.8903 184.196 54.158 189.492 46.0172C194.789 37.8764 202.747 31.8338 212.003 28.9245C221.259 26.0153 231.237 26.4205 240.228 30.0707C249.219 33.721 256.662 40.3891 261.283 48.9327C265.904 57.4762 267.416 67.3634 265.558 76.9004C263.7 86.4374 258.589 95.0305 251.1 101.208C243.612 107.385 234.212 110.761 224.51 110.758H224.478ZM204.408 104.842C204.47 104.842 204.53 104.856 204.584 104.884C213.732 109.968 224.469 111.372 234.614 108.812C244.758 106.253 253.549 99.9211 259.201 91.1038C264.853 82.2865 266.942 71.6448 265.043 61.3407C263.144 51.0366 257.4 41.843 248.978 35.6275C240.556 29.4121 230.087 26.641 219.699 27.8773C209.311 29.1137 199.782 34.2646 193.049 42.2837C186.315 50.3028 182.882 60.5886 183.447 71.0515C184.011 81.5144 188.532 91.3695 196.089 98.6148C196.146 98.6683 196.184 98.7398 196.196 98.8174C196.207 98.8951 196.192 98.9744 196.153 99.0424L190.683 109.278L204.296 104.858L204.408 104.842Z" fill="#09011C"/>
<path d="M210.604 85.9903L194.659 74.7232V68.7475L210.604 57.3735V63.3973L199.184 71.7086L210.604 80.02V85.9903Z" fill="#B09ED7"/>
<path d="M215.45 87.9999L227.59 42.7925H232.772L220.573 87.9839L215.45 87.9999Z" fill="#B09ED7"/>
<path d="M237.611 85.9903V80.02L249.084 71.6552L237.611 63.4026V57.3735L253.62 68.6994V74.6644L237.611 85.9903Z" fill="#B09ED7"/>
<path d="M212.579 83.5157L196.634 72.2486V66.2783L212.579 54.8989V60.9227L201.154 69.234L212.579 77.5347V83.5157Z" fill="#09011C"/>
<path d="M217.419 85.5518L229.559 40.3657H234.741L222.542 85.5518H217.419Z" fill="#09011C"/>
<path d="M239.586 83.5157V77.5347L251.07 69.1752L239.586 60.912V54.8989L255.595 66.2195V72.1898L239.586 83.5157Z" fill="#09011C"/>
<path d="M86.9238 240.656C86.9783 241.087 86.9175 241.524 86.7478 241.923C86.5781 242.322 86.3055 242.669 85.958 242.928C82.3773 245.654 70.4132 257.728 57.8354 303.764H0C11.6759 269.556 48.278 232.029 55.0178 225.311C55.7152 224.613 56.6478 224.201 57.6326 224.156C60.8771 224.017 68.6095 224.007 75.3333 226.658C81.0272 228.919 86.006 233.072 86.9238 240.656Z" fill="#B09ED7"/>
<path d="M123.478 227.428C123.478 233.997 112.005 232.473 112.005 232.473C107.085 232.238 104.049 233.751 104.049 233.751C96.6684 236.102 86.2731 237.535 86.2731 237.535C86.2749 237.521 86.2749 237.506 86.2731 237.492C85.5384 235.296 84.3491 233.28 82.7832 231.575C82.7011 231.476 82.6119 231.383 82.5163 231.297C74.9707 223.456 61.1016 224.098 61.1016 224.098L76.1928 212.761C76.1928 212.761 77.0626 212.521 78.2259 209.934C78.2259 209.934 80.0616 205.273 82.3883 205.273H86.54C86.54 205.273 90.3555 198.207 93.3438 200.115C94.2654 200.695 95.1053 201.396 95.8412 202.2C95.8412 202.2 101.652 196.213 106.306 200.596C106.306 200.596 110.121 205.252 110.954 207.256C112.58 207.119 114.209 207.477 115.628 208.282C118.108 209.772 120.337 211.645 122.235 213.83C122.372 213.983 122.471 214.166 122.523 214.365C122.589 214.562 122.606 214.772 122.572 214.977C122.537 215.183 122.453 215.376 122.326 215.541C119.711 218.86 115.164 214.514 115.164 214.514C112.352 215.097 107.912 214.867 107.912 214.867C106.039 218.849 100.772 221.548 100.772 221.548C106.642 224.124 110.714 222.949 110.714 222.949C120.143 221.222 122.63 224.846 123.259 226.567C123.364 226.845 123.438 227.133 123.478 227.428Z" fill="#F9B499"/>
<path d="M97.8311 207.454L109.539 207.037C109.539 207.037 106.636 201.884 103.669 202.462C103.685 202.462 100.739 203.044 97.8311 207.454Z" fill="#F7A48B"/>
<path d="M122.325 215.562C119.71 218.881 115.164 214.536 115.164 214.536C112.351 215.118 107.911 214.888 107.911 214.888C106.038 218.87 100.771 221.569 100.771 221.569C99.6603 221.216 98.6513 220.598 97.8311 219.768C97.8311 219.768 106.551 217.855 107.132 213.44C107.132 213.44 113.109 214.509 114.945 212.114C114.945 212.114 116.108 216.096 119.337 215.353C120.436 215.181 121.505 214.851 122.512 214.375V214.375C122.581 214.573 122.601 214.785 122.568 214.992C122.536 215.199 122.452 215.395 122.325 215.562V215.562Z" fill="#F7A48B"/>
<path d="M123.477 227.427C123.477 233.996 112.004 232.473 112.004 232.473C107.084 232.238 104.048 233.75 104.048 233.75C96.6676 236.102 86.2724 237.535 86.2724 237.535C86.2742 237.521 86.2742 237.506 86.2724 237.492C85.5725 235.28 84.379 233.257 82.7824 231.575C82.7004 231.476 82.6112 231.383 82.5156 231.297C82.9425 231.048 83.3368 230.746 83.6896 230.399C83.8359 230.251 84.0266 230.154 84.2328 230.124C84.439 230.094 84.6493 230.133 84.8316 230.234C86.3204 231.083 90.7016 232.853 99.5172 231.164C100.118 231.034 100.707 230.856 101.278 230.629C102.835 230.06 104.483 229.781 106.14 229.806C106.14 229.806 113.675 230.121 116.375 227.107C116.495 226.973 116.659 226.886 116.837 226.863C117.015 226.839 117.195 226.88 117.346 226.978C118.483 227.711 121.129 228.972 123.269 226.567C123.371 226.845 123.441 227.134 123.477 227.427V227.427Z" fill="#F7A48B"/>
<path d="M85.3818 206.123C85.4299 206.393 85.4241 206.67 85.3645 206.938C85.305 207.206 85.193 207.459 85.0349 207.683C84.7715 208.131 84.4443 208.538 84.0637 208.891C83.3196 209.6 82.3975 210.093 81.3955 210.318C81.6376 209.866 81.9351 209.446 82.2813 209.068C82.5999 208.707 82.9365 208.363 83.2899 208.036C83.6368 207.721 83.9943 207.411 84.3572 207.111C84.734 206.821 85.0776 206.489 85.3818 206.123V206.123Z" fill="#F7A48B"/>
<path d="M89.4697 206.678C90.7603 204.889 92.6572 203.631 94.8061 203.14C93.522 204.938 91.6226 206.199 89.4697 206.684V206.678Z" fill="#F7A48B"/>
<path opacity="0.2" d="M86.9241 240.656C86.9785 241.086 86.9177 241.524 86.748 241.923C86.5783 242.322 86.3057 242.669 85.9582 242.928C82.3775 245.654 70.4134 257.728 57.8356 303.764H33.9395C33.9395 303.764 55.2262 289.803 71.8276 254.2C71.8276 254.2 77.6282 242.767 75.3282 226.658C81.0274 228.919 86.0062 233.072 86.9241 240.656Z" fill="black"/>
<path d="M207.664 240.656C207.609 241.087 207.67 241.524 207.84 241.923C208.01 242.322 208.282 242.669 208.63 242.928C212.21 245.654 224.175 257.728 236.752 303.764H294.588C282.912 269.556 246.31 232.029 239.57 225.311C238.871 224.612 237.936 224.2 236.95 224.156C233.711 224.017 225.978 224.007 219.254 226.658C213.561 228.919 208.582 233.072 207.664 240.656Z" fill="#B09ED7"/>
<path d="M208.048 205.278H212.205C214.527 205.278 216.368 209.939 216.368 209.939C217.531 212.526 218.401 212.766 218.401 212.766L233.503 224.087C233.503 224.087 219.628 223.446 212.088 231.287C211.992 231.373 211.903 231.465 211.821 231.564C210.255 233.269 209.066 235.285 208.331 237.481C208.329 237.496 208.329 237.51 208.331 237.524C208.331 237.524 197.936 236.092 190.556 233.74C190.556 233.74 187.519 232.227 182.599 232.462C182.599 232.462 171.126 233.986 171.126 227.417C171.164 227.13 171.234 226.849 171.334 226.578V226.578C171.964 224.857 174.451 221.233 183.88 222.959C183.88 222.959 187.973 224.135 193.821 221.559C193.821 221.559 188.555 218.86 186.681 214.878C186.681 214.878 182.242 215.107 179.429 214.525C179.429 214.525 174.883 218.87 172.268 215.551C172.14 215.387 172.054 215.194 172.019 214.989C171.984 214.783 171.999 214.573 172.065 214.375C172.121 214.177 172.222 213.994 172.359 213.841C174.256 211.66 176.486 209.793 178.965 208.309C180.383 207.504 182.01 207.146 183.634 207.282C183.634 207.282 187.3 199.131 198.752 202.205C198.747 202.215 202.888 200.265 208.048 205.278Z" fill="#F9B499"/>
<path d="M196.757 207.454L185.049 207.037C185.049 207.037 187.952 203.546 190.919 204.129C190.903 204.129 194.249 204.011 196.757 207.454Z" fill="#F7A48B"/>
<path d="M172.262 215.562C174.877 218.881 179.424 214.536 179.424 214.536C182.236 215.118 186.676 214.888 186.676 214.888C188.549 218.87 193.816 221.569 193.816 221.569C194.927 221.215 195.935 220.597 196.756 219.768C196.756 219.768 188.037 217.855 187.455 213.44C187.455 213.44 181.478 214.509 179.643 212.114C179.643 212.114 178.479 216.096 175.245 215.353C174.147 215.177 173.08 214.844 172.076 214.364C172.004 214.564 171.983 214.778 172.016 214.987C172.049 215.196 172.133 215.394 172.262 215.562V215.562Z" fill="#F7A48B"/>
<path d="M171.115 227.427C171.115 233.996 182.588 232.473 182.588 232.473C187.509 232.238 190.545 233.75 190.545 233.75C197.925 236.102 208.32 237.535 208.32 237.535C208.318 237.521 208.318 237.506 208.32 237.492C209.02 235.28 210.214 233.257 211.81 231.575C211.892 231.476 211.981 231.383 212.077 231.297C211.65 231.048 211.256 230.746 210.903 230.399C210.757 230.251 210.566 230.154 210.36 230.124C210.154 230.094 209.943 230.133 209.761 230.234C208.272 231.083 203.891 232.853 195.075 231.164C194.475 231.034 193.886 230.856 193.314 230.629C191.758 230.06 190.11 229.781 188.453 229.806C188.453 229.806 180.918 230.121 178.218 227.107C178.098 226.973 177.934 226.886 177.756 226.863C177.578 226.839 177.397 226.88 177.247 226.978C176.11 227.711 173.458 228.972 171.323 226.567C171.222 226.845 171.152 227.134 171.115 227.427Z" fill="#F7A48B"/>
<path d="M209.201 206.123C209.519 206.491 209.877 206.823 210.268 207.111C210.626 207.411 210.978 207.721 211.335 208.036C211.689 208.363 212.025 208.707 212.344 209.068C212.69 209.446 212.988 209.866 213.23 210.318C212.228 210.093 211.306 209.6 210.562 208.891C210.162 208.542 209.817 208.135 209.537 207.683C209.224 207.228 209.103 206.667 209.201 206.123V206.123Z" fill="#F7A48B"/>
<path d="M205.108 206.678C202.955 206.194 201.056 204.932 199.771 203.135C201.921 203.627 203.818 204.887 205.108 206.678Z" fill="#F7A48B"/>
<path opacity="0.2" d="M207.664 240.656C207.609 241.086 207.67 241.524 207.84 241.923C208.01 242.322 208.282 242.669 208.63 242.928C212.21 245.654 224.175 257.728 236.752 303.764H260.649C260.649 303.764 239.357 289.803 222.76 254.2C222.76 254.2 216.96 242.767 219.26 226.658C213.561 228.919 208.582 233.072 207.664 240.656Z" fill="black"/>
</svg>
