<svg width="181" height="21" viewBox="0 0 181 21" fill="none" xmlns="http://www.w3.org/2000/svg">
<path d="M15.016 3.368L10.384 20H5.488L0.688 3.368H4.84L8.008 16.928L10.984 3.368H15.016ZM19.9675 7.256V20H16.1755V7.256H19.9675ZM18.0475 0.535999C18.7035 0.535999 19.2395 0.743999 19.6555 1.16C20.0875 1.56 20.3035 2.072 20.3035 2.696C20.3035 3.32 20.0875 3.84 19.6555 4.256C19.2395 4.656 18.7035 4.856 18.0475 4.856C17.3915 4.856 16.8555 4.656 16.4395 4.256C16.0235 3.84 15.8155 3.32 15.8155 2.696C15.8155 2.072 16.0235 1.56 16.4395 1.16C16.8555 0.743999 17.3915 0.535999 18.0475 0.535999ZM28.4689 6.848C29.3489 6.848 30.1409 6.976 30.8449 7.232C31.5489 7.488 32.2129 7.88 32.8369 8.408L31.2049 10.664C30.4049 10.056 29.5969 9.752 28.7809 9.752C27.9329 9.752 27.2929 10.064 26.8609 10.688C26.4289 11.312 26.2129 12.32 26.2129 13.712C26.2129 15.056 26.4289 16.008 26.8609 16.568C27.2929 17.128 27.9169 17.408 28.7329 17.408C29.1649 17.408 29.5569 17.344 29.9089 17.216C30.2609 17.072 30.6849 16.848 31.1809 16.544L32.8369 18.896C31.5729 19.904 30.1409 20.408 28.5409 20.408C27.2449 20.408 26.1249 20.136 25.1809 19.592C24.2369 19.032 23.5089 18.256 22.9969 17.264C22.4849 16.256 22.2289 15.08 22.2289 13.736C22.2289 12.392 22.4849 11.2 22.9969 10.16C23.5089 9.12 24.2369 8.312 25.1809 7.736C26.1249 7.144 27.2209 6.848 28.4689 6.848ZM42.4253 19.4C41.9613 19.72 41.4173 19.968 40.7933 20.144C40.1853 20.32 39.5773 20.408 38.9693 20.408C36.1853 20.392 34.7933 18.856 34.7933 15.8V9.896H32.9933V7.256H34.7933V4.496L38.5853 4.064V7.256H41.5133L41.1053 9.896H38.5853V15.752C38.5853 16.344 38.6813 16.768 38.8733 17.024C39.0653 17.28 39.3693 17.408 39.7853 17.408C40.2173 17.408 40.6733 17.272 41.1533 17L42.4253 19.4ZM48.7893 6.848C50.7413 6.848 52.2693 7.448 53.3733 8.648C54.4773 9.832 55.0293 11.496 55.0293 13.64C55.0293 15 54.7733 16.192 54.2613 17.216C53.7653 18.224 53.0453 19.008 52.1013 19.568C51.1733 20.128 50.0693 20.408 48.7893 20.408C46.8533 20.408 45.3253 19.816 44.2053 18.632C43.1013 17.432 42.5493 15.76 42.5493 13.616C42.5493 12.256 42.7973 11.072 43.2933 10.064C43.8053 9.04 44.5253 8.248 45.4533 7.688C46.3973 7.128 47.5093 6.848 48.7893 6.848ZM48.7893 9.632C48.0213 9.632 47.4453 9.96 47.0613 10.616C46.6773 11.256 46.4853 12.256 46.4853 13.616C46.4853 15.008 46.6693 16.024 47.0373 16.664C47.4213 17.304 48.0053 17.624 48.7893 17.624C49.5573 17.624 50.1333 17.304 50.5173 16.664C50.9013 16.008 51.0933 15 51.0933 13.64C51.0933 12.248 50.9013 11.232 50.5173 10.592C50.1493 9.952 49.5733 9.632 48.7893 9.632ZM64.1969 6.896C64.6609 6.896 65.0849 6.952 65.4689 7.064L64.8689 10.736C64.3889 10.624 64.0049 10.568 63.7169 10.568C62.9649 10.568 62.3889 10.832 61.9889 11.36C61.6049 11.872 61.3009 12.648 61.0769 13.688V20H57.2849V7.256H60.5969L60.9089 9.728C61.1969 8.848 61.6289 8.16 62.2049 7.664C62.7969 7.152 63.4609 6.896 64.1969 6.896ZM81.445 20L80.581 16.424H75.733L74.893 20H70.813L75.829 3.368H80.605L85.621 20H81.445ZM76.405 13.568H79.909L78.157 6.224L76.405 13.568ZM90.1533 20.408C89.0493 20.408 88.1853 20.096 87.5613 19.472C86.9533 18.832 86.6493 17.928 86.6493 16.76V2.192L90.4413 1.784V16.616C90.4413 17.144 90.6573 17.408 91.0893 17.408C91.3133 17.408 91.5213 17.368 91.7133 17.288L92.4573 19.976C91.7693 20.264 91.0013 20.408 90.1533 20.408ZM104.889 13.376C104.889 13.904 104.865 14.36 104.817 14.744H96.9211C97.0491 15.816 97.3531 16.568 97.8331 17C98.3131 17.432 98.9771 17.648 99.8251 17.648C100.337 17.648 100.833 17.56 101.313 17.384C101.793 17.192 102.313 16.904 102.873 16.52L104.433 18.632C102.945 19.816 101.289 20.408 99.4651 20.408C97.4011 20.408 95.8171 19.8 94.7131 18.584C93.6091 17.368 93.0571 15.736 93.0571 13.688C93.0571 12.392 93.2891 11.232 93.7531 10.208C94.2171 9.168 94.8971 8.352 95.7931 7.76C96.6891 7.152 97.7611 6.848 99.0091 6.848C100.849 6.848 102.289 7.424 103.329 8.576C104.369 9.728 104.889 11.328 104.889 13.376ZM101.169 12.296C101.137 10.344 100.449 9.368 99.1051 9.368C98.4491 9.368 97.9371 9.608 97.5691 10.088C97.2171 10.568 97.0011 11.36 96.9211 12.464H101.169V12.296ZM113.651 13.184L117.755 20H113.459L111.251 15.224L109.091 20H104.963L109.067 13.304L105.371 7.256H109.619L111.395 11.336L113.099 7.256H117.131L113.651 13.184ZM128.772 16.304C128.772 16.784 128.836 17.136 128.964 17.36C129.108 17.584 129.332 17.752 129.636 17.864L128.844 20.336C128.06 20.272 127.42 20.104 126.924 19.832C126.428 19.544 126.044 19.096 125.772 18.488C124.94 19.768 123.66 20.408 121.932 20.408C120.668 20.408 119.66 20.04 118.908 19.304C118.156 18.568 117.78 17.608 117.78 16.424C117.78 15.032 118.292 13.968 119.316 13.232C120.34 12.496 121.82 12.128 123.756 12.128H125.052V11.576C125.052 10.824 124.892 10.312 124.572 10.04C124.252 9.752 123.692 9.608 122.892 9.608C122.476 9.608 121.972 9.672 121.38 9.8C120.788 9.912 120.18 10.072 119.556 10.28L118.692 7.784C119.492 7.48 120.308 7.248 121.14 7.088C121.988 6.928 122.772 6.848 123.492 6.848C125.316 6.848 126.652 7.224 127.5 7.976C128.348 8.728 128.772 9.856 128.772 11.36V16.304ZM123.036 17.696C123.9 17.696 124.572 17.288 125.052 16.472V14.216H124.116C123.252 14.216 122.604 14.368 122.172 14.672C121.756 14.976 121.548 15.448 121.548 16.088C121.548 16.6 121.676 17 121.932 17.288C122.204 17.56 122.572 17.696 123.036 17.696ZM139.257 6.848C140.361 6.848 141.225 7.184 141.849 7.856C142.473 8.528 142.785 9.472 142.785 10.688V20H138.993V11.336C138.993 10.696 138.889 10.256 138.681 10.016C138.489 9.76 138.193 9.632 137.793 9.632C137.025 9.632 136.289 10.184 135.585 11.288V20H131.793V7.256H135.105L135.369 8.768C135.913 8.128 136.497 7.648 137.121 7.328C137.761 7.008 138.473 6.848 139.257 6.848ZM157.068 2.192V20H153.708L153.516 18.512C152.62 19.776 151.412 20.408 149.892 20.408C148.308 20.408 147.1 19.8 146.268 18.584C145.452 17.368 145.044 15.704 145.044 13.592C145.044 12.296 145.26 11.136 145.692 10.112C146.124 9.088 146.732 8.288 147.516 7.712C148.316 7.136 149.228 6.848 150.252 6.848C151.468 6.848 152.476 7.248 153.276 8.048V1.784L157.068 2.192ZM151.068 17.624C151.948 17.624 152.684 17.144 153.276 16.184V10.688C152.972 10.32 152.66 10.048 152.34 9.872C152.036 9.696 151.684 9.608 151.284 9.608C150.58 9.608 150.02 9.936 149.604 10.592C149.188 11.248 148.98 12.256 148.98 13.616C148.98 15.104 149.156 16.144 149.508 16.736C149.876 17.328 150.396 17.624 151.068 17.624ZM166.947 6.896C167.411 6.896 167.835 6.952 168.219 7.064L167.619 10.736C167.139 10.624 166.755 10.568 166.467 10.568C165.715 10.568 165.139 10.832 164.739 11.36C164.355 11.872 164.051 12.648 163.827 13.688V20H160.035V7.256H163.347L163.659 9.728C163.947 8.848 164.379 8.16 164.955 7.664C165.547 7.152 166.211 6.896 166.947 6.896ZM180.053 13.376C180.053 13.904 180.029 14.36 179.981 14.744H172.085C172.213 15.816 172.517 16.568 172.997 17C173.477 17.432 174.141 17.648 174.989 17.648C175.501 17.648 175.997 17.56 176.477 17.384C176.957 17.192 177.477 16.904 178.037 16.52L179.597 18.632C178.109 19.816 176.453 20.408 174.629 20.408C172.565 20.408 170.981 19.8 169.877 18.584C168.773 17.368 168.221 15.736 168.221 13.688C168.221 12.392 168.453 11.232 168.917 10.208C169.381 9.168 170.061 8.352 170.957 7.76C171.853 7.152 172.925 6.848 174.173 6.848C176.013 6.848 177.453 7.424 178.493 8.576C179.533 9.728 180.053 11.328 180.053 13.376ZM176.333 12.296C176.301 10.344 175.613 9.368 174.269 9.368C173.613 9.368 173.101 9.608 172.733 10.088C172.381 10.568 172.165 11.36 172.085 12.464H176.333V12.296Z" fill="#09011C"/>
</svg>
